G75*
%MOIN*%
%OFA0B0*%
%FSLAX24Y24*%
%IPPOS*%
%LPD*%
%AMOC8*
5,1,8,0,0,1.08239X$1,22.5*
%
%ADD10C,0.0000*%
%ADD11R,0.0800X0.0800*%
%ADD12C,0.0800*%
%ADD13C,0.0740*%
%ADD14C,0.0760*%
%ADD15R,0.0787X0.0472*%
%ADD16R,0.0531X0.0236*%
%ADD17R,0.0394X0.0433*%
%ADD18R,0.0433X0.0394*%
%ADD19C,0.0400*%
%ADD20C,0.0240*%
%ADD21C,0.0080*%
D10*
X000100Y000100D02*
X000100Y028600D01*
X017100Y028600D01*
X017100Y000100D01*
X000100Y000100D01*
X011510Y003610D02*
X011512Y003659D01*
X011518Y003707D01*
X011528Y003755D01*
X011542Y003802D01*
X011559Y003848D01*
X011580Y003892D01*
X011605Y003934D01*
X011633Y003974D01*
X011665Y004012D01*
X011699Y004047D01*
X011736Y004079D01*
X011775Y004108D01*
X011817Y004134D01*
X011861Y004156D01*
X011906Y004174D01*
X011953Y004189D01*
X012000Y004200D01*
X012049Y004207D01*
X012098Y004210D01*
X012147Y004209D01*
X012195Y004204D01*
X012244Y004195D01*
X012291Y004182D01*
X012337Y004165D01*
X012381Y004145D01*
X012424Y004121D01*
X012465Y004094D01*
X012503Y004063D01*
X012539Y004030D01*
X012571Y003994D01*
X012601Y003955D01*
X012628Y003914D01*
X012651Y003870D01*
X012670Y003825D01*
X012686Y003779D01*
X012698Y003732D01*
X012706Y003683D01*
X012710Y003634D01*
X012710Y003586D01*
X012706Y003537D01*
X012698Y003488D01*
X012686Y003441D01*
X012670Y003395D01*
X012651Y003350D01*
X012628Y003306D01*
X012601Y003265D01*
X012571Y003226D01*
X012539Y003190D01*
X012503Y003157D01*
X012465Y003126D01*
X012424Y003099D01*
X012381Y003075D01*
X012337Y003055D01*
X012291Y003038D01*
X012244Y003025D01*
X012195Y003016D01*
X012147Y003011D01*
X012098Y003010D01*
X012049Y003013D01*
X012000Y003020D01*
X011953Y003031D01*
X011906Y003046D01*
X011861Y003064D01*
X011817Y003086D01*
X011775Y003112D01*
X011736Y003141D01*
X011699Y003173D01*
X011665Y003208D01*
X011633Y003246D01*
X011605Y003286D01*
X011580Y003328D01*
X011559Y003372D01*
X011542Y003418D01*
X011528Y003465D01*
X011518Y003513D01*
X011512Y003561D01*
X011510Y003610D01*
X007510Y024610D02*
X007512Y024659D01*
X007518Y024707D01*
X007528Y024755D01*
X007542Y024802D01*
X007559Y024848D01*
X007580Y024892D01*
X007605Y024934D01*
X007633Y024974D01*
X007665Y025012D01*
X007699Y025047D01*
X007736Y025079D01*
X007775Y025108D01*
X007817Y025134D01*
X007861Y025156D01*
X007906Y025174D01*
X007953Y025189D01*
X008000Y025200D01*
X008049Y025207D01*
X008098Y025210D01*
X008147Y025209D01*
X008195Y025204D01*
X008244Y025195D01*
X008291Y025182D01*
X008337Y025165D01*
X008381Y025145D01*
X008424Y025121D01*
X008465Y025094D01*
X008503Y025063D01*
X008539Y025030D01*
X008571Y024994D01*
X008601Y024955D01*
X008628Y024914D01*
X008651Y024870D01*
X008670Y024825D01*
X008686Y024779D01*
X008698Y024732D01*
X008706Y024683D01*
X008710Y024634D01*
X008710Y024586D01*
X008706Y024537D01*
X008698Y024488D01*
X008686Y024441D01*
X008670Y024395D01*
X008651Y024350D01*
X008628Y024306D01*
X008601Y024265D01*
X008571Y024226D01*
X008539Y024190D01*
X008503Y024157D01*
X008465Y024126D01*
X008424Y024099D01*
X008381Y024075D01*
X008337Y024055D01*
X008291Y024038D01*
X008244Y024025D01*
X008195Y024016D01*
X008147Y024011D01*
X008098Y024010D01*
X008049Y024013D01*
X008000Y024020D01*
X007953Y024031D01*
X007906Y024046D01*
X007861Y024064D01*
X007817Y024086D01*
X007775Y024112D01*
X007736Y024141D01*
X007699Y024173D01*
X007665Y024208D01*
X007633Y024246D01*
X007605Y024286D01*
X007580Y024328D01*
X007559Y024372D01*
X007542Y024418D01*
X007528Y024465D01*
X007518Y024513D01*
X007512Y024561D01*
X007510Y024610D01*
D11*
X001600Y023670D03*
X001600Y020170D03*
X001600Y016670D03*
X001600Y013170D03*
X001600Y009670D03*
X001600Y006170D03*
X002030Y001600D03*
X015600Y002030D03*
X015600Y005530D03*
X015600Y017530D03*
X015600Y022530D03*
X015600Y026030D03*
X001600Y027170D03*
D12*
X001600Y025652D03*
X001600Y022152D03*
X001600Y018652D03*
X001600Y015152D03*
X001600Y011652D03*
X001600Y008152D03*
X001600Y004652D03*
X003478Y001600D03*
X004926Y001600D03*
X012050Y014100D03*
X013150Y014100D03*
X015600Y018978D03*
X015600Y020426D03*
X015600Y024048D03*
X015600Y027548D03*
X015600Y007048D03*
X015600Y003548D03*
D13*
X009100Y004100D03*
X008600Y002100D03*
X008100Y001350D03*
X007600Y002100D03*
X007600Y004100D03*
X005850Y004100D03*
X005850Y008100D03*
X007490Y009350D03*
X007590Y010350D03*
X007490Y011350D03*
X007590Y012350D03*
X007490Y013350D03*
X007590Y014350D03*
X005600Y015600D03*
X005600Y016600D03*
X005600Y017600D03*
X005600Y018600D03*
X005600Y019600D03*
X005600Y020600D03*
X005600Y021600D03*
X005600Y022600D03*
X005600Y023600D03*
X005600Y024600D03*
X005600Y025600D03*
X005600Y026600D03*
X006100Y027600D03*
X007100Y027600D03*
X008100Y027600D03*
X009100Y027600D03*
X010100Y027600D03*
X011100Y027600D03*
X011600Y026600D03*
X011600Y025600D03*
X011600Y024600D03*
X011600Y023600D03*
X011600Y022600D03*
X011600Y021600D03*
X011600Y020600D03*
X011600Y019600D03*
X011600Y018600D03*
X011600Y017600D03*
X011600Y016600D03*
X011600Y015600D03*
X010475Y018038D03*
X010475Y019038D03*
X010475Y022163D03*
X010475Y023163D03*
X009100Y008100D03*
X007600Y008100D03*
D14*
X011100Y009100D03*
X012100Y008100D03*
X013100Y009100D03*
X012100Y010100D03*
D15*
X015747Y010828D03*
X015747Y013032D03*
D16*
X014300Y012521D03*
X014300Y012127D03*
X014300Y011733D03*
X014300Y011339D03*
D17*
X013600Y023265D03*
X013600Y023935D03*
X003860Y024765D03*
X003860Y025435D03*
X003840Y022935D03*
X003840Y022265D03*
X003600Y014935D03*
X003600Y014265D03*
X003600Y012435D03*
X003600Y011765D03*
X003850Y007935D03*
X003850Y007265D03*
X003850Y005435D03*
X003850Y004765D03*
D18*
X003515Y018600D03*
X004185Y018600D03*
D19*
X004220Y019140D03*
X003820Y023860D03*
X003580Y013380D03*
X003850Y006600D03*
X013660Y014900D03*
D20*
X013180Y014100D02*
X013150Y014100D01*
X013180Y014100D02*
X013180Y013700D01*
X014300Y012580D01*
X014300Y012521D01*
X014300Y012127D02*
X014380Y012130D01*
X014960Y012130D01*
X014960Y009600D01*
X014600Y009600D01*
X014600Y002100D01*
X015580Y002100D01*
X015600Y002030D01*
X014600Y002100D02*
X009240Y002100D01*
X009240Y000740D01*
X000600Y000740D01*
X000600Y008900D01*
X001500Y009620D01*
X001600Y009670D01*
X001580Y009700D01*
X000940Y010340D01*
X000940Y012500D01*
X001020Y012580D01*
X000940Y012660D01*
X000940Y022980D01*
X001580Y023620D01*
X001600Y023670D01*
X003820Y023860D02*
X003820Y022980D01*
X003840Y022935D01*
X003820Y023860D02*
X003820Y024740D01*
X003860Y024765D01*
X004220Y019140D02*
X004220Y018660D01*
X004185Y018600D01*
X003600Y014265D02*
X003580Y014260D01*
X003580Y013380D01*
X003580Y012500D01*
X003600Y012435D01*
X001600Y013170D02*
X001580Y013140D01*
X001020Y012580D01*
X003850Y007265D02*
X003820Y007220D01*
X003820Y006660D01*
X003850Y006600D01*
X003820Y006580D01*
X003820Y005460D01*
X003850Y005435D01*
X005850Y004100D02*
X005820Y004020D01*
X005820Y002500D01*
X004940Y001620D01*
X004926Y001600D01*
X005850Y004100D02*
X006860Y004100D01*
X006860Y010740D01*
X007420Y011300D01*
X007490Y011350D01*
X007580Y004100D02*
X007600Y004100D01*
X009100Y004100D01*
X009240Y004020D01*
X009240Y002100D01*
X007600Y002100D02*
X007580Y002100D01*
X007580Y004100D01*
X007600Y004100D02*
X006860Y004100D01*
X012100Y010100D02*
X012140Y010100D01*
X012140Y012130D01*
X013410Y012130D01*
X014300Y012127D01*
X012140Y012130D02*
X012060Y012180D01*
X012060Y014100D01*
X012050Y014100D01*
X012140Y014020D01*
X014520Y016400D01*
X014440Y016980D01*
X014440Y021380D01*
X013580Y022740D01*
X013580Y022820D01*
X013660Y022900D01*
X013660Y023220D01*
X013580Y023300D01*
X013600Y023265D01*
X013580Y022820D02*
X012720Y022820D01*
X012220Y022980D01*
X011600Y023600D01*
X015600Y017530D02*
X015580Y017460D01*
X014520Y016400D01*
D21*
X013660Y014900D02*
X016680Y014900D01*
X016680Y008960D01*
X015580Y007060D01*
X015600Y007048D01*
X013820Y008100D02*
X013820Y010820D01*
X014300Y011300D01*
X014300Y011339D01*
X014300Y011700D02*
X014300Y011733D01*
X014300Y011700D02*
X013100Y011700D01*
X013100Y010100D01*
X011080Y008100D01*
X009730Y008100D01*
X009730Y021120D01*
X010460Y022100D01*
X010475Y022163D01*
X010460Y023140D02*
X010475Y023163D01*
X010460Y023140D02*
X008390Y020820D01*
X008390Y007620D01*
X007660Y008100D01*
X007600Y008100D01*
X008390Y007620D02*
X008540Y007220D01*
X012060Y007220D01*
X012060Y008100D01*
X012100Y008100D01*
X013820Y008100D01*
X013100Y009100D02*
X013100Y010100D01*
X009730Y008100D02*
X009100Y008100D01*
X006390Y008590D02*
X005900Y008100D01*
X005850Y008100D01*
X005820Y008100D01*
X004870Y007150D01*
X004870Y002990D01*
X003500Y001620D01*
X003478Y001600D01*
X003500Y001540D01*
X003500Y001030D01*
X005680Y001030D01*
X005920Y001300D01*
X008060Y001300D01*
X008100Y001350D01*
X004590Y004250D02*
X003820Y003850D01*
X000960Y003850D01*
X000960Y005540D01*
X001580Y006100D01*
X001600Y006170D01*
X001660Y004740D02*
X001660Y004660D01*
X001600Y004652D01*
X001660Y004740D02*
X003820Y004740D01*
X003850Y004765D01*
X004590Y004250D02*
X004590Y014180D01*
X005580Y015540D01*
X005600Y015600D01*
X005600Y016600D02*
X004320Y015120D01*
X004320Y008160D01*
X003900Y007940D01*
X003850Y007935D01*
X003820Y007940D01*
X001660Y007940D01*
X001660Y008100D01*
X001600Y008152D01*
X001600Y011652D02*
X001660Y011700D01*
X003580Y011700D01*
X003600Y011765D01*
X003660Y011780D01*
X004070Y012120D01*
X004070Y015960D01*
X005580Y017540D01*
X005600Y017600D01*
X005600Y018600D02*
X003740Y016740D01*
X001660Y016740D01*
X001600Y016670D01*
X001600Y015152D02*
X001660Y015140D01*
X001660Y014980D01*
X003580Y014980D01*
X003600Y014935D01*
X003515Y018600D02*
X003500Y018660D01*
X001660Y018660D01*
X001600Y018652D01*
X001660Y020100D02*
X001600Y020170D01*
X001660Y020100D02*
X004610Y020100D01*
X005580Y019620D01*
X005600Y019600D01*
X005600Y020600D02*
X005580Y020660D01*
X003900Y022340D01*
X003840Y022265D01*
X003820Y022260D01*
X001660Y022260D01*
X001660Y022180D01*
X001600Y022152D01*
X001660Y025460D02*
X001660Y025620D01*
X001600Y025652D01*
X001660Y025460D02*
X003820Y025460D01*
X003860Y025435D01*
X004720Y025700D02*
X002780Y027140D01*
X001660Y027140D01*
X001600Y027170D01*
X004720Y025700D02*
X004720Y022480D01*
X005600Y021600D01*
X006390Y021850D02*
X005660Y022580D01*
X005600Y022600D01*
X006390Y021850D02*
X006390Y008590D01*
X007490Y013350D02*
X007420Y013380D01*
X006800Y013750D01*
X006800Y025190D01*
X005660Y026580D01*
X005600Y026600D01*
X011600Y026600D02*
X011660Y026580D01*
X015580Y026580D01*
X015580Y026100D01*
X015600Y026030D01*
X015600Y024048D02*
X015580Y024020D01*
X015580Y023940D01*
X013660Y023940D01*
X013600Y023935D01*
X013580Y023940D01*
X013580Y024580D01*
X011660Y024580D01*
X011600Y024600D01*
M02*
