G75*
%MOIN*%
%OFA0B0*%
%FSLAX24Y24*%
%IPPOS*%
%LPD*%
%AMOC8*
5,1,8,0,0,1.08239X$1,22.5*
%
%ADD10C,0.1280*%
%ADD11R,0.0880X0.0880*%
%ADD12C,0.0880*%
%ADD13C,0.0820*%
%ADD14C,0.0050*%
%ADD15R,0.0867X0.0552*%
%ADD16R,0.0611X0.0316*%
%ADD17R,0.0474X0.0513*%
%ADD18R,0.0513X0.0474*%
D10*
X012110Y003610D03*
X008110Y024610D03*
D11*
X002030Y001600D03*
X001600Y006170D03*
X001600Y009670D03*
X001600Y013170D03*
X001600Y016670D03*
X001600Y020170D03*
X001600Y023670D03*
X001600Y027170D03*
X015600Y026030D03*
X015600Y022530D03*
X015600Y017530D03*
X015600Y005530D03*
X015600Y002030D03*
D12*
X015600Y003548D03*
X015600Y007048D03*
X015600Y018978D03*
X015600Y020426D03*
X015600Y024048D03*
X015600Y027548D03*
X001600Y025652D03*
X001600Y022152D03*
X001600Y018652D03*
X001600Y015152D03*
X001600Y011652D03*
X001600Y008152D03*
X001600Y004652D03*
X003478Y001600D03*
X004926Y001600D03*
D13*
X005850Y004100D03*
X007600Y004100D03*
X007600Y002100D03*
X008100Y001350D03*
X008600Y002100D03*
X009100Y004100D03*
X009100Y008100D03*
X007600Y008100D03*
X007490Y009350D03*
X007590Y010350D03*
X007490Y011350D03*
X007590Y012350D03*
X007490Y013350D03*
X007590Y014350D03*
X005600Y015600D03*
X005600Y016600D03*
X005600Y017600D03*
X005600Y018600D03*
X005600Y019600D03*
X005600Y020600D03*
X005600Y021600D03*
X005600Y022600D03*
X005600Y023600D03*
X005600Y024600D03*
X005600Y025600D03*
X005600Y026600D03*
X006100Y027600D03*
X007100Y027600D03*
X008100Y027600D03*
X009100Y027600D03*
X010100Y027600D03*
X011100Y027600D03*
X011600Y026600D03*
X011600Y025600D03*
X011600Y024600D03*
X011600Y023600D03*
X011600Y022600D03*
X011600Y021600D03*
X011600Y020600D03*
X011600Y019600D03*
X011600Y018600D03*
X011600Y017600D03*
X011600Y016600D03*
X011600Y015600D03*
X010475Y018038D03*
X010475Y019038D03*
X010475Y022163D03*
X010475Y023163D03*
X005850Y008100D03*
D14*
X011912Y013988D02*
X011891Y014020D01*
X011877Y014056D01*
X011872Y014094D01*
X011876Y014134D01*
X011888Y014172D01*
X011908Y014207D01*
X011936Y014236D01*
X011970Y014258D01*
X012007Y014272D01*
X012047Y014278D01*
X012086Y014273D01*
X012123Y014259D01*
X012157Y014237D01*
X012184Y014209D01*
X012205Y014175D01*
X012217Y014137D01*
X012221Y014098D01*
X012216Y014060D01*
X012203Y014023D01*
X012182Y013991D01*
X012155Y013964D01*
X012122Y013943D01*
X012085Y013931D01*
X012047Y013927D01*
X012009Y013930D01*
X011972Y013942D01*
X011940Y013962D01*
X011912Y013988D01*
X011899Y014008D02*
X012194Y014008D01*
X012215Y014057D02*
X011877Y014057D01*
X011873Y014105D02*
X012220Y014105D01*
X012212Y014154D02*
X011882Y014154D01*
X011906Y014202D02*
X012188Y014202D01*
X012137Y014251D02*
X011958Y014251D01*
X011943Y013960D02*
X012148Y013960D01*
X012979Y014057D02*
X013317Y014057D01*
X013318Y014060D02*
X013305Y014023D01*
X013284Y013991D01*
X013257Y013964D01*
X013224Y013943D01*
X013187Y013931D01*
X013149Y013927D01*
X013111Y013930D01*
X013074Y013942D01*
X013042Y013962D01*
X013014Y013988D01*
X012993Y014020D01*
X012979Y014056D01*
X012974Y014094D01*
X012978Y014134D01*
X012990Y014172D01*
X013010Y014207D01*
X013038Y014236D01*
X013072Y014258D01*
X013109Y014272D01*
X013149Y014278D01*
X013188Y014273D01*
X013226Y014259D01*
X013259Y014237D01*
X013286Y014209D01*
X013307Y014175D01*
X013319Y014137D01*
X013323Y014098D01*
X013318Y014060D01*
X013322Y014105D02*
X012975Y014105D01*
X012984Y014154D02*
X013314Y014154D01*
X013290Y014202D02*
X013008Y014202D01*
X013060Y014251D02*
X013239Y014251D01*
X013296Y014008D02*
X013001Y014008D01*
X013045Y013960D02*
X013250Y013960D01*
D15*
X015747Y013032D03*
X015747Y010828D03*
D16*
X014300Y011339D03*
X014300Y011733D03*
X014300Y012127D03*
X014300Y012521D03*
D17*
X013600Y023265D03*
X013600Y023935D03*
X003860Y024765D03*
X003860Y025435D03*
X003840Y022935D03*
X003840Y022265D03*
X003600Y014935D03*
X003600Y014265D03*
X003600Y012435D03*
X003600Y011765D03*
X003850Y007935D03*
X003850Y007265D03*
X003850Y005435D03*
X003850Y004765D03*
D18*
X003515Y018600D03*
X004185Y018600D03*
M02*
