G75*
%MOIN*%
%OFA0B0*%
%FSLAX24Y24*%
%IPPOS*%
%LPD*%
%AMOC8*
5,1,8,0,0,1.08239X$1,22.5*
%
%ADD10C,0.0010*%
%ADD11C,0.0100*%
%ADD12C,0.0030*%
%ADD13C,0.0020*%
%ADD14C,0.0080*%
%ADD15C,0.0008*%
%ADD16C,0.0050*%
%ADD17C,0.0157*%
%ADD18R,0.0300X0.0180*%
%ADD19R,0.0180X0.0300*%
D10*
X003430Y005063D02*
X003405Y005088D01*
X003405Y005138D01*
X003430Y005163D01*
X003455Y005163D01*
X003480Y005138D01*
X003505Y005163D01*
X003530Y005163D01*
X003555Y005138D01*
X003555Y005088D01*
X003530Y005063D01*
X003480Y005113D02*
X003480Y005138D01*
X003530Y005210D02*
X003555Y005235D01*
X003555Y005285D01*
X003530Y005310D01*
X003505Y005310D01*
X003480Y005285D01*
X003480Y005260D01*
X003480Y005285D02*
X003455Y005310D01*
X003430Y005310D01*
X003405Y005285D01*
X003405Y005235D01*
X003430Y005210D01*
X003430Y005358D02*
X003405Y005383D01*
X003405Y005433D01*
X003430Y005458D01*
X003530Y005358D01*
X003555Y005383D01*
X003555Y005433D01*
X003530Y005458D01*
X003430Y005458D01*
X003430Y005358D02*
X003530Y005358D01*
X004445Y007455D02*
X004395Y007505D01*
X004545Y007505D01*
X004545Y007455D02*
X004545Y007555D01*
X004520Y007602D02*
X004420Y007702D01*
X004520Y007702D01*
X004545Y007677D01*
X004545Y007627D01*
X004520Y007602D01*
X004420Y007602D01*
X004395Y007627D01*
X004395Y007677D01*
X004420Y007702D01*
X004395Y007750D02*
X004545Y007750D01*
X004495Y007750D02*
X004395Y007850D01*
X004470Y007775D02*
X004545Y007850D01*
X004305Y011813D02*
X004305Y011913D01*
X004305Y011863D02*
X004155Y011863D01*
X004205Y011813D01*
X004180Y011960D02*
X004155Y011985D01*
X004155Y012035D01*
X004180Y012060D01*
X004280Y011960D01*
X004305Y011985D01*
X004305Y012035D01*
X004280Y012060D01*
X004180Y012060D01*
X004155Y012108D02*
X004305Y012108D01*
X004255Y012108D02*
X004155Y012208D01*
X004230Y012133D02*
X004305Y012208D01*
X004280Y011960D02*
X004180Y011960D01*
X003020Y014455D02*
X003045Y014480D01*
X003045Y014530D01*
X003020Y014555D01*
X002995Y014555D01*
X002970Y014530D01*
X002970Y014505D01*
X002970Y014530D02*
X002945Y014555D01*
X002920Y014555D01*
X002895Y014530D01*
X002895Y014480D01*
X002920Y014455D01*
X002920Y014602D02*
X002895Y014627D01*
X002895Y014677D01*
X002920Y014702D01*
X002945Y014702D01*
X002970Y014677D01*
X002995Y014702D01*
X003020Y014702D01*
X003045Y014677D01*
X003045Y014627D01*
X003020Y014602D01*
X002970Y014652D02*
X002970Y014677D01*
X003020Y014750D02*
X002920Y014850D01*
X003020Y014850D01*
X003045Y014825D01*
X003045Y014775D01*
X003020Y014750D01*
X002920Y014750D01*
X002895Y014775D01*
X002895Y014825D01*
X002920Y014850D01*
X003588Y017895D02*
X003563Y017920D01*
X003588Y017895D02*
X003638Y017895D01*
X003663Y017920D01*
X003663Y017945D01*
X003638Y017970D01*
X003613Y017970D01*
X003638Y017970D02*
X003663Y017995D01*
X003663Y018020D01*
X003638Y018045D01*
X003588Y018045D01*
X003563Y018020D01*
X003710Y018020D02*
X003735Y018045D01*
X003785Y018045D01*
X003810Y018020D01*
X003810Y017995D01*
X003785Y017970D01*
X003810Y017945D01*
X003810Y017920D01*
X003785Y017895D01*
X003735Y017895D01*
X003710Y017920D01*
X003760Y017970D02*
X003785Y017970D01*
X003858Y017920D02*
X003958Y018020D01*
X003958Y017920D01*
X003933Y017895D01*
X003883Y017895D01*
X003858Y017920D01*
X003858Y018020D01*
X003883Y018045D01*
X003933Y018045D01*
X003958Y018020D01*
X004445Y022313D02*
X004395Y022363D01*
X004545Y022363D01*
X004545Y022313D02*
X004545Y022413D01*
X004520Y022460D02*
X004420Y022560D01*
X004520Y022560D01*
X004545Y022535D01*
X004545Y022485D01*
X004520Y022460D01*
X004420Y022460D01*
X004395Y022485D01*
X004395Y022535D01*
X004420Y022560D01*
X004395Y022608D02*
X004545Y022608D01*
X004495Y022608D02*
X004395Y022708D01*
X004470Y022633D02*
X004545Y022708D01*
X003280Y024955D02*
X003305Y024980D01*
X003305Y025030D01*
X003280Y025055D01*
X003255Y025055D01*
X003230Y025030D01*
X003230Y025005D01*
X003230Y025030D02*
X003205Y025055D01*
X003180Y025055D01*
X003155Y025030D01*
X003155Y024980D01*
X003180Y024955D01*
X003180Y025102D02*
X003155Y025127D01*
X003155Y025177D01*
X003180Y025202D01*
X003205Y025202D01*
X003230Y025177D01*
X003255Y025202D01*
X003280Y025202D01*
X003305Y025177D01*
X003305Y025127D01*
X003280Y025102D01*
X003230Y025152D02*
X003230Y025177D01*
X003280Y025250D02*
X003180Y025250D01*
X003155Y025275D01*
X003155Y025325D01*
X003180Y025350D01*
X003280Y025250D01*
X003305Y025275D01*
X003305Y025325D01*
X003280Y025350D01*
X003180Y025350D01*
X013895Y023600D02*
X013995Y023500D01*
X013970Y023525D02*
X014045Y023600D01*
X014045Y023500D02*
X013895Y023500D01*
X013920Y023452D02*
X014020Y023352D01*
X014045Y023377D01*
X014045Y023427D01*
X014020Y023452D01*
X013920Y023452D01*
X013895Y023427D01*
X013895Y023377D01*
X013920Y023352D01*
X014020Y023352D01*
X014045Y023305D02*
X014045Y023205D01*
X014045Y023255D02*
X013895Y023255D01*
X013945Y023205D01*
X015973Y000710D02*
X015973Y000695D01*
X015973Y000665D02*
X015973Y000590D01*
X015988Y000575D01*
X016003Y000575D01*
X016035Y000605D02*
X016080Y000605D01*
X016095Y000620D01*
X016095Y000650D01*
X016080Y000665D01*
X016035Y000665D01*
X016035Y000695D02*
X016035Y000605D01*
X015942Y000605D02*
X015896Y000605D01*
X015881Y000620D01*
X015881Y000650D01*
X015896Y000665D01*
X015942Y000665D01*
X015942Y000695D02*
X015942Y000605D01*
D11*
X012670Y004810D02*
X010670Y004810D01*
X011670Y006810D01*
X012670Y004810D01*
X012670Y005310D01*
X011670Y006810D01*
X010670Y005310D01*
X010670Y004810D01*
X010670Y004897D02*
X010713Y004897D01*
X010670Y004995D02*
X010763Y004995D01*
X010812Y005094D02*
X010670Y005094D01*
X010670Y005192D02*
X010861Y005192D01*
X010910Y005291D02*
X010670Y005291D01*
X010723Y005389D02*
X010960Y005389D01*
X011009Y005488D02*
X010788Y005488D01*
X010854Y005586D02*
X011058Y005586D01*
X011107Y005685D02*
X010920Y005685D01*
X010985Y005783D02*
X011157Y005783D01*
X011206Y005882D02*
X011051Y005882D01*
X011117Y005980D02*
X011255Y005980D01*
X011304Y006079D02*
X011182Y006079D01*
X011248Y006177D02*
X011354Y006177D01*
X011314Y006276D02*
X011403Y006276D01*
X011379Y006374D02*
X011452Y006374D01*
X011445Y006473D02*
X011501Y006473D01*
X011511Y006571D02*
X011551Y006571D01*
X011576Y006670D02*
X011600Y006670D01*
X011642Y006768D02*
X011649Y006768D01*
X011691Y006768D02*
X011698Y006768D01*
X011740Y006670D02*
X011764Y006670D01*
X011789Y006571D02*
X011829Y006571D01*
X011839Y006473D02*
X011895Y006473D01*
X011888Y006374D02*
X011961Y006374D01*
X011937Y006276D02*
X012026Y006276D01*
X011986Y006177D02*
X012092Y006177D01*
X012036Y006079D02*
X012158Y006079D01*
X012223Y005980D02*
X012085Y005980D01*
X012134Y005882D02*
X012289Y005882D01*
X012355Y005783D02*
X012183Y005783D01*
X012233Y005685D02*
X012420Y005685D01*
X012486Y005586D02*
X012282Y005586D01*
X012331Y005488D02*
X012552Y005488D01*
X012617Y005389D02*
X012380Y005389D01*
X012430Y005291D02*
X012670Y005291D01*
X012670Y005192D02*
X012479Y005192D01*
X012528Y005094D02*
X012670Y005094D01*
X012670Y004995D02*
X012577Y004995D01*
X012627Y004897D02*
X012670Y004897D01*
X011638Y005480D02*
X011640Y005492D01*
X011645Y005504D01*
X011654Y005513D01*
X011665Y005519D01*
X011677Y005522D01*
X011689Y005521D01*
X011701Y005516D01*
X011711Y005509D01*
X011718Y005498D01*
X011722Y005486D01*
X011722Y005474D01*
X011718Y005462D01*
X011711Y005451D01*
X011701Y005444D01*
X011689Y005439D01*
X011677Y005438D01*
X011665Y005441D01*
X011654Y005447D01*
X011645Y005456D01*
X011640Y005468D01*
X011638Y005480D01*
X011556Y005480D02*
X011558Y005502D01*
X011563Y005522D01*
X011573Y005542D01*
X011585Y005560D01*
X011600Y005575D01*
X011618Y005587D01*
X011638Y005597D01*
X011658Y005602D01*
X011680Y005604D01*
X011702Y005602D01*
X011722Y005597D01*
X011742Y005587D01*
X011760Y005575D01*
X011775Y005560D01*
X011787Y005542D01*
X011797Y005522D01*
X011802Y005502D01*
X011804Y005480D01*
X011802Y005458D01*
X011797Y005438D01*
X011787Y005418D01*
X011775Y005400D01*
X011760Y005385D01*
X011742Y005373D01*
X011722Y005363D01*
X011702Y005358D01*
X011680Y005356D01*
X011658Y005358D01*
X011638Y005363D01*
X011618Y005373D01*
X011600Y005385D01*
X011585Y005400D01*
X011573Y005418D01*
X011563Y005438D01*
X011558Y005458D01*
X011556Y005480D01*
X011470Y005480D02*
X011472Y005509D01*
X011478Y005537D01*
X011487Y005564D01*
X011501Y005589D01*
X011517Y005613D01*
X011537Y005633D01*
X011559Y005652D01*
X011583Y005666D01*
X011610Y005678D01*
X011637Y005686D01*
X011666Y005690D01*
X011694Y005690D01*
X011723Y005686D01*
X011750Y005678D01*
X011777Y005666D01*
X011801Y005652D01*
X011823Y005633D01*
X011843Y005613D01*
X011859Y005589D01*
X011873Y005564D01*
X011882Y005537D01*
X011888Y005509D01*
X011890Y005480D01*
X011888Y005451D01*
X011882Y005423D01*
X011873Y005396D01*
X011859Y005371D01*
X011843Y005347D01*
X011823Y005327D01*
X011801Y005308D01*
X011777Y005294D01*
X011750Y005282D01*
X011723Y005274D01*
X011694Y005270D01*
X011666Y005270D01*
X011637Y005274D01*
X011610Y005282D01*
X011583Y005294D01*
X011559Y005308D01*
X011537Y005327D01*
X011517Y005347D01*
X011501Y005371D01*
X011487Y005396D01*
X011478Y005423D01*
X011472Y005451D01*
X011470Y005480D01*
X011388Y005480D02*
X011390Y005514D01*
X011396Y005547D01*
X011406Y005580D01*
X011419Y005611D01*
X011436Y005640D01*
X011456Y005668D01*
X011480Y005692D01*
X011506Y005714D01*
X011534Y005733D01*
X011564Y005748D01*
X011596Y005760D01*
X011629Y005768D01*
X011663Y005772D01*
X011697Y005772D01*
X011731Y005768D01*
X011764Y005760D01*
X011796Y005748D01*
X011826Y005733D01*
X011854Y005714D01*
X011880Y005692D01*
X011904Y005668D01*
X011924Y005640D01*
X011941Y005611D01*
X011954Y005580D01*
X011964Y005547D01*
X011970Y005514D01*
X011972Y005480D01*
X011970Y005446D01*
X011964Y005413D01*
X011954Y005380D01*
X011941Y005349D01*
X011924Y005320D01*
X011904Y005292D01*
X011880Y005268D01*
X011854Y005246D01*
X011826Y005227D01*
X011796Y005212D01*
X011764Y005200D01*
X011731Y005192D01*
X011697Y005188D01*
X011663Y005188D01*
X011629Y005192D01*
X011596Y005200D01*
X011564Y005212D01*
X011534Y005227D01*
X011506Y005246D01*
X011480Y005268D01*
X011456Y005292D01*
X011436Y005320D01*
X011419Y005349D01*
X011406Y005380D01*
X011396Y005413D01*
X011390Y005446D01*
X011388Y005480D01*
X011300Y005480D02*
X011302Y005518D01*
X011308Y005556D01*
X011317Y005594D01*
X011331Y005630D01*
X011348Y005664D01*
X011368Y005697D01*
X011392Y005728D01*
X011418Y005755D01*
X011447Y005780D01*
X011479Y005802D01*
X011513Y005821D01*
X011548Y005836D01*
X011585Y005848D01*
X011622Y005856D01*
X011661Y005860D01*
X011699Y005860D01*
X011738Y005856D01*
X011775Y005848D01*
X011812Y005836D01*
X011847Y005821D01*
X011881Y005802D01*
X011913Y005780D01*
X011942Y005755D01*
X011968Y005728D01*
X011992Y005697D01*
X012012Y005664D01*
X012029Y005630D01*
X012043Y005594D01*
X012052Y005556D01*
X012058Y005518D01*
X012060Y005480D01*
X012058Y005442D01*
X012052Y005404D01*
X012043Y005366D01*
X012029Y005330D01*
X012012Y005296D01*
X011992Y005263D01*
X011968Y005232D01*
X011942Y005205D01*
X011913Y005180D01*
X011881Y005158D01*
X011847Y005139D01*
X011812Y005124D01*
X011775Y005112D01*
X011738Y005104D01*
X011699Y005100D01*
X011661Y005100D01*
X011622Y005104D01*
X011585Y005112D01*
X011548Y005124D01*
X011513Y005139D01*
X011479Y005158D01*
X011447Y005180D01*
X011418Y005205D01*
X011392Y005232D01*
X011368Y005263D01*
X011348Y005296D01*
X011331Y005330D01*
X011317Y005366D01*
X011308Y005404D01*
X011302Y005442D01*
X011300Y005480D01*
X010772Y007533D02*
X010508Y007797D01*
X010521Y007811D02*
X010688Y007978D01*
X010953Y007714D02*
X010786Y007547D01*
X010307Y009100D02*
X010309Y009184D01*
X010315Y009268D01*
X010325Y009351D01*
X010338Y009434D01*
X010356Y009517D01*
X010377Y009598D01*
X010403Y009678D01*
X010432Y009757D01*
X010464Y009834D01*
X010501Y009910D01*
X010540Y009984D01*
X010583Y010056D01*
X010630Y010127D01*
X010680Y010194D01*
X010733Y010260D01*
X010788Y010322D01*
X010847Y010383D01*
X010909Y010440D01*
X010973Y010494D01*
X011039Y010546D01*
X011108Y010594D01*
X011179Y010639D01*
X011252Y010680D01*
X011327Y010718D01*
X011404Y010752D01*
X011482Y010783D01*
X011562Y010810D01*
X011643Y010834D01*
X011724Y010853D01*
X011807Y010869D01*
X011890Y010881D01*
X011974Y010889D01*
X012058Y010893D01*
X012142Y010893D01*
X012226Y010889D01*
X012310Y010881D01*
X012393Y010869D01*
X012476Y010853D01*
X012557Y010834D01*
X012638Y010810D01*
X012718Y010783D01*
X012796Y010752D01*
X012873Y010718D01*
X012948Y010680D01*
X013021Y010639D01*
X013092Y010594D01*
X013161Y010546D01*
X013227Y010494D01*
X013291Y010440D01*
X013353Y010383D01*
X013412Y010322D01*
X013467Y010260D01*
X013520Y010194D01*
X013570Y010127D01*
X013617Y010056D01*
X013660Y009984D01*
X013699Y009910D01*
X013736Y009834D01*
X013768Y009757D01*
X013797Y009678D01*
X013823Y009598D01*
X013844Y009517D01*
X013862Y009434D01*
X013875Y009351D01*
X013885Y009268D01*
X013891Y009184D01*
X013893Y009100D01*
X013891Y009016D01*
X013885Y008932D01*
X013875Y008849D01*
X013862Y008766D01*
X013844Y008683D01*
X013823Y008602D01*
X013797Y008522D01*
X013768Y008443D01*
X013736Y008366D01*
X013699Y008290D01*
X013660Y008216D01*
X013617Y008144D01*
X013570Y008073D01*
X013520Y008006D01*
X013467Y007940D01*
X013412Y007878D01*
X013353Y007817D01*
X013291Y007760D01*
X013227Y007706D01*
X013161Y007654D01*
X013092Y007606D01*
X013021Y007561D01*
X012948Y007520D01*
X012873Y007482D01*
X012796Y007448D01*
X012718Y007417D01*
X012638Y007390D01*
X012557Y007366D01*
X012476Y007347D01*
X012393Y007331D01*
X012310Y007319D01*
X012226Y007311D01*
X012142Y007307D01*
X012058Y007307D01*
X011974Y007311D01*
X011890Y007319D01*
X011807Y007331D01*
X011724Y007347D01*
X011643Y007366D01*
X011562Y007390D01*
X011482Y007417D01*
X011404Y007448D01*
X011327Y007482D01*
X011252Y007520D01*
X011179Y007561D01*
X011108Y007606D01*
X011039Y007654D01*
X010973Y007706D01*
X010909Y007760D01*
X010847Y007817D01*
X010788Y007878D01*
X010733Y007940D01*
X010680Y008006D01*
X010630Y008073D01*
X010583Y008144D01*
X010540Y008216D01*
X010501Y008290D01*
X010464Y008366D01*
X010432Y008443D01*
X010403Y008522D01*
X010377Y008602D01*
X010356Y008683D01*
X010338Y008766D01*
X010325Y008849D01*
X010315Y008932D01*
X010309Y009016D01*
X010307Y009100D01*
X011550Y013600D02*
X011550Y014600D01*
X013650Y014600D01*
X013650Y013600D01*
X011550Y013600D01*
X012600Y013850D02*
X012600Y014350D01*
X014438Y013111D02*
X014438Y012816D01*
X014438Y013111D02*
X015087Y013111D01*
X016111Y012521D02*
X016111Y011339D01*
X015087Y010749D02*
X014438Y010749D01*
X014438Y011044D01*
D12*
X012715Y017115D02*
X012715Y017362D01*
X012715Y017483D02*
X012838Y017607D01*
X012715Y017730D01*
X013085Y017730D01*
X013085Y017852D02*
X012715Y017852D01*
X012715Y018037D01*
X012776Y018099D01*
X012900Y018099D01*
X012962Y018037D01*
X012962Y017852D01*
X013023Y018220D02*
X013085Y018282D01*
X013085Y018405D01*
X013023Y018467D01*
X012962Y018467D01*
X012900Y018405D01*
X012900Y018343D01*
X012900Y018405D02*
X012838Y018467D01*
X012776Y018467D01*
X012715Y018405D01*
X012715Y018282D01*
X012776Y018220D01*
X012900Y018588D02*
X012900Y018773D01*
X012962Y018835D01*
X013023Y018835D01*
X013085Y018773D01*
X013085Y018650D01*
X013023Y018588D01*
X012900Y018588D01*
X012776Y018712D01*
X012715Y018835D01*
X012715Y017483D02*
X013085Y017483D01*
X013085Y017238D02*
X012715Y017238D01*
X012715Y022115D02*
X012715Y022300D01*
X012776Y022362D01*
X012900Y022362D01*
X012962Y022300D01*
X012962Y022115D01*
X013085Y022115D02*
X012715Y022115D01*
X012715Y022483D02*
X013085Y022483D01*
X013085Y022730D01*
X013023Y022852D02*
X013085Y022913D01*
X013085Y023037D01*
X013023Y023099D01*
X012962Y023099D01*
X012900Y023037D01*
X012900Y022913D01*
X012838Y022852D01*
X012776Y022852D01*
X012715Y022913D01*
X012715Y023037D01*
X012776Y023099D01*
X012715Y023220D02*
X012715Y023467D01*
X012715Y023588D02*
X012715Y023835D01*
X012715Y023712D02*
X013085Y023712D01*
X013085Y023467D02*
X013085Y023220D01*
X012715Y023220D01*
X012900Y023220D02*
X012900Y023343D01*
X012715Y022730D02*
X012715Y022483D01*
X012900Y022483D02*
X012900Y022607D01*
X013085Y022362D02*
X012962Y022238D01*
X012962Y025365D02*
X012962Y025550D01*
X012900Y025612D01*
X012776Y025612D01*
X012715Y025550D01*
X012715Y025365D01*
X013085Y025365D01*
X013023Y025733D02*
X013085Y025795D01*
X013085Y025918D01*
X013023Y025980D01*
X012776Y025980D01*
X012715Y025918D01*
X012715Y025795D01*
X012776Y025733D01*
X013023Y025733D01*
X013085Y026102D02*
X012962Y026225D01*
X013085Y026349D01*
X012715Y026349D01*
X012715Y026470D02*
X013085Y026470D01*
X013085Y026717D01*
X013085Y026838D02*
X012715Y026838D01*
X012715Y027023D01*
X012776Y027085D01*
X012900Y027085D01*
X012962Y027023D01*
X012962Y026838D01*
X012962Y026962D02*
X013085Y027085D01*
X012900Y027207D02*
X012900Y027453D01*
X013085Y027575D02*
X013085Y027698D01*
X013085Y027637D02*
X012715Y027637D01*
X012715Y027698D02*
X012715Y027575D01*
X012715Y027820D02*
X013085Y028067D01*
X012715Y028067D01*
X012715Y027820D02*
X013085Y027820D01*
X012715Y026717D02*
X012715Y026470D01*
X012900Y026470D02*
X012900Y026593D01*
X012715Y026102D02*
X013085Y026102D01*
X009277Y014735D02*
X009092Y014735D01*
X009092Y014365D01*
X009277Y014365D01*
X009339Y014427D01*
X009339Y014674D01*
X009277Y014735D01*
X008970Y014735D02*
X008970Y014365D01*
X008723Y014735D01*
X008723Y014365D01*
X008602Y014427D02*
X008602Y014550D01*
X008478Y014550D01*
X008355Y014427D02*
X008355Y014674D01*
X008417Y014735D01*
X008540Y014735D01*
X008602Y014674D01*
X008602Y014427D02*
X008540Y014365D01*
X008417Y014365D01*
X008355Y014427D01*
X008375Y013745D02*
X008560Y013745D01*
X008622Y013684D01*
X008622Y013560D01*
X008560Y013498D01*
X008375Y013498D01*
X008375Y013375D02*
X008375Y013745D01*
X008498Y013498D02*
X008622Y013375D01*
X008743Y013375D02*
X008990Y013745D01*
X009112Y013745D02*
X009235Y013745D01*
X009173Y013745D02*
X009173Y013375D01*
X009112Y013375D02*
X009235Y013375D01*
X008990Y013375D02*
X008743Y013745D01*
X008743Y012735D02*
X008990Y012365D01*
X009112Y012365D02*
X009235Y012365D01*
X009173Y012365D02*
X009173Y012735D01*
X009112Y012735D02*
X009235Y012735D01*
X008990Y012735D02*
X008743Y012365D01*
X008498Y012365D02*
X008498Y012735D01*
X008375Y012735D02*
X008622Y012735D01*
X008622Y011765D02*
X008622Y011518D01*
X008498Y011395D01*
X008375Y011518D01*
X008375Y011765D01*
X008743Y011704D02*
X008743Y011457D01*
X008805Y011395D01*
X008928Y011395D01*
X008990Y011457D01*
X009112Y011457D02*
X009173Y011395D01*
X009297Y011395D01*
X009359Y011457D01*
X009359Y011704D02*
X009297Y011765D01*
X009173Y011765D01*
X009112Y011704D01*
X009112Y011457D01*
X008990Y011704D02*
X008928Y011765D01*
X008805Y011765D01*
X008743Y011704D01*
X008723Y010735D02*
X008970Y010365D01*
X008970Y010735D01*
X009092Y010735D02*
X009277Y010735D01*
X009339Y010674D01*
X009339Y010427D01*
X009277Y010365D01*
X009092Y010365D01*
X009092Y010735D01*
X008723Y010735D02*
X008723Y010365D01*
X008602Y010427D02*
X008602Y010550D01*
X008478Y010550D01*
X008355Y010427D02*
X008355Y010674D01*
X008417Y010735D01*
X008540Y010735D01*
X008602Y010674D01*
X008602Y010427D02*
X008540Y010365D01*
X008417Y010365D01*
X008355Y010427D01*
X008375Y009735D02*
X008560Y009735D01*
X008622Y009674D01*
X008622Y009612D01*
X008560Y009550D01*
X008375Y009550D01*
X008375Y009365D02*
X008375Y009735D01*
X008560Y009550D02*
X008622Y009488D01*
X008622Y009427D01*
X008560Y009365D01*
X008375Y009365D01*
X008743Y009365D02*
X008990Y009365D01*
X009112Y009365D02*
X009112Y009735D01*
X009173Y009550D02*
X009359Y009365D01*
X009112Y009488D02*
X009359Y009735D01*
X008743Y009735D02*
X008743Y009365D01*
X003028Y003655D02*
X003076Y003607D01*
X002883Y003413D01*
X002931Y003365D01*
X003028Y003365D01*
X003076Y003413D01*
X003076Y003607D01*
X003028Y003655D02*
X002931Y003655D01*
X002883Y003607D01*
X002883Y003413D01*
X002782Y003365D02*
X002588Y003365D01*
X002782Y003558D01*
X002782Y003607D01*
X002733Y003655D01*
X002637Y003655D01*
X002588Y003607D01*
X002487Y003607D02*
X002487Y003558D01*
X002439Y003510D01*
X002294Y003510D01*
X002192Y003462D02*
X002192Y003413D01*
X002144Y003365D01*
X002047Y003365D01*
X001999Y003413D01*
X001999Y003462D01*
X002047Y003510D01*
X002144Y003510D01*
X002192Y003462D01*
X002144Y003510D02*
X002192Y003558D01*
X002192Y003607D01*
X002144Y003655D01*
X002047Y003655D01*
X001999Y003607D01*
X001999Y003558D01*
X002047Y003510D01*
X001898Y003365D02*
X001704Y003365D01*
X001801Y003365D02*
X001801Y003655D01*
X001704Y003558D01*
X001603Y003607D02*
X001555Y003655D01*
X001458Y003655D01*
X001410Y003607D01*
X001410Y003558D01*
X001458Y003510D01*
X001555Y003510D01*
X001603Y003462D01*
X001603Y003413D01*
X001555Y003365D01*
X001458Y003365D01*
X001410Y003413D01*
X001308Y003413D02*
X001308Y003607D01*
X001260Y003655D01*
X001115Y003655D01*
X001115Y003365D01*
X001260Y003365D01*
X001308Y003413D01*
X002294Y003365D02*
X002439Y003365D01*
X002487Y003413D01*
X002487Y003462D01*
X002439Y003510D01*
X002487Y003607D02*
X002439Y003655D01*
X002294Y003655D01*
X002294Y003365D01*
D13*
X002199Y003293D02*
X002199Y003147D01*
X002162Y003110D01*
X002052Y003110D01*
X002052Y003330D01*
X002162Y003330D01*
X002199Y003293D01*
X001978Y003330D02*
X001978Y003110D01*
X001831Y003330D01*
X001831Y003110D01*
X001757Y003147D02*
X001757Y003220D01*
X001683Y003220D01*
X001610Y003293D02*
X001610Y003147D01*
X001647Y003110D01*
X001720Y003110D01*
X001757Y003147D01*
X001757Y003293D02*
X001720Y003330D01*
X001647Y003330D01*
X001610Y003293D01*
X003360Y003330D02*
X003360Y003110D01*
X003470Y003110D01*
X003507Y003147D01*
X003507Y003293D01*
X003470Y003330D01*
X003360Y003330D01*
X003581Y003293D02*
X003618Y003330D01*
X003691Y003330D01*
X003728Y003293D01*
X003728Y003257D01*
X003581Y003110D01*
X003728Y003110D01*
X004610Y003183D02*
X004683Y003110D01*
X004757Y003183D01*
X004757Y003330D01*
X004831Y003293D02*
X004831Y003147D01*
X004868Y003110D01*
X004941Y003110D01*
X004978Y003147D01*
X005052Y003147D02*
X005052Y003293D01*
X005089Y003330D01*
X005162Y003330D01*
X005199Y003293D01*
X005199Y003147D02*
X005162Y003110D01*
X005089Y003110D01*
X005052Y003147D01*
X004978Y003293D02*
X004941Y003330D01*
X004868Y003330D01*
X004831Y003293D01*
X004610Y003330D02*
X004610Y003183D01*
X003441Y006110D02*
X003368Y006110D01*
X003331Y006147D01*
X003257Y006147D02*
X003257Y006293D01*
X003220Y006330D01*
X003110Y006330D01*
X003110Y006110D01*
X003220Y006110D01*
X003257Y006147D01*
X003331Y006257D02*
X003368Y006220D01*
X003478Y006220D01*
X003478Y006147D02*
X003478Y006293D01*
X003441Y006330D01*
X003368Y006330D01*
X003331Y006293D01*
X003331Y006257D01*
X003441Y006110D02*
X003478Y006147D01*
X003451Y007110D02*
X003451Y007220D01*
X003525Y007293D01*
X003525Y007330D01*
X003451Y007220D02*
X003378Y007293D01*
X003378Y007330D01*
X003304Y007293D02*
X003304Y007220D01*
X003267Y007183D01*
X003157Y007183D01*
X003157Y007110D02*
X003157Y007330D01*
X003267Y007330D01*
X003304Y007293D01*
X003230Y007183D02*
X003304Y007110D01*
X003599Y007220D02*
X003746Y007220D01*
X003820Y007110D02*
X003967Y007110D01*
X004041Y007110D02*
X004188Y007110D01*
X004262Y007110D02*
X004372Y007110D01*
X004409Y007147D01*
X004409Y007293D01*
X004372Y007330D01*
X004262Y007330D01*
X004262Y007110D01*
X004114Y007220D02*
X004041Y007220D01*
X004041Y007330D02*
X004041Y007110D01*
X004041Y007330D02*
X004188Y007330D01*
X003820Y007330D02*
X003820Y007110D01*
X003083Y007110D02*
X003083Y007257D01*
X003009Y007330D01*
X002936Y007257D01*
X002936Y007110D01*
X002936Y007220D02*
X003083Y007220D01*
X002862Y007330D02*
X002715Y007330D01*
X002788Y007330D02*
X002788Y007110D01*
X002641Y007110D02*
X002641Y007330D01*
X002494Y007330D02*
X002494Y007110D01*
X002420Y007110D02*
X002273Y007110D01*
X002273Y007330D01*
X002420Y007330D01*
X002494Y007330D02*
X002641Y007110D01*
X002346Y007220D02*
X002273Y007220D01*
X002199Y007330D02*
X002199Y007110D01*
X002052Y007110D02*
X002052Y007330D01*
X002125Y007257D01*
X002199Y007330D01*
X001978Y007293D02*
X001978Y007147D01*
X001941Y007110D01*
X001868Y007110D01*
X001831Y007147D01*
X001831Y007293D01*
X001868Y007330D01*
X001941Y007330D01*
X001978Y007293D01*
X001757Y007330D02*
X001757Y007110D01*
X001610Y007110D02*
X001610Y007330D01*
X001683Y007257D01*
X001757Y007330D01*
X003110Y009610D02*
X003220Y009610D01*
X003257Y009647D01*
X003257Y009793D01*
X003220Y009830D01*
X003110Y009830D01*
X003110Y009610D01*
X003331Y009647D02*
X003331Y009683D01*
X003368Y009720D01*
X003441Y009720D01*
X003478Y009683D01*
X003478Y009647D01*
X003441Y009610D01*
X003368Y009610D01*
X003331Y009647D01*
X003368Y009720D02*
X003331Y009757D01*
X003331Y009793D01*
X003368Y009830D01*
X003441Y009830D01*
X003478Y009793D01*
X003478Y009757D01*
X003441Y009720D01*
X003083Y010610D02*
X002936Y010610D01*
X003083Y010757D01*
X003083Y010793D01*
X003046Y010830D01*
X002973Y010830D01*
X002936Y010793D01*
X002862Y010830D02*
X002715Y010830D01*
X002715Y010610D01*
X002862Y010610D01*
X002788Y010720D02*
X002715Y010720D01*
X002641Y010610D02*
X002494Y010610D01*
X002494Y010830D01*
X002420Y010793D02*
X002383Y010830D01*
X002310Y010830D01*
X002273Y010793D01*
X002273Y010647D01*
X002310Y010610D01*
X002383Y010610D01*
X002420Y010647D01*
X002420Y010720D01*
X002346Y010720D01*
X002199Y010720D02*
X002125Y010720D01*
X002199Y010720D02*
X002199Y010647D01*
X002162Y010610D01*
X002089Y010610D01*
X002052Y010647D01*
X002052Y010793D01*
X002089Y010830D01*
X002162Y010830D01*
X002199Y010793D01*
X001978Y010793D02*
X001941Y010830D01*
X001868Y010830D01*
X001831Y010793D01*
X001831Y010647D01*
X001868Y010610D01*
X001941Y010610D01*
X001978Y010647D01*
X001978Y010793D01*
X001757Y010830D02*
X001610Y010830D01*
X001683Y010830D02*
X001683Y010610D01*
X003110Y013110D02*
X003220Y013110D01*
X003257Y013147D01*
X003257Y013293D01*
X003220Y013330D01*
X003110Y013330D01*
X003110Y013110D01*
X003331Y013110D02*
X003331Y013147D01*
X003478Y013293D01*
X003478Y013330D01*
X003331Y013330D01*
X003304Y014110D02*
X003230Y014183D01*
X003267Y014183D02*
X003157Y014183D01*
X003157Y014110D02*
X003157Y014330D01*
X003267Y014330D01*
X003304Y014293D01*
X003304Y014220D01*
X003267Y014183D01*
X003378Y014293D02*
X003451Y014220D01*
X003451Y014110D01*
X003451Y014220D02*
X003525Y014293D01*
X003525Y014330D01*
X003378Y014330D02*
X003378Y014293D01*
X003083Y014257D02*
X003083Y014110D01*
X003083Y014220D02*
X002936Y014220D01*
X002936Y014257D02*
X003009Y014330D01*
X003083Y014257D01*
X002936Y014257D02*
X002936Y014110D01*
X002788Y014110D02*
X002788Y014330D01*
X002715Y014330D02*
X002862Y014330D01*
X002641Y014330D02*
X002641Y014110D01*
X002494Y014330D01*
X002494Y014110D01*
X002420Y014110D02*
X002273Y014110D01*
X002273Y014330D01*
X002420Y014330D01*
X002346Y014220D02*
X002273Y014220D01*
X002199Y014330D02*
X002199Y014110D01*
X002052Y014110D02*
X002052Y014330D01*
X002125Y014257D01*
X002199Y014330D01*
X001978Y014293D02*
X001941Y014330D01*
X001868Y014330D01*
X001831Y014293D01*
X001831Y014147D01*
X001868Y014110D01*
X001941Y014110D01*
X001978Y014147D01*
X001978Y014293D01*
X001757Y014330D02*
X001757Y014110D01*
X001610Y014110D02*
X001610Y014330D01*
X001683Y014257D01*
X001757Y014330D01*
X003110Y016610D02*
X003220Y016610D01*
X003257Y016647D01*
X003257Y016793D01*
X003220Y016830D01*
X003110Y016830D01*
X003110Y016610D01*
X003331Y016647D02*
X003368Y016610D01*
X003441Y016610D01*
X003478Y016647D01*
X003478Y016683D01*
X003441Y016720D01*
X003331Y016720D01*
X003331Y016647D01*
X003331Y016720D02*
X003404Y016793D01*
X003478Y016830D01*
X003525Y017610D02*
X003378Y017610D01*
X003378Y017830D01*
X003304Y017720D02*
X003157Y017720D01*
X003083Y017757D02*
X003083Y017793D01*
X003046Y017830D01*
X002973Y017830D01*
X002936Y017793D01*
X002862Y017830D02*
X002715Y017830D01*
X002715Y017610D01*
X002862Y017610D01*
X002936Y017610D02*
X003083Y017757D01*
X003083Y017610D02*
X002936Y017610D01*
X002788Y017720D02*
X002715Y017720D01*
X002641Y017610D02*
X002494Y017610D01*
X002494Y017830D01*
X002420Y017793D02*
X002383Y017830D01*
X002310Y017830D01*
X002273Y017793D01*
X002273Y017647D01*
X002310Y017610D01*
X002383Y017610D01*
X002420Y017647D01*
X002420Y017720D01*
X002346Y017720D01*
X002199Y017720D02*
X002125Y017720D01*
X002199Y017720D02*
X002199Y017647D01*
X002162Y017610D01*
X002089Y017610D01*
X002052Y017647D01*
X002052Y017793D01*
X002089Y017830D01*
X002162Y017830D01*
X002199Y017793D01*
X001978Y017793D02*
X001941Y017830D01*
X001868Y017830D01*
X001831Y017793D01*
X001831Y017647D01*
X001868Y017610D01*
X001941Y017610D01*
X001978Y017647D01*
X001978Y017793D01*
X001757Y017830D02*
X001610Y017830D01*
X001683Y017830D02*
X001683Y017610D01*
X003110Y020610D02*
X003220Y020610D01*
X003257Y020647D01*
X003257Y020793D01*
X003220Y020830D01*
X003110Y020830D01*
X003110Y020610D01*
X003331Y020647D02*
X003368Y020610D01*
X003441Y020610D01*
X003478Y020647D01*
X003478Y020720D01*
X003441Y020757D01*
X003404Y020757D01*
X003331Y020720D01*
X003331Y020830D01*
X003478Y020830D01*
X003488Y021110D02*
X003378Y021110D01*
X003378Y021330D01*
X003488Y021330D01*
X003525Y021293D01*
X003525Y021147D01*
X003488Y021110D01*
X003304Y021110D02*
X003157Y021110D01*
X003157Y021330D01*
X003304Y021330D01*
X003230Y021220D02*
X003157Y021220D01*
X003083Y021110D02*
X002936Y021110D01*
X002936Y021330D01*
X002862Y021220D02*
X002715Y021220D01*
X002641Y021220D02*
X002604Y021183D01*
X002494Y021183D01*
X002494Y021110D02*
X002494Y021330D01*
X002604Y021330D01*
X002641Y021293D01*
X002641Y021220D01*
X002567Y021183D02*
X002641Y021110D01*
X002420Y021110D02*
X002273Y021110D01*
X002273Y021330D01*
X002420Y021330D01*
X002346Y021220D02*
X002273Y021220D01*
X002199Y021110D02*
X002199Y021330D01*
X002052Y021330D02*
X002052Y021110D01*
X002125Y021183D01*
X002199Y021110D01*
X001978Y021147D02*
X001978Y021293D01*
X001941Y021330D01*
X001868Y021330D01*
X001831Y021293D01*
X001831Y021147D01*
X001868Y021110D01*
X001941Y021110D01*
X001978Y021147D01*
X001757Y021220D02*
X001757Y021293D01*
X001720Y021330D01*
X001610Y021330D01*
X001610Y021110D01*
X001610Y021183D02*
X001720Y021183D01*
X001757Y021220D01*
X003110Y023610D02*
X003220Y023610D01*
X003257Y023647D01*
X003257Y023793D01*
X003220Y023830D01*
X003110Y023830D01*
X003110Y023610D01*
X003331Y023720D02*
X003478Y023720D01*
X003441Y023610D02*
X003441Y023830D01*
X003331Y023720D01*
X002862Y024610D02*
X002715Y024610D01*
X002715Y024830D01*
X002862Y024830D01*
X002788Y024720D02*
X002715Y024720D01*
X002641Y024610D02*
X002494Y024610D01*
X002494Y024830D01*
X002420Y024793D02*
X002383Y024830D01*
X002310Y024830D01*
X002273Y024793D01*
X002273Y024647D01*
X002310Y024610D01*
X002383Y024610D01*
X002420Y024647D01*
X002420Y024720D01*
X002346Y024720D01*
X002199Y024720D02*
X002199Y024647D01*
X002162Y024610D01*
X002089Y024610D01*
X002052Y024647D01*
X002052Y024793D01*
X002089Y024830D01*
X002162Y024830D01*
X002199Y024793D01*
X002199Y024720D02*
X002125Y024720D01*
X001978Y024647D02*
X001978Y024793D01*
X001941Y024830D01*
X001868Y024830D01*
X001831Y024793D01*
X001831Y024647D01*
X001868Y024610D01*
X001941Y024610D01*
X001978Y024647D01*
X001757Y024830D02*
X001610Y024830D01*
X001683Y024830D02*
X001683Y024610D01*
X003110Y027110D02*
X003220Y027110D01*
X003257Y027147D01*
X003257Y027293D01*
X003220Y027330D01*
X003110Y027330D01*
X003110Y027110D01*
X003331Y027147D02*
X003368Y027110D01*
X003441Y027110D01*
X003478Y027147D01*
X003478Y027183D01*
X003441Y027220D01*
X003404Y027220D01*
X003441Y027220D02*
X003478Y027257D01*
X003478Y027293D01*
X003441Y027330D01*
X003368Y027330D01*
X003331Y027293D01*
X003304Y028110D02*
X003157Y028110D01*
X003157Y028330D01*
X003083Y028220D02*
X002936Y028220D01*
X002862Y028110D02*
X002715Y028110D01*
X002715Y028330D01*
X002862Y028330D01*
X002788Y028220D02*
X002715Y028220D01*
X002641Y028110D02*
X002494Y028110D01*
X002494Y028330D01*
X002420Y028293D02*
X002383Y028330D01*
X002310Y028330D01*
X002273Y028293D01*
X002273Y028147D01*
X002310Y028110D01*
X002383Y028110D01*
X002420Y028147D01*
X002420Y028220D01*
X002346Y028220D01*
X002199Y028220D02*
X002125Y028220D01*
X002199Y028220D02*
X002199Y028147D01*
X002162Y028110D01*
X002089Y028110D01*
X002052Y028147D01*
X002052Y028293D01*
X002089Y028330D01*
X002162Y028330D01*
X002199Y028293D01*
X001978Y028293D02*
X001941Y028330D01*
X001868Y028330D01*
X001831Y028293D01*
X001831Y028147D01*
X001868Y028110D01*
X001941Y028110D01*
X001978Y028147D01*
X001978Y028293D01*
X001757Y028330D02*
X001610Y028330D01*
X001683Y028330D02*
X001683Y028110D01*
X003378Y028110D02*
X003525Y028110D01*
X003599Y028110D02*
X003709Y028110D01*
X003746Y028147D01*
X003746Y028293D01*
X003709Y028330D01*
X003599Y028330D01*
X003599Y028110D01*
X003451Y028220D02*
X003378Y028220D01*
X003378Y028330D02*
X003378Y028110D01*
X003378Y028330D02*
X003525Y028330D01*
X003599Y017830D02*
X003599Y017610D01*
X003746Y017610D01*
X003820Y017610D02*
X003820Y017830D01*
X003930Y017830D01*
X003967Y017793D01*
X003967Y017647D01*
X003930Y017610D01*
X003820Y017610D01*
X003672Y017720D02*
X003599Y017720D01*
X003599Y017830D02*
X003746Y017830D01*
X010220Y009330D02*
X010110Y009220D01*
X010257Y009220D01*
X010220Y009110D02*
X010220Y009330D01*
X012120Y011147D02*
X012120Y011220D01*
X012157Y011257D01*
X012193Y011257D01*
X012230Y011220D01*
X012267Y011257D01*
X012303Y011257D01*
X012340Y011220D01*
X012340Y011147D01*
X012303Y011110D01*
X012230Y011183D02*
X012230Y011220D01*
X012157Y011110D02*
X012120Y011147D01*
X012397Y013110D02*
X012360Y013147D01*
X012507Y013293D01*
X012507Y013147D01*
X012470Y013110D01*
X012397Y013110D01*
X012360Y013147D02*
X012360Y013293D01*
X012397Y013330D01*
X012470Y013330D01*
X012507Y013293D01*
X012581Y013147D02*
X012618Y013147D01*
X012618Y013110D01*
X012581Y013110D01*
X012581Y013147D01*
X012691Y013110D02*
X012838Y013110D01*
X012765Y013110D02*
X012765Y013330D01*
X012691Y013257D01*
X012912Y013257D02*
X012912Y013147D01*
X012949Y013110D01*
X013059Y013110D01*
X013059Y013257D01*
X013610Y012720D02*
X013757Y012720D01*
X013720Y012610D02*
X013720Y012830D01*
X013610Y012720D01*
X013647Y012330D02*
X013720Y012330D01*
X013757Y012293D01*
X013757Y012257D01*
X013720Y012220D01*
X013757Y012183D01*
X013757Y012147D01*
X013720Y012110D01*
X013647Y012110D01*
X013610Y012147D01*
X013683Y012220D02*
X013720Y012220D01*
X013610Y012293D02*
X013647Y012330D01*
X013647Y011830D02*
X013610Y011793D01*
X013647Y011830D02*
X013720Y011830D01*
X013757Y011793D01*
X013757Y011757D01*
X013610Y011610D01*
X013757Y011610D01*
X013683Y011330D02*
X013683Y011110D01*
X013610Y011110D02*
X013757Y011110D01*
X013610Y011257D02*
X013683Y011330D01*
X014147Y009330D02*
X014110Y009293D01*
X014147Y009330D02*
X014220Y009330D01*
X014257Y009293D01*
X014257Y009257D01*
X014110Y009110D01*
X014257Y009110D01*
X014610Y008330D02*
X014610Y008110D01*
X014610Y008220D02*
X014757Y008220D01*
X014831Y008220D02*
X014978Y008220D01*
X014978Y008257D02*
X014978Y008110D01*
X015052Y008110D02*
X015199Y008110D01*
X015273Y008110D02*
X015420Y008110D01*
X015273Y008110D02*
X015273Y008330D01*
X015052Y008330D02*
X015052Y008110D01*
X014978Y008257D02*
X014904Y008330D01*
X014831Y008257D01*
X014831Y008110D01*
X014757Y008110D02*
X014757Y008330D01*
X013912Y007080D02*
X013949Y007043D01*
X013802Y006897D01*
X013839Y006860D01*
X013912Y006860D01*
X013949Y006897D01*
X013949Y007043D01*
X013912Y007080D02*
X013839Y007080D01*
X013802Y007043D01*
X013802Y006897D01*
X013728Y006860D02*
X013581Y006860D01*
X013654Y006860D02*
X013654Y007080D01*
X013581Y007007D01*
X013507Y007043D02*
X013470Y007080D01*
X013360Y007080D01*
X013360Y006860D01*
X013470Y006860D01*
X013507Y006897D01*
X013507Y007043D01*
X013470Y005830D02*
X013360Y005830D01*
X013360Y005610D01*
X013470Y005610D01*
X013507Y005647D01*
X013507Y005793D01*
X013470Y005830D01*
X013581Y005757D02*
X013654Y005830D01*
X013654Y005610D01*
X013581Y005610D02*
X013728Y005610D01*
X013802Y005610D02*
X013949Y005610D01*
X013875Y005610D02*
X013875Y005830D01*
X013802Y005757D01*
X013802Y003580D02*
X013912Y003580D01*
X013949Y003543D01*
X013949Y003397D01*
X013912Y003360D01*
X013802Y003360D01*
X013802Y003580D01*
X013728Y003580D02*
X013728Y003360D01*
X013581Y003580D01*
X013581Y003360D01*
X013507Y003397D02*
X013507Y003470D01*
X013433Y003470D01*
X013360Y003397D02*
X013397Y003360D01*
X013470Y003360D01*
X013507Y003397D01*
X013507Y003543D02*
X013470Y003580D01*
X013397Y003580D01*
X013360Y003543D01*
X013360Y003397D01*
X013360Y002330D02*
X013360Y002183D01*
X013433Y002110D01*
X013507Y002183D01*
X013507Y002330D01*
X013581Y002293D02*
X013581Y002147D01*
X013618Y002110D01*
X013691Y002110D01*
X013728Y002147D01*
X013802Y002147D02*
X013839Y002110D01*
X013912Y002110D01*
X013949Y002147D01*
X013949Y002293D02*
X013912Y002330D01*
X013839Y002330D01*
X013802Y002293D01*
X013802Y002147D01*
X013728Y002293D02*
X013691Y002330D01*
X013618Y002330D01*
X013581Y002293D01*
X014360Y001080D02*
X014360Y000860D01*
X014360Y000933D02*
X014470Y000933D01*
X014507Y000970D01*
X014507Y001043D01*
X014470Y001080D01*
X014360Y001080D01*
X014581Y001043D02*
X014581Y000897D01*
X014618Y000860D01*
X014691Y000860D01*
X014728Y000897D01*
X014728Y001043D01*
X014691Y001080D01*
X014618Y001080D01*
X014581Y001043D01*
X014802Y001080D02*
X014802Y000860D01*
X014875Y000933D01*
X014949Y000860D01*
X014949Y001080D01*
X015023Y001080D02*
X015023Y000860D01*
X015170Y000860D01*
X015244Y000860D02*
X015244Y001080D01*
X015354Y001080D01*
X015391Y001043D01*
X015391Y000970D01*
X015354Y000933D01*
X015244Y000933D01*
X015317Y000933D02*
X015391Y000860D01*
X015465Y000970D02*
X015612Y000970D01*
X015686Y000897D02*
X015723Y000860D01*
X015796Y000860D01*
X015833Y000897D01*
X015833Y001043D01*
X015796Y001080D01*
X015723Y001080D01*
X015686Y001043D01*
X015686Y000897D01*
X015907Y000897D02*
X015944Y000860D01*
X016017Y000860D01*
X016054Y000897D01*
X016054Y001080D01*
X016128Y001080D02*
X016275Y001080D01*
X016201Y001080D02*
X016201Y000860D01*
X015907Y000897D02*
X015907Y001080D01*
X015170Y001080D02*
X015023Y001080D01*
X015023Y000970D02*
X015096Y000970D01*
X012330Y007139D02*
X012330Y007286D01*
X012330Y007212D02*
X012110Y007212D01*
X012183Y007139D01*
X009433Y002330D02*
X009433Y002110D01*
X009360Y002110D02*
X009507Y002110D01*
X009360Y002257D02*
X009433Y002330D01*
X008220Y000830D02*
X008257Y000793D01*
X008257Y000757D01*
X008110Y000610D01*
X008257Y000610D01*
X008220Y000830D02*
X008147Y000830D01*
X008110Y000793D01*
X006999Y002370D02*
X006926Y002370D01*
X006889Y002407D01*
X006962Y002480D02*
X006999Y002480D01*
X007036Y002443D01*
X007036Y002407D01*
X006999Y002370D01*
X006999Y002480D02*
X007036Y002517D01*
X007036Y002553D01*
X006999Y002590D01*
X006926Y002590D01*
X006889Y002553D01*
X013433Y017360D02*
X013360Y017433D01*
X013360Y017580D01*
X013507Y017580D02*
X013507Y017433D01*
X013433Y017360D01*
X013581Y017397D02*
X013618Y017360D01*
X013691Y017360D01*
X013728Y017397D01*
X013802Y017397D02*
X013802Y017543D01*
X013839Y017580D01*
X013912Y017580D01*
X013949Y017543D01*
X013949Y017397D02*
X013912Y017360D01*
X013839Y017360D01*
X013802Y017397D01*
X013728Y017543D02*
X013691Y017580D01*
X013618Y017580D01*
X013581Y017543D01*
X013581Y017397D01*
X013581Y018860D02*
X013581Y019080D01*
X013728Y018860D01*
X013728Y019080D01*
X013802Y019080D02*
X013802Y018860D01*
X013912Y018860D01*
X013949Y018897D01*
X013949Y019043D01*
X013912Y019080D01*
X013802Y019080D01*
X013507Y019043D02*
X013470Y019080D01*
X013397Y019080D01*
X013360Y019043D01*
X013360Y018897D01*
X013397Y018860D01*
X013470Y018860D01*
X013507Y018897D01*
X013507Y018970D01*
X013433Y018970D01*
X013360Y020360D02*
X013360Y020507D01*
X013433Y020580D01*
X013507Y020507D01*
X013507Y020360D01*
X013581Y020397D02*
X013728Y020543D01*
X013728Y020397D01*
X013691Y020360D01*
X013618Y020360D01*
X013581Y020397D01*
X013581Y020543D01*
X013618Y020580D01*
X013691Y020580D01*
X013728Y020543D01*
X013507Y020470D02*
X013360Y020470D01*
X013360Y025860D02*
X013360Y026080D01*
X013470Y026080D01*
X013507Y026043D01*
X013507Y025970D01*
X013470Y025933D01*
X013360Y025933D01*
X013433Y025933D02*
X013507Y025860D01*
X013581Y025860D02*
X013581Y026007D01*
X013654Y026080D01*
X013728Y026007D01*
X013728Y025860D01*
X013802Y025860D02*
X013875Y025933D01*
X013949Y025860D01*
X013949Y026080D01*
X013802Y026080D02*
X013802Y025860D01*
X013728Y025970D02*
X013581Y025970D01*
X013581Y027360D02*
X013581Y027580D01*
X013728Y027360D01*
X013728Y027580D01*
X013802Y027580D02*
X013802Y027360D01*
X013912Y027360D01*
X013949Y027397D01*
X013949Y027543D01*
X013912Y027580D01*
X013802Y027580D01*
X013507Y027543D02*
X013470Y027580D01*
X013397Y027580D01*
X013360Y027543D01*
X013360Y027397D01*
X013397Y027360D01*
X013470Y027360D01*
X013507Y027397D01*
X013507Y027470D01*
X013433Y027470D01*
D14*
X001194Y000498D02*
X001194Y000183D01*
X005761Y000183D01*
X005761Y000498D01*
X001194Y000498D01*
X001194Y002939D01*
X005761Y002939D01*
X005761Y000498D01*
X007055Y002200D02*
X007213Y002200D01*
X007275Y002750D02*
X008925Y002750D01*
X008987Y002200D02*
X009145Y002200D01*
X008213Y002200D02*
X007987Y002200D01*
X008072Y004860D02*
X007128Y004860D01*
X007128Y007340D01*
X008072Y007340D01*
X008072Y004860D01*
X008628Y004860D02*
X008628Y007340D01*
X009572Y007340D01*
X009572Y004860D01*
X008628Y004860D01*
X006322Y004860D02*
X005378Y004860D01*
X005378Y007340D01*
X006322Y007340D01*
X006322Y004860D01*
X007290Y008850D02*
X007040Y009100D01*
X007040Y009600D01*
X007290Y009850D01*
X007790Y009850D01*
X008040Y009600D01*
X008040Y009100D01*
X007790Y008850D01*
X007290Y008850D01*
X007290Y009850D02*
X007040Y010100D01*
X007040Y010600D01*
X007290Y010850D01*
X007790Y010850D01*
X008040Y010600D01*
X008040Y010100D01*
X007790Y009850D01*
X007790Y010850D02*
X008040Y011100D01*
X008040Y011600D01*
X007790Y011850D01*
X007290Y011850D01*
X007040Y012100D01*
X007040Y012600D01*
X007290Y012850D01*
X007790Y012850D01*
X008040Y012600D01*
X008040Y012100D01*
X007790Y011850D01*
X007290Y011850D02*
X007040Y011600D01*
X007040Y011100D01*
X007290Y010850D01*
X007290Y012850D02*
X007040Y013100D01*
X007040Y013600D01*
X007290Y013850D01*
X007790Y013850D01*
X008040Y013600D01*
X008040Y013100D01*
X007790Y012850D01*
X007790Y013850D02*
X008040Y014100D01*
X008040Y014600D01*
X007790Y014850D01*
X007290Y014850D01*
X007040Y014600D01*
X007040Y014100D01*
X007290Y013850D01*
X002939Y013789D02*
X002939Y011033D01*
X000498Y011033D01*
X000498Y013789D01*
X002939Y013789D01*
X002939Y014533D02*
X000498Y014533D01*
X000498Y017289D01*
X002939Y017289D01*
X002939Y014533D01*
X002939Y018033D02*
X000498Y018033D01*
X000498Y020789D01*
X002939Y020789D01*
X002939Y018033D01*
X002939Y021533D02*
X000498Y021533D01*
X000498Y024289D01*
X002939Y024289D01*
X002939Y021533D01*
X002939Y025033D02*
X000498Y025033D01*
X000498Y027789D01*
X002939Y027789D01*
X002939Y025033D01*
X000498Y025033D02*
X000183Y025033D01*
X000183Y027789D01*
X000498Y027789D01*
X000498Y024289D02*
X000183Y024289D01*
X000183Y021533D01*
X000498Y021533D01*
X000498Y020789D02*
X000183Y020789D01*
X000183Y018033D01*
X000498Y018033D01*
X000498Y017289D02*
X000183Y017289D01*
X000183Y014533D01*
X000498Y014533D01*
X000498Y013789D02*
X000183Y013789D01*
X000183Y011033D01*
X000498Y011033D01*
X000498Y010289D02*
X000183Y010289D01*
X000183Y007533D01*
X000498Y007533D01*
X000498Y010289D01*
X002939Y010289D01*
X002939Y007533D01*
X000498Y007533D01*
X000498Y006789D02*
X000183Y006789D01*
X000183Y004033D01*
X000498Y004033D01*
X000498Y006789D01*
X002939Y006789D01*
X002939Y004033D01*
X000498Y004033D01*
X014261Y004167D02*
X014261Y001411D01*
X016702Y001411D01*
X016702Y004167D01*
X017017Y004167D01*
X017017Y001411D01*
X016702Y001411D01*
X016702Y004167D02*
X014261Y004167D01*
X014261Y004911D02*
X016702Y004911D01*
X016702Y007667D01*
X017017Y007667D01*
X017017Y004911D01*
X016702Y004911D01*
X016702Y007667D02*
X014261Y007667D01*
X014261Y004911D01*
X014261Y016694D02*
X016702Y016694D01*
X016702Y021261D01*
X017017Y021261D01*
X017017Y016694D01*
X016702Y016694D01*
X014261Y016694D02*
X014261Y021261D01*
X016702Y021261D01*
X016702Y021911D02*
X016702Y024667D01*
X017017Y024667D01*
X017017Y021911D01*
X016702Y021911D01*
X014261Y021911D01*
X014261Y024667D01*
X016702Y024667D01*
X016702Y025411D02*
X016702Y028167D01*
X017017Y028167D01*
X017017Y025411D01*
X016702Y025411D01*
X014261Y025411D01*
X014261Y028167D01*
X016702Y028167D01*
D15*
X007245Y002769D02*
X007302Y002724D01*
X007301Y002725D02*
X007265Y002675D01*
X007232Y002624D01*
X007202Y002571D01*
X007175Y002515D01*
X007152Y002459D01*
X007132Y002401D01*
X007115Y002342D01*
X007103Y002282D01*
X007093Y002222D01*
X007088Y002161D01*
X007086Y002100D01*
X007088Y002039D01*
X007093Y001978D01*
X007103Y001917D01*
X007115Y001857D01*
X007132Y001798D01*
X007152Y001741D01*
X007175Y001684D01*
X007202Y001629D01*
X007232Y001576D01*
X007265Y001524D01*
X007301Y001475D01*
X007341Y001428D01*
X007383Y001383D01*
X007427Y001341D01*
X007474Y001302D01*
X007523Y001266D01*
X007575Y001233D01*
X007628Y001203D01*
X007683Y001176D01*
X007739Y001152D01*
X007797Y001132D01*
X007776Y001064D01*
X007776Y001063D01*
X007714Y001085D01*
X007654Y001110D01*
X007595Y001139D01*
X007538Y001171D01*
X007483Y001207D01*
X007430Y001246D01*
X007379Y001288D01*
X007332Y001332D01*
X007287Y001380D01*
X007245Y001431D01*
X007206Y001483D01*
X007170Y001538D01*
X007138Y001596D01*
X007110Y001654D01*
X007085Y001715D01*
X007063Y001777D01*
X007046Y001840D01*
X007032Y001904D01*
X007022Y001969D01*
X007016Y002034D01*
X007014Y002100D01*
X007016Y002165D01*
X007022Y002231D01*
X007032Y002295D01*
X007045Y002360D01*
X007063Y002423D01*
X007084Y002485D01*
X007109Y002545D01*
X007138Y002604D01*
X007170Y002661D01*
X007206Y002716D01*
X007245Y002769D01*
X007250Y002765D01*
X007212Y002712D01*
X007176Y002658D01*
X007144Y002601D01*
X007116Y002542D01*
X007091Y002482D01*
X007070Y002421D01*
X007052Y002358D01*
X007039Y002294D01*
X007029Y002230D01*
X007023Y002165D01*
X007021Y002100D01*
X007023Y002035D01*
X007029Y001970D01*
X007039Y001905D01*
X007052Y001842D01*
X007070Y001779D01*
X007091Y001718D01*
X007116Y001657D01*
X007144Y001599D01*
X007176Y001542D01*
X007212Y001487D01*
X007250Y001435D01*
X007292Y001385D01*
X007337Y001337D01*
X007384Y001293D01*
X007434Y001251D01*
X007486Y001212D01*
X007541Y001177D01*
X007598Y001145D01*
X007656Y001116D01*
X007717Y001091D01*
X007778Y001070D01*
X007780Y001077D01*
X007719Y001098D01*
X007659Y001123D01*
X007601Y001151D01*
X007545Y001183D01*
X007490Y001218D01*
X007438Y001257D01*
X007389Y001298D01*
X007342Y001342D01*
X007297Y001389D01*
X007256Y001439D01*
X007218Y001491D01*
X007182Y001546D01*
X007151Y001602D01*
X007122Y001660D01*
X007098Y001720D01*
X007077Y001781D01*
X007059Y001843D01*
X007046Y001907D01*
X007036Y001971D01*
X007030Y002035D01*
X007028Y002100D01*
X007030Y002164D01*
X007036Y002229D01*
X007045Y002293D01*
X007059Y002356D01*
X007076Y002418D01*
X007097Y002480D01*
X007122Y002539D01*
X007150Y002598D01*
X007182Y002654D01*
X007217Y002708D01*
X007256Y002760D01*
X007261Y002756D01*
X007223Y002704D01*
X007188Y002650D01*
X007157Y002594D01*
X007129Y002537D01*
X007104Y002477D01*
X007083Y002416D01*
X007066Y002354D01*
X007052Y002292D01*
X007043Y002228D01*
X007037Y002164D01*
X007035Y002100D01*
X007037Y002036D01*
X007043Y001972D01*
X007052Y001908D01*
X007066Y001845D01*
X007083Y001783D01*
X007104Y001722D01*
X007129Y001663D01*
X007157Y001605D01*
X007188Y001549D01*
X007223Y001495D01*
X007261Y001444D01*
X007303Y001394D01*
X007347Y001347D01*
X007393Y001303D01*
X007443Y001262D01*
X007494Y001224D01*
X007548Y001189D01*
X007604Y001157D01*
X007662Y001129D01*
X007721Y001105D01*
X007782Y001084D01*
X007784Y001090D01*
X007724Y001111D01*
X007665Y001136D01*
X007608Y001164D01*
X007552Y001195D01*
X007498Y001230D01*
X007447Y001268D01*
X007398Y001308D01*
X007351Y001352D01*
X007308Y001399D01*
X007267Y001448D01*
X007229Y001499D01*
X007194Y001553D01*
X007163Y001609D01*
X007135Y001666D01*
X007111Y001725D01*
X007090Y001785D01*
X007073Y001847D01*
X007059Y001909D01*
X007050Y001972D01*
X007044Y002036D01*
X007042Y002100D01*
X007044Y002164D01*
X007050Y002227D01*
X007059Y002290D01*
X007073Y002353D01*
X007090Y002414D01*
X007111Y002475D01*
X007135Y002534D01*
X007163Y002591D01*
X007194Y002647D01*
X007229Y002700D01*
X007267Y002752D01*
X007272Y002747D01*
X007235Y002696D01*
X007200Y002643D01*
X007169Y002588D01*
X007141Y002531D01*
X007117Y002472D01*
X007096Y002412D01*
X007079Y002351D01*
X007066Y002289D01*
X007057Y002226D01*
X007051Y002163D01*
X007049Y002100D01*
X007051Y002036D01*
X007057Y001973D01*
X007066Y001911D01*
X007080Y001849D01*
X007097Y001787D01*
X007117Y001727D01*
X007142Y001669D01*
X007169Y001612D01*
X007200Y001557D01*
X007235Y001503D01*
X007272Y001452D01*
X007313Y001403D01*
X007356Y001357D01*
X007403Y001314D01*
X007451Y001273D01*
X007502Y001235D01*
X007556Y001201D01*
X007611Y001170D01*
X007668Y001142D01*
X007726Y001118D01*
X007786Y001097D01*
X007788Y001104D01*
X007729Y001124D01*
X007671Y001148D01*
X007614Y001176D01*
X007559Y001207D01*
X007506Y001241D01*
X007456Y001279D01*
X007407Y001319D01*
X007361Y001362D01*
X007318Y001408D01*
X007278Y001457D01*
X007241Y001507D01*
X007206Y001560D01*
X007175Y001615D01*
X007148Y001672D01*
X007124Y001730D01*
X007103Y001789D01*
X007086Y001850D01*
X007073Y001912D01*
X007064Y001974D01*
X007058Y002037D01*
X007056Y002100D01*
X007058Y002163D01*
X007064Y002225D01*
X007073Y002288D01*
X007086Y002349D01*
X007103Y002410D01*
X007124Y002470D01*
X007148Y002528D01*
X007175Y002585D01*
X007206Y002639D01*
X007240Y002692D01*
X007278Y002743D01*
X007283Y002739D01*
X007246Y002688D01*
X007212Y002636D01*
X007181Y002581D01*
X007154Y002525D01*
X007130Y002467D01*
X007110Y002408D01*
X007093Y002348D01*
X007080Y002287D01*
X007071Y002225D01*
X007065Y002162D01*
X007063Y002100D01*
X007065Y002037D01*
X007071Y001975D01*
X007080Y001913D01*
X007093Y001852D01*
X007110Y001792D01*
X007130Y001732D01*
X007154Y001675D01*
X007182Y001618D01*
X007212Y001564D01*
X007246Y001511D01*
X007283Y001461D01*
X007323Y001413D01*
X007366Y001367D01*
X007412Y001324D01*
X007460Y001284D01*
X007510Y001247D01*
X007563Y001213D01*
X007617Y001182D01*
X007674Y001155D01*
X007731Y001131D01*
X007790Y001110D01*
X007793Y001117D01*
X007734Y001137D01*
X007676Y001161D01*
X007621Y001188D01*
X007566Y001219D01*
X007514Y001253D01*
X007464Y001290D01*
X007416Y001329D01*
X007371Y001372D01*
X007329Y001417D01*
X007289Y001465D01*
X007252Y001515D01*
X007218Y001567D01*
X007188Y001622D01*
X007161Y001677D01*
X007137Y001735D01*
X007117Y001794D01*
X007100Y001854D01*
X007087Y001914D01*
X007078Y001976D01*
X007072Y002038D01*
X007070Y002100D01*
X007072Y002162D01*
X007077Y002224D01*
X007087Y002285D01*
X007100Y002346D01*
X007116Y002406D01*
X007137Y002465D01*
X007160Y002522D01*
X007188Y002578D01*
X007218Y002632D01*
X007252Y002684D01*
X007289Y002734D01*
X007294Y002730D01*
X007258Y002680D01*
X007224Y002629D01*
X007194Y002575D01*
X007167Y002519D01*
X007143Y002462D01*
X007123Y002404D01*
X007107Y002344D01*
X007094Y002284D01*
X007084Y002223D01*
X007079Y002161D01*
X007077Y002100D01*
X007079Y002038D01*
X007084Y001977D01*
X007094Y001916D01*
X007107Y001855D01*
X007123Y001796D01*
X007143Y001737D01*
X007167Y001680D01*
X007194Y001625D01*
X007224Y001571D01*
X007258Y001519D01*
X007294Y001469D01*
X007334Y001422D01*
X007376Y001377D01*
X007421Y001335D01*
X007469Y001295D01*
X007518Y001259D01*
X007570Y001225D01*
X007624Y001195D01*
X007679Y001168D01*
X007736Y001144D01*
X007795Y001124D01*
X007797Y001130D01*
X007739Y001150D01*
X007682Y001174D01*
X007627Y001201D01*
X007574Y001231D01*
X007522Y001264D01*
X007473Y001301D01*
X007426Y001340D01*
X007381Y001382D01*
X007339Y001427D01*
X007300Y001474D01*
X007264Y001523D01*
X007230Y001575D01*
X007200Y001628D01*
X007173Y001683D01*
X007150Y001740D01*
X007130Y001798D01*
X007114Y001857D01*
X007101Y001917D01*
X007091Y001977D01*
X007086Y002038D01*
X007084Y002100D01*
X007086Y002161D01*
X007091Y002222D01*
X007101Y002283D01*
X007113Y002343D01*
X007130Y002402D01*
X007150Y002460D01*
X007173Y002516D01*
X007200Y002571D01*
X007230Y002625D01*
X007263Y002676D01*
X007300Y002726D01*
X008423Y001064D02*
X008402Y001133D01*
X008403Y001132D02*
X008461Y001152D01*
X008517Y001176D01*
X008572Y001203D01*
X008625Y001233D01*
X008677Y001266D01*
X008726Y001302D01*
X008773Y001341D01*
X008817Y001383D01*
X008859Y001428D01*
X008898Y001475D01*
X008935Y001524D01*
X008968Y001576D01*
X008998Y001629D01*
X009025Y001684D01*
X009048Y001741D01*
X009068Y001798D01*
X009085Y001857D01*
X009097Y001917D01*
X009107Y001978D01*
X009112Y002039D01*
X009114Y002100D01*
X009112Y002161D01*
X009107Y002222D01*
X009097Y002282D01*
X009085Y002342D01*
X009068Y002401D01*
X009048Y002459D01*
X009025Y002515D01*
X008998Y002571D01*
X008968Y002624D01*
X008935Y002675D01*
X008899Y002725D01*
X008955Y002769D01*
X008994Y002716D01*
X009030Y002661D01*
X009062Y002604D01*
X009091Y002545D01*
X009116Y002485D01*
X009137Y002423D01*
X009155Y002359D01*
X009168Y002295D01*
X009178Y002231D01*
X009184Y002165D01*
X009186Y002100D01*
X009184Y002034D01*
X009178Y001969D01*
X009168Y001904D01*
X009154Y001840D01*
X009137Y001777D01*
X009115Y001715D01*
X009090Y001654D01*
X009062Y001596D01*
X009030Y001538D01*
X008994Y001483D01*
X008955Y001431D01*
X008913Y001380D01*
X008868Y001332D01*
X008821Y001287D01*
X008770Y001246D01*
X008717Y001207D01*
X008662Y001171D01*
X008605Y001139D01*
X008546Y001110D01*
X008486Y001085D01*
X008424Y001063D01*
X008422Y001070D01*
X008483Y001091D01*
X008544Y001116D01*
X008602Y001145D01*
X008659Y001177D01*
X008714Y001212D01*
X008766Y001251D01*
X008816Y001293D01*
X008863Y001337D01*
X008908Y001385D01*
X008950Y001435D01*
X008988Y001487D01*
X009024Y001542D01*
X009056Y001599D01*
X009084Y001657D01*
X009109Y001718D01*
X009130Y001779D01*
X009148Y001842D01*
X009161Y001905D01*
X009171Y001970D01*
X009177Y002035D01*
X009179Y002100D01*
X009177Y002165D01*
X009171Y002230D01*
X009161Y002294D01*
X009148Y002358D01*
X009130Y002421D01*
X009109Y002482D01*
X009084Y002542D01*
X009056Y002601D01*
X009024Y002658D01*
X008988Y002712D01*
X008950Y002765D01*
X008944Y002760D01*
X008983Y002708D01*
X009018Y002654D01*
X009050Y002598D01*
X009078Y002539D01*
X009103Y002480D01*
X009124Y002418D01*
X009141Y002356D01*
X009155Y002293D01*
X009164Y002229D01*
X009170Y002164D01*
X009172Y002100D01*
X009170Y002035D01*
X009164Y001971D01*
X009154Y001907D01*
X009141Y001843D01*
X009123Y001781D01*
X009102Y001720D01*
X009078Y001660D01*
X009049Y001602D01*
X009018Y001546D01*
X008982Y001491D01*
X008944Y001439D01*
X008903Y001389D01*
X008858Y001342D01*
X008811Y001298D01*
X008762Y001257D01*
X008710Y001218D01*
X008655Y001183D01*
X008599Y001151D01*
X008541Y001123D01*
X008481Y001098D01*
X008420Y001077D01*
X008418Y001084D01*
X008479Y001105D01*
X008538Y001129D01*
X008596Y001157D01*
X008652Y001189D01*
X008706Y001224D01*
X008757Y001262D01*
X008807Y001303D01*
X008853Y001347D01*
X008897Y001394D01*
X008939Y001444D01*
X008977Y001495D01*
X009012Y001549D01*
X009043Y001605D01*
X009071Y001663D01*
X009096Y001722D01*
X009117Y001783D01*
X009134Y001845D01*
X009148Y001908D01*
X009157Y001972D01*
X009163Y002036D01*
X009165Y002100D01*
X009163Y002164D01*
X009157Y002228D01*
X009148Y002292D01*
X009134Y002354D01*
X009117Y002416D01*
X009096Y002477D01*
X009071Y002537D01*
X009043Y002594D01*
X009012Y002650D01*
X008977Y002704D01*
X008939Y002756D01*
X008933Y002752D01*
X008971Y002700D01*
X009006Y002647D01*
X009037Y002591D01*
X009065Y002534D01*
X009089Y002475D01*
X009110Y002414D01*
X009127Y002353D01*
X009141Y002290D01*
X009150Y002227D01*
X009156Y002164D01*
X009158Y002100D01*
X009156Y002036D01*
X009150Y001972D01*
X009141Y001909D01*
X009127Y001847D01*
X009110Y001785D01*
X009089Y001725D01*
X009065Y001666D01*
X009037Y001609D01*
X009006Y001553D01*
X008971Y001499D01*
X008933Y001448D01*
X008892Y001399D01*
X008849Y001352D01*
X008802Y001308D01*
X008753Y001268D01*
X008702Y001230D01*
X008648Y001195D01*
X008592Y001164D01*
X008535Y001136D01*
X008476Y001111D01*
X008416Y001090D01*
X008414Y001097D01*
X008474Y001118D01*
X008532Y001142D01*
X008589Y001170D01*
X008644Y001201D01*
X008698Y001235D01*
X008749Y001273D01*
X008797Y001314D01*
X008844Y001357D01*
X008887Y001403D01*
X008928Y001452D01*
X008965Y001503D01*
X009000Y001557D01*
X009031Y001612D01*
X009058Y001669D01*
X009083Y001727D01*
X009103Y001787D01*
X009120Y001848D01*
X009134Y001911D01*
X009143Y001973D01*
X009149Y002036D01*
X009151Y002100D01*
X009149Y002163D01*
X009143Y002226D01*
X009134Y002289D01*
X009121Y002351D01*
X009104Y002412D01*
X009083Y002472D01*
X009059Y002531D01*
X009031Y002588D01*
X009000Y002643D01*
X008965Y002696D01*
X008928Y002747D01*
X008922Y002743D01*
X008960Y002692D01*
X008994Y002639D01*
X009025Y002585D01*
X009052Y002528D01*
X009076Y002470D01*
X009097Y002410D01*
X009114Y002349D01*
X009127Y002288D01*
X009136Y002225D01*
X009142Y002163D01*
X009144Y002100D01*
X009142Y002037D01*
X009136Y001974D01*
X009127Y001912D01*
X009114Y001850D01*
X009097Y001789D01*
X009076Y001730D01*
X009052Y001672D01*
X009025Y001615D01*
X008994Y001560D01*
X008959Y001507D01*
X008922Y001456D01*
X008882Y001408D01*
X008839Y001362D01*
X008793Y001319D01*
X008744Y001279D01*
X008694Y001241D01*
X008641Y001207D01*
X008586Y001176D01*
X008529Y001148D01*
X008471Y001124D01*
X008412Y001104D01*
X008410Y001110D01*
X008469Y001131D01*
X008526Y001155D01*
X008583Y001182D01*
X008637Y001213D01*
X008690Y001247D01*
X008740Y001284D01*
X008788Y001324D01*
X008834Y001367D01*
X008877Y001413D01*
X008917Y001461D01*
X008954Y001511D01*
X008988Y001564D01*
X009018Y001618D01*
X009046Y001675D01*
X009070Y001732D01*
X009090Y001792D01*
X009107Y001852D01*
X009120Y001913D01*
X009129Y001975D01*
X009135Y002037D01*
X009137Y002100D01*
X009135Y002162D01*
X009129Y002225D01*
X009120Y002286D01*
X009107Y002348D01*
X009090Y002408D01*
X009070Y002467D01*
X009046Y002525D01*
X009019Y002581D01*
X008988Y002636D01*
X008954Y002688D01*
X008917Y002739D01*
X008911Y002734D01*
X008948Y002684D01*
X008982Y002632D01*
X009012Y002578D01*
X009040Y002522D01*
X009063Y002465D01*
X009084Y002406D01*
X009100Y002346D01*
X009113Y002285D01*
X009123Y002224D01*
X009128Y002162D01*
X009130Y002100D01*
X009128Y002038D01*
X009122Y001976D01*
X009113Y001914D01*
X009100Y001854D01*
X009083Y001794D01*
X009063Y001735D01*
X009039Y001677D01*
X009012Y001622D01*
X008982Y001567D01*
X008948Y001515D01*
X008911Y001465D01*
X008871Y001417D01*
X008829Y001372D01*
X008784Y001329D01*
X008736Y001290D01*
X008686Y001253D01*
X008634Y001219D01*
X008579Y001188D01*
X008524Y001161D01*
X008466Y001137D01*
X008407Y001117D01*
X008405Y001124D01*
X008464Y001144D01*
X008521Y001168D01*
X008576Y001195D01*
X008630Y001225D01*
X008682Y001259D01*
X008731Y001295D01*
X008779Y001335D01*
X008824Y001377D01*
X008866Y001422D01*
X008906Y001469D01*
X008942Y001519D01*
X008976Y001571D01*
X009006Y001625D01*
X009033Y001680D01*
X009057Y001737D01*
X009077Y001796D01*
X009093Y001855D01*
X009106Y001916D01*
X009116Y001977D01*
X009121Y002038D01*
X009123Y002100D01*
X009121Y002161D01*
X009116Y002223D01*
X009106Y002284D01*
X009093Y002344D01*
X009077Y002404D01*
X009057Y002462D01*
X009033Y002519D01*
X009006Y002575D01*
X008976Y002629D01*
X008942Y002680D01*
X008906Y002730D01*
X008900Y002726D01*
X008937Y002676D01*
X008970Y002625D01*
X009000Y002571D01*
X009027Y002516D01*
X009050Y002460D01*
X009070Y002402D01*
X009087Y002343D01*
X009099Y002283D01*
X009109Y002222D01*
X009114Y002161D01*
X009116Y002100D01*
X009114Y002038D01*
X009109Y001977D01*
X009099Y001917D01*
X009086Y001857D01*
X009070Y001798D01*
X009050Y001740D01*
X009027Y001683D01*
X009000Y001628D01*
X008970Y001575D01*
X008936Y001523D01*
X008900Y001474D01*
X008861Y001427D01*
X008819Y001382D01*
X008774Y001340D01*
X008727Y001301D01*
X008678Y001264D01*
X008626Y001231D01*
X008573Y001201D01*
X008518Y001174D01*
X008461Y001150D01*
X008403Y001130D01*
D16*
X009090Y005225D02*
X009090Y005405D01*
X009225Y005360D02*
X008955Y005360D01*
X009090Y005225D01*
X009180Y005520D02*
X009180Y005565D01*
X009225Y005565D01*
X009225Y005520D01*
X009180Y005520D01*
X009180Y005667D02*
X009225Y005667D01*
X009180Y005667D02*
X009000Y005847D01*
X008955Y005847D01*
X008955Y005667D01*
X008955Y005962D02*
X009225Y005962D01*
X009135Y005962D02*
X009045Y006097D01*
X009135Y005962D02*
X009225Y006097D01*
X007725Y006097D02*
X007635Y005962D01*
X007545Y006097D01*
X007455Y005962D02*
X007725Y005962D01*
X007500Y005847D02*
X007680Y005667D01*
X007725Y005667D01*
X007725Y005565D02*
X007725Y005520D01*
X007680Y005520D01*
X007680Y005565D01*
X007725Y005565D01*
X007725Y005360D02*
X007455Y005360D01*
X007590Y005225D01*
X007590Y005405D01*
X007455Y005667D02*
X007455Y005847D01*
X007500Y005847D01*
X005995Y006129D02*
X005725Y006129D01*
X005860Y005994D01*
X005860Y006174D01*
X005950Y006288D02*
X005950Y006333D01*
X005995Y006333D01*
X005995Y006288D01*
X005950Y006288D01*
X005950Y006436D02*
X005995Y006436D01*
X005950Y006436D02*
X005770Y006616D01*
X005725Y006616D01*
X005725Y006436D01*
X005725Y006730D02*
X005995Y006730D01*
X005905Y006730D02*
X005725Y006911D01*
X005860Y006775D02*
X005995Y006911D01*
D17*
X014126Y010946D02*
X014128Y010960D01*
X014134Y010974D01*
X014142Y010986D01*
X014154Y010994D01*
X014168Y011000D01*
X014182Y011002D01*
X014196Y011000D01*
X014210Y010994D01*
X014222Y010986D01*
X014230Y010974D01*
X014236Y010960D01*
X014238Y010946D01*
X014236Y010932D01*
X014230Y010918D01*
X014222Y010906D01*
X014210Y010898D01*
X014196Y010892D01*
X014182Y010890D01*
X014168Y010892D01*
X014154Y010898D01*
X014142Y010906D01*
X014134Y010918D01*
X014128Y010932D01*
X014126Y010946D01*
D18*
X013600Y023600D03*
X003840Y022600D03*
X003860Y025100D03*
X003600Y014600D03*
X003600Y012100D03*
X003850Y007600D03*
X003850Y005100D03*
D19*
X003850Y018600D03*
M02*
