%
M48
M72
T01C0.0200
T02C0.0320
T03C0.0354
T04C0.0400
T05C0.0433
T06C0.0472
T07C0.1200
%
T01
X3850Y6600
X3580Y13380
X4220Y19140
X3820Y23860
X13660Y14900
T02
X8600Y2100
X8100Y1350
X7600Y2100
T03
X7600Y4100
X9100Y4100
X9100Y8100
X7600Y8100
X5850Y8100
X5850Y4100
T04
X7490Y9350
X7590Y10350
X7490Y11350
X7590Y12350
X7490Y13350
X7590Y14350
X5600Y15600
X5600Y16600
X5600Y17600
X5600Y18600
X5600Y19600
X5600Y20600
X5600Y21600
X5600Y22600
X5600Y23600
X5600Y24600
X5600Y25600
X5600Y26600
X6100Y27600
X7100Y27600
X8100Y27600
X9100Y27600
X10100Y27600
X11100Y27600
X11600Y26600
X11600Y25600
X11600Y24600
X11600Y23600
X11600Y22600
X11600Y21600
X11600Y20600
X11600Y19600
X11600Y18600
X11600Y17600
X11600Y16600
X11600Y15600
X12050Y14100
X13150Y14100
X10475Y18038
X10475Y19038
X10475Y22163
X10475Y23163
T05
X12100Y10100
X11100Y9100
X12100Y8100
X13100Y9100
T06
X2030Y1600
X3478Y1600
X4926Y1600
X1600Y4652
X1600Y6170
X1600Y8152
X1600Y9670
X1600Y11652
X1600Y13170
X1600Y15152
X1600Y16670
X1600Y18652
X1600Y20170
X1600Y22152
X1600Y23670
X1600Y25652
X1600Y27170
X15600Y27548
X15600Y26030
X15600Y24048
X15600Y22530
X15600Y20426
X15600Y18978
X15600Y17530
X15600Y7048
X15600Y5530
X15600Y3548
X15600Y2030
T07
X12110Y3610
X8110Y24610
M30
