G75*
%MOIN*%
%OFA0B0*%
%FSLAX24Y24*%
%IPPOS*%
%LPD*%
%AMOC8*
5,1,8,0,0,1.08239X$1,22.5*
%
%ADD10C,0.1280*%
%ADD11R,0.0880X0.0880*%
%ADD12C,0.0880*%
%ADD13C,0.0820*%
%ADD14C,0.0050*%
D10*
X011610Y003610D03*
X008110Y023610D03*
D11*
X002030Y001600D03*
X001600Y006170D03*
X001600Y009670D03*
X001600Y013170D03*
X001600Y016670D03*
X001600Y020170D03*
X001600Y023670D03*
X001600Y027170D03*
X015600Y026030D03*
X015600Y022530D03*
X015600Y017530D03*
X015600Y005530D03*
X015600Y002030D03*
D12*
X015600Y003548D03*
X015600Y007048D03*
X015600Y018978D03*
X015600Y020426D03*
X015600Y024048D03*
X015600Y027548D03*
X001600Y025652D03*
X001600Y022152D03*
X001600Y018652D03*
X001600Y015152D03*
X001600Y011652D03*
X001600Y008152D03*
X001600Y004652D03*
X003478Y001600D03*
X004926Y001600D03*
D13*
X005850Y004100D03*
X007600Y004100D03*
X007600Y002100D03*
X008100Y001350D03*
X008600Y002100D03*
X009100Y004100D03*
X009100Y008100D03*
X007600Y008100D03*
X007490Y009350D03*
X007590Y010350D03*
X007490Y011350D03*
X007590Y012350D03*
X007490Y013350D03*
X007590Y014350D03*
X005600Y015600D03*
X005600Y016600D03*
X005600Y017600D03*
X005600Y018600D03*
X005600Y019600D03*
X005600Y020600D03*
X005600Y021600D03*
X005600Y022600D03*
X005600Y023600D03*
X005600Y024600D03*
X005600Y025600D03*
X005600Y026600D03*
X006100Y027600D03*
X007100Y027600D03*
X008100Y027600D03*
X009100Y027600D03*
X010100Y027600D03*
X011100Y027600D03*
X011600Y026600D03*
X011600Y025600D03*
X011600Y024600D03*
X011600Y023600D03*
X011600Y022600D03*
X011600Y021600D03*
X011600Y020600D03*
X011600Y019600D03*
X011600Y018600D03*
X011600Y017600D03*
X011600Y016600D03*
X011600Y015600D03*
X010475Y018038D03*
X010475Y019038D03*
X010475Y022163D03*
X010475Y023163D03*
X005850Y008100D03*
D14*
X011702Y013951D02*
X011680Y014021D01*
X011672Y014093D01*
X011677Y014159D01*
X011693Y014223D01*
X011721Y014283D01*
X011758Y014338D01*
X011804Y014385D01*
X011858Y014424D01*
X011917Y014453D01*
X011981Y014470D01*
X012047Y014477D01*
X012113Y014470D01*
X012176Y014452D01*
X012236Y014423D01*
X012290Y014385D01*
X012336Y014337D01*
X012373Y014282D01*
X012400Y014222D01*
X012416Y014158D01*
X012421Y014092D01*
X012413Y014020D01*
X012391Y013951D01*
X012357Y013888D01*
X012310Y013832D01*
X012254Y013787D01*
X012190Y013754D01*
X012120Y013733D01*
X012048Y013727D01*
X011976Y013733D01*
X011906Y013753D01*
X011841Y013787D01*
X011784Y013832D01*
X011737Y013888D01*
X011702Y013951D01*
X011700Y013960D02*
X012394Y013960D01*
X012409Y014008D02*
X011684Y014008D01*
X011676Y014057D02*
X012417Y014057D01*
X012420Y014105D02*
X011673Y014105D01*
X011677Y014154D02*
X012417Y014154D01*
X012405Y014202D02*
X011688Y014202D01*
X011706Y014251D02*
X012387Y014251D01*
X012362Y014299D02*
X011731Y014299D01*
X011767Y014348D02*
X012326Y014348D01*
X012274Y014396D02*
X011819Y014396D01*
X011901Y014445D02*
X012192Y014445D01*
X012369Y013911D02*
X011724Y013911D01*
X011759Y013863D02*
X012336Y013863D01*
X012288Y013814D02*
X011807Y013814D01*
X011882Y013766D02*
X012213Y013766D01*
X012804Y013951D02*
X012782Y014021D01*
X012774Y014093D01*
X012779Y014159D01*
X012795Y014223D01*
X012823Y014283D01*
X012860Y014338D01*
X012906Y014385D01*
X012960Y014424D01*
X013019Y014453D01*
X013083Y014470D01*
X013149Y014477D01*
X013215Y014470D01*
X013278Y014452D01*
X013338Y014423D01*
X013392Y014385D01*
X013438Y014337D01*
X013475Y014282D01*
X013502Y014222D01*
X013518Y014158D01*
X013523Y014092D01*
X013515Y014020D01*
X013493Y013951D01*
X013459Y013888D01*
X013412Y013832D01*
X013356Y013787D01*
X013292Y013754D01*
X013222Y013733D01*
X013150Y013727D01*
X013078Y013733D01*
X013008Y013753D01*
X012943Y013787D01*
X012886Y013832D01*
X012839Y013888D01*
X012804Y013951D01*
X012802Y013960D02*
X013496Y013960D01*
X013511Y014008D02*
X012786Y014008D01*
X012778Y014057D02*
X013519Y014057D01*
X013522Y014105D02*
X012775Y014105D01*
X012779Y014154D02*
X013519Y014154D01*
X013507Y014202D02*
X012790Y014202D01*
X012808Y014251D02*
X013489Y014251D01*
X013464Y014299D02*
X012833Y014299D01*
X012869Y014348D02*
X013428Y014348D01*
X013376Y014396D02*
X012921Y014396D01*
X013003Y014445D02*
X013294Y014445D01*
X013472Y013911D02*
X012826Y013911D01*
X012861Y013863D02*
X013438Y013863D01*
X013390Y013814D02*
X012909Y013814D01*
X012984Y013766D02*
X013315Y013766D01*
M02*
