G75*
%MOIN*%
%OFA0B0*%
%FSLAX24Y24*%
%IPPOS*%
%LPD*%
%AMOC8*
5,1,8,0,0,1.08239X$1,22.5*
%
%ADD10R,0.0800X0.0800*%
%ADD11C,0.0800*%
%ADD12C,0.0740*%
%ADD13C,0.0760*%
%ADD14C,0.0240*%
%ADD15C,0.0400*%
%ADD16C,0.0080*%
D10*
X002030Y001600D03*
X001600Y006170D03*
X001600Y009670D03*
X001600Y013170D03*
X001600Y016670D03*
X001600Y020170D03*
X001600Y023670D03*
X001600Y027170D03*
X015600Y026030D03*
X015600Y022530D03*
X015600Y017530D03*
X015600Y005530D03*
X015600Y002030D03*
D11*
X015600Y003548D03*
X015600Y007048D03*
X013150Y014100D03*
X012050Y014100D03*
X015600Y018978D03*
X015600Y020426D03*
X015600Y024048D03*
X015600Y027548D03*
X001600Y025652D03*
X001600Y022152D03*
X001600Y018652D03*
X001600Y015152D03*
X001600Y011652D03*
X001600Y008152D03*
X001600Y004652D03*
X003478Y001600D03*
X004926Y001600D03*
D12*
X005850Y004100D03*
X007600Y004100D03*
X007600Y002100D03*
X008100Y001350D03*
X008600Y002100D03*
X009100Y004100D03*
X009100Y008100D03*
X007600Y008100D03*
X007490Y009350D03*
X007590Y010350D03*
X007490Y011350D03*
X007590Y012350D03*
X007490Y013350D03*
X007590Y014350D03*
X005600Y015600D03*
X005600Y016600D03*
X005600Y017600D03*
X005600Y018600D03*
X005600Y019600D03*
X005600Y020600D03*
X005600Y021600D03*
X005600Y022600D03*
X005600Y023600D03*
X005600Y024600D03*
X005600Y025600D03*
X005600Y026600D03*
X006100Y027600D03*
X007100Y027600D03*
X008100Y027600D03*
X009100Y027600D03*
X010100Y027600D03*
X011100Y027600D03*
X011600Y026600D03*
X011600Y025600D03*
X011600Y024600D03*
X011600Y023600D03*
X011600Y022600D03*
X011600Y021600D03*
X011600Y020600D03*
X011600Y019600D03*
X011600Y018600D03*
X011600Y017600D03*
X011600Y016600D03*
X011600Y015600D03*
X010475Y018038D03*
X010475Y019038D03*
X010475Y022163D03*
X010475Y023163D03*
X005850Y008100D03*
D13*
X011100Y009100D03*
X012100Y008100D03*
X013100Y009100D03*
X012100Y010100D03*
D14*
X000600Y000600D02*
X000600Y028100D01*
X005737Y028100D01*
X005583Y027946D01*
X005490Y027721D01*
X005490Y027479D01*
X005583Y027254D01*
X005627Y027210D01*
X005479Y027210D01*
X005254Y027117D01*
X005083Y026946D01*
X004990Y026721D01*
X004990Y026479D01*
X005083Y026254D01*
X005237Y026100D01*
X005083Y025946D01*
X004990Y025721D01*
X004990Y025479D01*
X005083Y025254D01*
X005237Y025100D01*
X005083Y024946D01*
X004990Y024721D01*
X004990Y024479D01*
X005083Y024254D01*
X005237Y024100D01*
X005083Y023946D01*
X004990Y023721D01*
X004990Y023479D01*
X005083Y023254D01*
X005237Y023100D01*
X005083Y022946D01*
X004990Y022721D01*
X004990Y022479D01*
X005083Y022254D01*
X005237Y022100D01*
X005083Y021946D01*
X004990Y021721D01*
X004990Y021479D01*
X005083Y021254D01*
X005237Y021100D01*
X005083Y020946D01*
X004990Y020721D01*
X004990Y020479D01*
X005083Y020254D01*
X005237Y020100D01*
X005083Y019946D01*
X004990Y019721D01*
X004990Y019479D01*
X005083Y019254D01*
X005237Y019100D01*
X005083Y018946D01*
X004990Y018721D01*
X004990Y018479D01*
X005083Y018254D01*
X005237Y018100D01*
X005083Y017946D01*
X004990Y017721D01*
X004990Y017479D01*
X005083Y017254D01*
X005237Y017100D01*
X005083Y016946D01*
X004990Y016721D01*
X004990Y016479D01*
X005083Y016254D01*
X005237Y016100D01*
X005083Y015946D01*
X004990Y015721D01*
X004990Y015479D01*
X005083Y015254D01*
X005254Y015083D01*
X005479Y014990D01*
X005721Y014990D01*
X005946Y015083D01*
X006117Y015254D01*
X006210Y015479D01*
X006210Y015721D01*
X006117Y015946D01*
X005963Y016100D01*
X006117Y016254D01*
X006210Y016479D01*
X006210Y016721D01*
X006117Y016946D01*
X005963Y017100D01*
X006117Y017254D01*
X006210Y017479D01*
X006210Y017721D01*
X006117Y017946D01*
X005963Y018100D01*
X006117Y018254D01*
X006210Y018479D01*
X006210Y018721D01*
X006117Y018946D01*
X005963Y019100D01*
X006117Y019254D01*
X006210Y019479D01*
X006210Y019721D01*
X006117Y019946D01*
X005963Y020100D01*
X006117Y020254D01*
X006210Y020479D01*
X006210Y020721D01*
X006117Y020946D01*
X005963Y021100D01*
X006117Y021254D01*
X006210Y021479D01*
X006210Y021721D01*
X006117Y021946D01*
X005963Y022100D01*
X006117Y022254D01*
X006210Y022479D01*
X006210Y022721D01*
X006117Y022946D01*
X005963Y023100D01*
X006117Y023254D01*
X006210Y023479D01*
X006210Y023721D01*
X006117Y023946D01*
X005963Y024100D01*
X006117Y024254D01*
X006210Y024479D01*
X006210Y024721D01*
X006117Y024946D01*
X005963Y025100D01*
X006117Y025254D01*
X006210Y025479D01*
X006210Y025721D01*
X006117Y025946D01*
X005963Y026100D01*
X006117Y026254D01*
X006210Y026479D01*
X006210Y026721D01*
X006117Y026946D01*
X006073Y026990D01*
X006221Y026990D01*
X006446Y027083D01*
X006600Y027237D01*
X006754Y027083D01*
X006979Y026990D01*
X007221Y026990D01*
X007446Y027083D01*
X007600Y027237D01*
X007754Y027083D01*
X007979Y026990D01*
X008221Y026990D01*
X008446Y027083D01*
X008600Y027237D01*
X008754Y027083D01*
X008979Y026990D01*
X009221Y026990D01*
X009446Y027083D01*
X009600Y027237D01*
X009754Y027083D01*
X009979Y026990D01*
X010221Y026990D01*
X010446Y027083D01*
X010600Y027237D01*
X010754Y027083D01*
X010979Y026990D01*
X011127Y026990D01*
X011083Y026946D01*
X010990Y026721D01*
X010990Y026479D01*
X011083Y026254D01*
X011254Y026083D01*
X011259Y026081D01*
X011216Y026050D01*
X011150Y025984D01*
X011095Y025909D01*
X011053Y025826D01*
X011025Y025738D01*
X011010Y025646D01*
X011010Y025600D01*
X011600Y025600D01*
X012190Y025600D01*
X012190Y025646D01*
X012175Y025738D01*
X012147Y025826D01*
X012105Y025909D01*
X012050Y025984D01*
X011984Y026050D01*
X011941Y026081D01*
X011946Y026083D01*
X012117Y026254D01*
X012210Y026479D01*
X012210Y026721D01*
X012117Y026946D01*
X011946Y027117D01*
X011721Y027210D01*
X011573Y027210D01*
X011617Y027254D01*
X011710Y027479D01*
X011710Y027721D01*
X011617Y027946D01*
X011463Y028100D01*
X015318Y028100D01*
X015275Y028078D01*
X015196Y028021D01*
X015127Y027952D01*
X015070Y027873D01*
X015025Y027786D01*
X014995Y027693D01*
X014980Y027597D01*
X014980Y027548D01*
X015600Y027548D01*
X015600Y027548D01*
X016220Y027548D01*
X016220Y027597D01*
X016205Y027693D01*
X016175Y027786D01*
X016130Y027873D01*
X016073Y027952D01*
X016004Y028021D01*
X015925Y028078D01*
X015882Y028100D01*
X016600Y028100D01*
X016600Y012809D01*
X014039Y015436D01*
X014000Y015476D01*
X013962Y015515D01*
X013962Y015515D01*
X013962Y015515D01*
X013911Y015537D01*
X013859Y015559D01*
X013803Y015560D01*
X013748Y015561D01*
X013748Y015561D01*
X013105Y015569D01*
X012198Y016449D01*
X012210Y016479D01*
X012210Y016721D01*
X012117Y016946D01*
X011963Y017100D01*
X012117Y017254D01*
X012210Y017479D01*
X012210Y017721D01*
X012117Y017946D01*
X011963Y018100D01*
X012117Y018254D01*
X012210Y018479D01*
X012210Y018721D01*
X012117Y018946D01*
X011963Y019100D01*
X012117Y019254D01*
X012210Y019479D01*
X012210Y019721D01*
X012195Y019759D01*
X012336Y019900D01*
X015221Y019900D01*
X015237Y019883D01*
X015473Y019786D01*
X015727Y019786D01*
X015963Y019883D01*
X016143Y020063D01*
X016240Y020299D01*
X016240Y020553D01*
X016143Y020788D01*
X015963Y020968D01*
X015727Y021066D01*
X015473Y021066D01*
X015237Y020968D01*
X015057Y020788D01*
X014960Y020553D01*
X014960Y020460D01*
X012202Y020460D01*
X012210Y020479D01*
X012210Y020721D01*
X012117Y020946D01*
X011963Y021100D01*
X012117Y021254D01*
X012210Y021479D01*
X012210Y021721D01*
X012117Y021946D01*
X011963Y022100D01*
X012117Y022254D01*
X012210Y022479D01*
X012210Y022721D01*
X012117Y022946D01*
X011963Y023100D01*
X012117Y023254D01*
X012210Y023479D01*
X012210Y023721D01*
X012117Y023946D01*
X011963Y024100D01*
X012117Y024254D01*
X012210Y024479D01*
X012210Y024721D01*
X012117Y024946D01*
X011946Y025117D01*
X011941Y025119D01*
X011984Y025150D01*
X012050Y025216D01*
X012105Y025291D01*
X012147Y025374D01*
X012175Y025462D01*
X012190Y025554D01*
X012190Y025600D01*
X011600Y025600D01*
X011600Y025600D01*
X011600Y025600D01*
X011010Y025600D01*
X011010Y025554D01*
X011025Y025462D01*
X011053Y025374D01*
X011095Y025291D01*
X011150Y025216D01*
X011216Y025150D01*
X011259Y025119D01*
X011254Y025117D01*
X011083Y024946D01*
X010990Y024721D01*
X010990Y024479D01*
X011083Y024254D01*
X011237Y024100D01*
X011083Y023946D01*
X010990Y023721D01*
X010990Y023510D01*
X010821Y023680D01*
X010596Y023772D01*
X010354Y023772D01*
X010129Y023680D01*
X009958Y023508D01*
X009865Y023284D01*
X009865Y023041D01*
X009958Y022817D01*
X010112Y022663D01*
X009958Y022508D01*
X009865Y022284D01*
X009865Y022041D01*
X009958Y021817D01*
X010129Y021645D01*
X010354Y021553D01*
X010596Y021553D01*
X010821Y021645D01*
X010992Y021817D01*
X011085Y022041D01*
X011085Y022252D01*
X011237Y022100D01*
X011083Y021946D01*
X010990Y021721D01*
X010990Y021479D01*
X011083Y021254D01*
X011237Y021100D01*
X011083Y020946D01*
X010990Y020721D01*
X010990Y020479D01*
X011083Y020254D01*
X011237Y020100D01*
X011083Y019946D01*
X010990Y019721D01*
X010990Y019479D01*
X011083Y019254D01*
X011237Y019100D01*
X011085Y018948D01*
X011085Y019159D01*
X010992Y019383D01*
X010821Y019555D01*
X010596Y019647D01*
X010354Y019647D01*
X010129Y019555D01*
X009958Y019383D01*
X009865Y019159D01*
X009865Y018916D01*
X009958Y018692D01*
X010112Y018537D01*
X009958Y018383D01*
X009865Y018159D01*
X009865Y017916D01*
X009958Y017692D01*
X010129Y017520D01*
X010354Y017428D01*
X010596Y017428D01*
X010821Y017520D01*
X010990Y017690D01*
X010990Y017479D01*
X011083Y017254D01*
X011237Y017100D01*
X011083Y016946D01*
X010990Y016721D01*
X010990Y016479D01*
X011083Y016254D01*
X011237Y016100D01*
X011083Y015946D01*
X010990Y015721D01*
X010990Y015479D01*
X011083Y015254D01*
X011254Y015083D01*
X011479Y014990D01*
X011721Y014990D01*
X011787Y015017D01*
X011903Y014901D01*
X011981Y014823D01*
X012084Y014780D01*
X013233Y014780D01*
X013262Y014710D01*
X013199Y014720D01*
X013150Y014720D01*
X013150Y014100D01*
X013770Y014100D01*
X013770Y014149D01*
X013755Y014245D01*
X013725Y014338D01*
X013680Y014425D01*
X013655Y014460D01*
X013748Y014460D01*
X013909Y014527D01*
X014028Y014645D01*
X016600Y012006D01*
X016600Y005828D01*
X016240Y005825D01*
X016240Y005978D01*
X016203Y006066D01*
X016136Y006133D01*
X016048Y006170D01*
X015152Y006170D01*
X015064Y006133D01*
X014997Y006066D01*
X014960Y005978D01*
X014960Y005082D01*
X014997Y004994D01*
X015064Y004927D01*
X015152Y004890D01*
X016048Y004890D01*
X016136Y004927D01*
X016203Y004994D01*
X016240Y005082D01*
X016240Y005265D01*
X016600Y005268D01*
X016600Y000600D01*
X000600Y000600D01*
X000600Y000724D02*
X016600Y000724D01*
X016600Y000962D02*
X008575Y000962D01*
X008617Y001004D02*
X008446Y000833D01*
X008221Y000740D01*
X007979Y000740D01*
X007754Y000833D01*
X007583Y001004D01*
X007490Y001229D01*
X007490Y001471D01*
X007498Y001490D01*
X007479Y001490D01*
X007254Y001583D01*
X007083Y001754D01*
X006990Y001979D01*
X006990Y002221D01*
X007083Y002446D01*
X007254Y002617D01*
X007479Y002710D01*
X007721Y002710D01*
X007946Y002617D01*
X008117Y002446D01*
X008119Y002441D01*
X008150Y002484D01*
X008216Y002550D01*
X008291Y002605D01*
X008374Y002647D01*
X008462Y002675D01*
X008554Y002690D01*
X008600Y002690D01*
X008646Y002690D01*
X008738Y002675D01*
X008826Y002647D01*
X008909Y002605D01*
X008984Y002550D01*
X009050Y002484D01*
X009105Y002409D01*
X009147Y002326D01*
X009175Y002238D01*
X009190Y002146D01*
X009190Y002100D01*
X008600Y002100D01*
X008600Y002100D01*
X008600Y002100D01*
X008600Y002690D01*
X008600Y002100D01*
X009190Y002100D01*
X009190Y002054D01*
X009175Y001962D01*
X009147Y001874D01*
X009105Y001791D01*
X009050Y001716D01*
X008984Y001650D01*
X008909Y001595D01*
X008826Y001553D01*
X008738Y001525D01*
X008691Y001517D01*
X008710Y001471D01*
X008710Y001229D01*
X008617Y001004D01*
X008698Y001201D02*
X016600Y001201D01*
X016600Y001439D02*
X016148Y001439D01*
X016136Y001427D02*
X016203Y001494D01*
X016240Y001582D01*
X016240Y002478D01*
X016203Y002566D01*
X016136Y002633D01*
X016048Y002670D01*
X015152Y002670D01*
X015064Y002633D01*
X014997Y002566D01*
X014960Y002478D01*
X014960Y001582D01*
X014997Y001494D01*
X015064Y001427D01*
X015152Y001390D01*
X016048Y001390D01*
X016136Y001427D01*
X016240Y001678D02*
X016600Y001678D01*
X016600Y001916D02*
X016240Y001916D01*
X016240Y002155D02*
X016600Y002155D01*
X016600Y002393D02*
X016240Y002393D01*
X016138Y002632D02*
X016600Y002632D01*
X016600Y002870D02*
X012299Y002870D01*
X012396Y002951D02*
X012123Y002722D01*
X012123Y002722D01*
X011788Y002600D01*
X011666Y002600D01*
X011432Y002600D01*
X011097Y002722D01*
X011097Y002722D01*
X010824Y002951D01*
X010824Y002951D01*
X010646Y003259D01*
X010646Y003259D01*
X010584Y003610D01*
X010584Y003610D01*
X010646Y003961D01*
X010646Y003961D01*
X010824Y004269D01*
X010824Y004269D01*
X010824Y004269D01*
X011097Y004498D01*
X011097Y004498D01*
X011432Y004620D01*
X011788Y004620D01*
X012123Y004498D01*
X012123Y004498D01*
X012396Y004269D01*
X012396Y004269D01*
X012574Y003961D01*
X012574Y003961D01*
X012636Y003610D01*
X012636Y003610D01*
X012574Y003259D01*
X012574Y003259D01*
X012396Y002951D01*
X012396Y002951D01*
X012396Y002951D01*
X012487Y003109D02*
X015163Y003109D01*
X015196Y003075D02*
X015275Y003018D01*
X015362Y002973D01*
X015455Y002943D01*
X015551Y002928D01*
X015600Y002928D01*
X015600Y003548D01*
X015600Y004168D01*
X015551Y004168D01*
X015455Y004153D01*
X015362Y004123D01*
X015275Y004078D01*
X015196Y004021D01*
X015127Y003952D01*
X015070Y003873D01*
X015025Y003786D01*
X014995Y003693D01*
X014980Y003597D01*
X014980Y003548D01*
X015600Y003548D01*
X015600Y003548D01*
X015600Y004168D01*
X015649Y004168D01*
X015745Y004153D01*
X015838Y004123D01*
X015925Y004078D01*
X016004Y004021D01*
X016073Y003952D01*
X016130Y003873D01*
X016175Y003786D01*
X016205Y003693D01*
X016220Y003597D01*
X016220Y003548D01*
X015600Y003548D01*
X015600Y003548D01*
X015600Y003548D01*
X014980Y003548D01*
X014980Y003499D01*
X014995Y003403D01*
X015025Y003310D01*
X015070Y003223D01*
X015127Y003144D01*
X015196Y003075D01*
X015013Y003347D02*
X012589Y003347D01*
X012631Y003586D02*
X014980Y003586D01*
X015045Y003824D02*
X012598Y003824D01*
X012515Y004063D02*
X015253Y004063D01*
X015600Y004063D02*
X015600Y004063D01*
X015600Y003824D02*
X015600Y003824D01*
X015600Y003586D02*
X015600Y003586D01*
X015600Y003548D02*
X016220Y003548D01*
X016220Y003499D01*
X016205Y003403D01*
X016175Y003310D01*
X016130Y003223D01*
X016073Y003144D01*
X016004Y003075D01*
X015925Y003018D01*
X015838Y002973D01*
X015745Y002943D01*
X015649Y002928D01*
X015600Y002928D01*
X015600Y003548D01*
X015600Y003548D01*
X015600Y003347D02*
X015600Y003347D01*
X015600Y003109D02*
X015600Y003109D01*
X016037Y003109D02*
X016600Y003109D01*
X016600Y003347D02*
X016187Y003347D01*
X016220Y003586D02*
X016600Y003586D01*
X016600Y003824D02*
X016155Y003824D01*
X015947Y004063D02*
X016600Y004063D01*
X016600Y004301D02*
X012358Y004301D01*
X012009Y004540D02*
X016600Y004540D01*
X016600Y004778D02*
X002240Y004778D01*
X002240Y004779D02*
X002143Y005015D01*
X001963Y005195D01*
X001727Y005292D01*
X001473Y005292D01*
X001237Y005195D01*
X001057Y005015D01*
X000960Y004779D01*
X000960Y004525D01*
X001057Y004290D01*
X001237Y004109D01*
X001473Y004012D01*
X001727Y004012D01*
X001963Y004109D01*
X002143Y004290D01*
X002240Y004525D01*
X002240Y004779D01*
X002240Y004540D02*
X005427Y004540D01*
X005504Y004617D02*
X005333Y004446D01*
X005240Y004221D01*
X005240Y003979D01*
X005333Y003754D01*
X005504Y003583D01*
X005729Y003490D01*
X005971Y003490D01*
X006196Y003583D01*
X006367Y003754D01*
X006460Y003979D01*
X006460Y004221D01*
X006367Y004446D01*
X006196Y004617D01*
X005971Y004710D01*
X005729Y004710D01*
X005504Y004617D01*
X005273Y004301D02*
X002147Y004301D01*
X001849Y004063D02*
X005240Y004063D01*
X005304Y003824D02*
X000600Y003824D01*
X000600Y003586D02*
X005502Y003586D01*
X006198Y003586D02*
X007252Y003586D01*
X007254Y003583D02*
X007479Y003490D01*
X007721Y003490D01*
X007946Y003583D01*
X008117Y003754D01*
X008210Y003979D01*
X008210Y004221D01*
X008117Y004446D01*
X007946Y004617D01*
X007721Y004710D01*
X007479Y004710D01*
X007254Y004617D01*
X007083Y004446D01*
X006990Y004221D01*
X006990Y003979D01*
X007083Y003754D01*
X007254Y003583D01*
X007054Y003824D02*
X006396Y003824D01*
X006460Y004063D02*
X006990Y004063D01*
X007023Y004301D02*
X006427Y004301D01*
X006273Y004540D02*
X007177Y004540D01*
X008023Y004540D02*
X008677Y004540D01*
X008754Y004617D02*
X008583Y004446D01*
X008490Y004221D01*
X008490Y003979D01*
X008583Y003754D01*
X008754Y003583D01*
X008979Y003490D01*
X009221Y003490D01*
X009446Y003583D01*
X009617Y003754D01*
X009710Y003979D01*
X009710Y004221D01*
X009617Y004446D01*
X009446Y004617D01*
X009221Y004710D01*
X008979Y004710D01*
X008754Y004617D01*
X008523Y004301D02*
X008177Y004301D01*
X008210Y004063D02*
X008490Y004063D01*
X008554Y003824D02*
X008146Y003824D01*
X007948Y003586D02*
X008752Y003586D01*
X008856Y002632D02*
X011345Y002632D01*
X010921Y002870D02*
X000600Y002870D01*
X000600Y002632D02*
X007289Y002632D01*
X007061Y002393D02*
X000600Y002393D01*
X000600Y002155D02*
X001473Y002155D01*
X001454Y002135D02*
X001425Y002085D01*
X001410Y002029D01*
X001410Y001600D01*
X002030Y001600D01*
X002650Y001600D01*
X002650Y002029D01*
X002635Y002085D01*
X002606Y002135D01*
X002565Y002176D01*
X002515Y002205D01*
X002459Y002220D01*
X002030Y002220D01*
X002030Y001600D01*
X002030Y001600D01*
X002030Y001600D01*
X002650Y001600D01*
X002650Y001171D01*
X002635Y001115D01*
X002606Y001065D01*
X002565Y001024D01*
X002515Y000995D01*
X002459Y000980D01*
X002030Y000980D01*
X002030Y001600D01*
X002030Y001600D01*
X002030Y001600D01*
X002030Y002220D01*
X001601Y002220D01*
X001545Y002205D01*
X001495Y002176D01*
X001454Y002135D01*
X001410Y001916D02*
X000600Y001916D01*
X000600Y001678D02*
X001410Y001678D01*
X001410Y001600D02*
X001410Y001171D01*
X001425Y001115D01*
X001454Y001065D01*
X001495Y001024D01*
X001545Y000995D01*
X001601Y000980D01*
X002030Y000980D01*
X002030Y001600D01*
X001410Y001600D01*
X001410Y001439D02*
X000600Y001439D01*
X000600Y001201D02*
X001410Y001201D01*
X002030Y001201D02*
X002030Y001201D01*
X002030Y001439D02*
X002030Y001439D01*
X002030Y001678D02*
X002030Y001678D01*
X002030Y001916D02*
X002030Y001916D01*
X002030Y002155D02*
X002030Y002155D01*
X002587Y002155D02*
X003144Y002155D01*
X003115Y002143D02*
X002935Y001963D01*
X002838Y001727D01*
X002838Y001473D01*
X002935Y001237D01*
X003115Y001057D01*
X003351Y000960D01*
X003605Y000960D01*
X003840Y001057D01*
X004021Y001237D01*
X004118Y001473D01*
X004118Y001727D01*
X004021Y001963D01*
X003840Y002143D01*
X003605Y002240D01*
X003351Y002240D01*
X003115Y002143D01*
X002916Y001916D02*
X002650Y001916D01*
X002650Y001678D02*
X002838Y001678D01*
X002852Y001439D02*
X002650Y001439D01*
X002650Y001201D02*
X002972Y001201D01*
X003346Y000962D02*
X000600Y000962D01*
X000600Y003109D02*
X010733Y003109D01*
X010631Y003347D02*
X000600Y003347D01*
X000600Y004063D02*
X001351Y004063D01*
X001053Y004301D02*
X000600Y004301D01*
X000600Y004540D02*
X000960Y004540D01*
X000960Y004778D02*
X000600Y004778D01*
X000600Y005017D02*
X001059Y005017D01*
X001383Y005255D02*
X000600Y005255D01*
X000600Y005494D02*
X014960Y005494D01*
X014960Y005732D02*
X002240Y005732D01*
X002240Y005722D02*
X002240Y006618D01*
X002203Y006706D01*
X002136Y006773D01*
X002048Y006810D01*
X001152Y006810D01*
X001064Y006773D01*
X000997Y006706D01*
X000960Y006618D01*
X000960Y005722D01*
X000997Y005634D01*
X001064Y005567D01*
X001152Y005530D01*
X002048Y005530D01*
X002136Y005567D01*
X002203Y005634D01*
X002240Y005722D01*
X002240Y005971D02*
X014960Y005971D01*
X015237Y006505D02*
X015473Y006408D01*
X015727Y006408D01*
X015963Y006505D01*
X016143Y006685D01*
X016240Y006921D01*
X016240Y007175D01*
X016143Y007410D01*
X015963Y007591D01*
X015727Y007688D01*
X015473Y007688D01*
X015237Y007591D01*
X015057Y007410D01*
X014960Y007175D01*
X014960Y006921D01*
X015057Y006685D01*
X015237Y006505D01*
X015377Y006448D02*
X002240Y006448D01*
X002240Y006209D02*
X016600Y006209D01*
X016600Y005971D02*
X016240Y005971D01*
X016600Y006448D02*
X015823Y006448D01*
X016143Y006686D02*
X016600Y006686D01*
X016600Y006925D02*
X016240Y006925D01*
X016240Y007163D02*
X016600Y007163D01*
X016600Y007402D02*
X016146Y007402D01*
X015843Y007640D02*
X016600Y007640D01*
X016600Y007879D02*
X012679Y007879D01*
X012720Y007977D02*
X012626Y007749D01*
X012451Y007574D01*
X012223Y007480D01*
X011977Y007480D01*
X011749Y007574D01*
X011574Y007749D01*
X011480Y007977D01*
X011480Y008223D01*
X011574Y008451D01*
X011749Y008626D01*
X011977Y008720D01*
X012223Y008720D01*
X012451Y008626D01*
X012626Y008451D01*
X012720Y008223D01*
X012720Y007977D01*
X012720Y008117D02*
X016600Y008117D01*
X016600Y008356D02*
X012665Y008356D01*
X012749Y008574D02*
X012574Y008749D01*
X012480Y008977D01*
X012480Y009223D01*
X012574Y009451D01*
X012749Y009626D01*
X012977Y009720D01*
X013223Y009720D01*
X013451Y009626D01*
X013626Y009451D01*
X013720Y009223D01*
X013720Y008977D01*
X013626Y008749D01*
X013451Y008574D01*
X013223Y008480D01*
X012977Y008480D01*
X012749Y008574D01*
X012729Y008594D02*
X012483Y008594D01*
X012540Y008833D02*
X011637Y008833D01*
X011656Y008870D02*
X011685Y008959D01*
X011700Y009053D01*
X011700Y009100D01*
X011700Y009147D01*
X011685Y009240D01*
X011656Y009330D01*
X011613Y009414D01*
X011558Y009491D01*
X011491Y009558D01*
X011414Y009613D01*
X011330Y009656D01*
X011240Y009685D01*
X011147Y009700D01*
X011100Y009700D01*
X011100Y009100D01*
X011100Y009100D01*
X011700Y009100D01*
X011100Y009100D01*
X011100Y009100D01*
X011100Y009100D01*
X010500Y009100D01*
X010500Y009147D01*
X010515Y009240D01*
X010544Y009330D01*
X010587Y009414D01*
X010642Y009491D01*
X010709Y009558D01*
X010786Y009613D01*
X010870Y009656D01*
X010959Y009685D01*
X011053Y009700D01*
X011100Y009700D01*
X011100Y009100D01*
X011100Y008500D01*
X011147Y008500D01*
X011240Y008515D01*
X011330Y008544D01*
X011414Y008587D01*
X011491Y008642D01*
X011558Y008709D01*
X011613Y008786D01*
X011656Y008870D01*
X011700Y009071D02*
X012480Y009071D01*
X012516Y009310D02*
X011663Y009310D01*
X011749Y009574D02*
X011574Y009749D01*
X011480Y009977D01*
X011480Y010223D01*
X011574Y010451D01*
X011749Y010626D01*
X011977Y010720D01*
X012223Y010720D01*
X012451Y010626D01*
X012626Y010451D01*
X012720Y010223D01*
X012720Y009977D01*
X012626Y009749D01*
X012451Y009574D01*
X012223Y009480D01*
X011977Y009480D01*
X011749Y009574D01*
X011812Y009548D02*
X011501Y009548D01*
X011559Y009787D02*
X007916Y009787D01*
X007899Y009845D02*
X007974Y009900D01*
X008040Y009966D01*
X008095Y010041D01*
X008137Y010124D01*
X008165Y010212D01*
X008180Y010304D01*
X008180Y010350D01*
X008180Y010396D01*
X008165Y010488D01*
X008137Y010576D01*
X008095Y010659D01*
X008040Y010734D01*
X007974Y010800D01*
X007899Y010855D01*
X007871Y010869D01*
X008007Y011004D01*
X008100Y011229D01*
X008100Y011471D01*
X008007Y011696D01*
X007889Y011814D01*
X007936Y011833D01*
X008107Y012004D01*
X008200Y012229D01*
X008200Y012471D01*
X008107Y012696D01*
X007936Y012867D01*
X007889Y012886D01*
X008007Y013004D01*
X008100Y013229D01*
X008100Y013471D01*
X008007Y013696D01*
X007871Y013831D01*
X007899Y013845D01*
X007974Y013900D01*
X008040Y013966D01*
X008095Y014041D01*
X008137Y014124D01*
X008165Y014212D01*
X008180Y014304D01*
X008180Y014350D01*
X008180Y014396D01*
X008165Y014488D01*
X008137Y014576D01*
X008095Y014659D01*
X008040Y014734D01*
X007974Y014800D01*
X007899Y014855D01*
X007816Y014897D01*
X007728Y014925D01*
X007636Y014940D01*
X007590Y014940D01*
X007590Y014350D01*
X007590Y014350D01*
X008180Y014350D01*
X007590Y014350D01*
X007590Y014350D01*
X007590Y014350D01*
X007000Y014350D01*
X007000Y014396D01*
X007015Y014488D01*
X007043Y014576D01*
X007085Y014659D01*
X007140Y014734D01*
X007206Y014800D01*
X007281Y014855D01*
X007364Y014897D01*
X007452Y014925D01*
X007544Y014940D01*
X007590Y014940D01*
X007590Y014350D01*
X007000Y014350D01*
X007000Y014304D01*
X007015Y014212D01*
X007043Y014124D01*
X007085Y014041D01*
X007140Y013966D01*
X007206Y013900D01*
X007212Y013895D01*
X007144Y013867D01*
X006973Y013696D01*
X006880Y013471D01*
X006880Y013229D01*
X006973Y013004D01*
X007144Y012833D01*
X007191Y012814D01*
X007073Y012696D01*
X006980Y012471D01*
X006980Y012229D01*
X007073Y012004D01*
X007191Y011886D01*
X007144Y011867D01*
X006973Y011696D01*
X006880Y011471D01*
X006880Y011229D01*
X006973Y011004D01*
X007144Y010833D01*
X007212Y010805D01*
X007206Y010800D01*
X007140Y010734D01*
X007085Y010659D01*
X007043Y010576D01*
X007015Y010488D01*
X007000Y010396D01*
X007000Y010350D01*
X007590Y010350D01*
X008180Y010350D01*
X007590Y010350D01*
X007590Y010350D01*
X007590Y010350D01*
X007000Y010350D01*
X007000Y010304D01*
X007015Y010212D01*
X007043Y010124D01*
X007085Y010041D01*
X007140Y009966D01*
X007206Y009900D01*
X007212Y009895D01*
X007144Y009867D01*
X006973Y009696D01*
X006880Y009471D01*
X006880Y009229D01*
X006973Y009004D01*
X007144Y008833D01*
X007369Y008740D01*
X007611Y008740D01*
X007836Y008833D01*
X008007Y009004D01*
X008100Y009229D01*
X008100Y009471D01*
X008007Y009696D01*
X007871Y009831D01*
X007899Y009845D01*
X008083Y010025D02*
X011480Y010025D01*
X011497Y010264D02*
X008174Y010264D01*
X008161Y010502D02*
X011625Y010502D01*
X011100Y009548D02*
X011100Y009548D01*
X011100Y009310D02*
X011100Y009310D01*
X011100Y009100D02*
X010500Y009100D01*
X010500Y009053D01*
X010515Y008959D01*
X010544Y008870D01*
X010587Y008786D01*
X010642Y008709D01*
X010709Y008642D01*
X010786Y008587D01*
X010870Y008544D01*
X010959Y008515D01*
X011053Y008500D01*
X011100Y008500D01*
X011100Y009100D01*
X011100Y009100D01*
X011100Y009071D02*
X011100Y009071D01*
X011100Y008833D02*
X011100Y008833D01*
X011100Y008594D02*
X011100Y008594D01*
X011424Y008594D02*
X011717Y008594D01*
X011535Y008356D02*
X009654Y008356D01*
X009617Y008446D02*
X009710Y008221D01*
X009710Y007979D01*
X009617Y007754D01*
X009446Y007583D01*
X009221Y007490D01*
X008979Y007490D01*
X008754Y007583D01*
X008583Y007754D01*
X008490Y007979D01*
X008490Y008221D01*
X008583Y008446D01*
X008754Y008617D01*
X008979Y008710D01*
X009221Y008710D01*
X009446Y008617D01*
X009617Y008446D01*
X009469Y008594D02*
X010776Y008594D01*
X010563Y008833D02*
X007835Y008833D01*
X007721Y008710D02*
X007479Y008710D01*
X007254Y008617D01*
X007083Y008446D01*
X006990Y008221D01*
X006990Y007979D01*
X007083Y007754D01*
X007254Y007583D01*
X007479Y007490D01*
X007721Y007490D01*
X007946Y007583D01*
X008117Y007754D01*
X008210Y007979D01*
X008210Y008221D01*
X008117Y008446D01*
X007946Y008617D01*
X007721Y008710D01*
X007969Y008594D02*
X008731Y008594D01*
X008546Y008356D02*
X008154Y008356D01*
X008210Y008117D02*
X008490Y008117D01*
X008531Y007879D02*
X008169Y007879D01*
X008003Y007640D02*
X008697Y007640D01*
X009503Y007640D02*
X011683Y007640D01*
X011521Y007879D02*
X009669Y007879D01*
X009710Y008117D02*
X011480Y008117D01*
X010500Y009071D02*
X008035Y009071D01*
X008100Y009310D02*
X010537Y009310D01*
X010699Y009548D02*
X008068Y009548D01*
X008034Y010741D02*
X016600Y010741D01*
X016600Y010979D02*
X007982Y010979D01*
X008095Y011218D02*
X016600Y011218D01*
X016600Y011456D02*
X008100Y011456D01*
X008008Y011695D02*
X016600Y011695D01*
X016600Y011933D02*
X008036Y011933D01*
X008176Y012172D02*
X016439Y012172D01*
X016207Y012410D02*
X008200Y012410D01*
X008127Y012649D02*
X015974Y012649D01*
X015742Y012887D02*
X007890Y012887D01*
X008057Y013126D02*
X015509Y013126D01*
X015277Y013364D02*
X008100Y013364D01*
X008046Y013603D02*
X011642Y013603D01*
X011687Y013557D02*
X011923Y013460D01*
X012177Y013460D01*
X012413Y013557D01*
X012593Y013737D01*
X012613Y013788D01*
X012620Y013775D01*
X012677Y013696D01*
X012746Y013627D01*
X012825Y013570D01*
X012912Y013525D01*
X013005Y013495D01*
X013101Y013480D01*
X013150Y013480D01*
X013199Y013480D01*
X013295Y013495D01*
X013388Y013525D01*
X013475Y013570D01*
X013554Y013627D01*
X013623Y013696D01*
X013680Y013775D01*
X013725Y013862D01*
X013755Y013955D01*
X013770Y014051D01*
X013770Y014100D01*
X013150Y014100D01*
X013150Y014100D01*
X013150Y014100D01*
X013150Y013480D01*
X013150Y014100D01*
X013150Y014100D01*
X013150Y014720D01*
X013101Y014720D01*
X013005Y014705D01*
X012912Y014675D01*
X012825Y014630D01*
X012746Y014573D01*
X012677Y014504D01*
X012620Y014425D01*
X012613Y014412D01*
X012593Y014463D01*
X012413Y014643D01*
X012177Y014740D01*
X011923Y014740D01*
X011687Y014643D01*
X011507Y014463D01*
X011410Y014227D01*
X011410Y013973D01*
X011507Y013737D01*
X011687Y013557D01*
X011465Y013841D02*
X007891Y013841D01*
X008114Y014080D02*
X011410Y014080D01*
X011448Y014318D02*
X008180Y014318D01*
X008143Y014557D02*
X011601Y014557D01*
X011374Y015034D02*
X005826Y015034D01*
X006124Y015272D02*
X011076Y015272D01*
X010990Y015511D02*
X006210Y015511D01*
X006199Y015749D02*
X011001Y015749D01*
X011125Y015988D02*
X006075Y015988D01*
X006089Y016226D02*
X011111Y016226D01*
X010996Y016465D02*
X006204Y016465D01*
X006210Y016703D02*
X010990Y016703D01*
X011081Y016942D02*
X006119Y016942D01*
X006043Y017180D02*
X011157Y017180D01*
X011015Y017419D02*
X006185Y017419D01*
X006210Y017657D02*
X009993Y017657D01*
X009874Y017896D02*
X006138Y017896D01*
X005997Y018134D02*
X009865Y018134D01*
X009954Y018373D02*
X006166Y018373D01*
X006210Y018611D02*
X010039Y018611D01*
X009893Y018850D02*
X006157Y018850D01*
X005975Y019088D02*
X009865Y019088D01*
X009934Y019327D02*
X006147Y019327D01*
X006210Y019565D02*
X010155Y019565D01*
X010795Y019565D02*
X010990Y019565D01*
X011016Y019327D02*
X011053Y019327D01*
X011085Y019088D02*
X011225Y019088D01*
X011024Y019804D02*
X006176Y019804D01*
X006021Y020042D02*
X011179Y020042D01*
X011072Y020281D02*
X006128Y020281D01*
X006210Y020519D02*
X010990Y020519D01*
X011005Y020758D02*
X006195Y020758D01*
X006067Y020996D02*
X011133Y020996D01*
X011103Y021235D02*
X006097Y021235D01*
X006208Y021473D02*
X010992Y021473D01*
X010990Y021712D02*
X010887Y021712D01*
X011047Y021950D02*
X011087Y021950D01*
X011085Y022189D02*
X011149Y022189D01*
X012005Y023143D02*
X015143Y023143D01*
X015171Y023150D02*
X015115Y023135D01*
X015065Y023106D01*
X015024Y023065D01*
X014995Y023015D01*
X014980Y022959D01*
X014980Y022530D01*
X015600Y022530D01*
X015600Y022530D01*
X015600Y023150D01*
X016029Y023150D01*
X016085Y023135D01*
X016135Y023106D01*
X016176Y023065D01*
X016205Y023015D01*
X016220Y022959D01*
X016220Y022530D01*
X015600Y022530D01*
X015600Y022530D01*
X015600Y023150D01*
X015171Y023150D01*
X014980Y022904D02*
X012134Y022904D01*
X012210Y022666D02*
X014980Y022666D01*
X014980Y022530D02*
X014980Y022101D01*
X014995Y022045D01*
X015024Y021995D01*
X015065Y021954D01*
X015115Y021925D01*
X015171Y021910D01*
X015600Y021910D01*
X016029Y021910D01*
X016085Y021925D01*
X016135Y021954D01*
X016176Y021995D01*
X016205Y022045D01*
X016220Y022101D01*
X016220Y022530D01*
X015600Y022530D01*
X015600Y021910D01*
X015600Y022530D01*
X015600Y022530D01*
X015600Y022530D01*
X014980Y022530D01*
X014980Y022427D02*
X012189Y022427D01*
X012051Y022189D02*
X014980Y022189D01*
X015072Y021950D02*
X012113Y021950D01*
X012210Y021712D02*
X016600Y021712D01*
X016600Y021950D02*
X016128Y021950D01*
X016220Y022189D02*
X016600Y022189D01*
X016600Y022427D02*
X016220Y022427D01*
X016220Y022666D02*
X016600Y022666D01*
X016600Y022904D02*
X016220Y022904D01*
X016057Y023143D02*
X016600Y023143D01*
X016600Y023381D02*
X012170Y023381D01*
X012210Y023620D02*
X015123Y023620D01*
X015057Y023685D02*
X015237Y023505D01*
X015473Y023408D01*
X015727Y023408D01*
X015963Y023505D01*
X016143Y023685D01*
X016240Y023921D01*
X016240Y024175D01*
X016143Y024410D01*
X015963Y024591D01*
X015727Y024688D01*
X015473Y024688D01*
X015237Y024591D01*
X015057Y024410D01*
X014960Y024175D01*
X014960Y023921D01*
X015057Y023685D01*
X014986Y023858D02*
X012153Y023858D01*
X011966Y024097D02*
X014960Y024097D01*
X015026Y024335D02*
X012151Y024335D01*
X012210Y024574D02*
X015220Y024574D01*
X015152Y025390D02*
X015064Y025427D01*
X014997Y025494D01*
X014960Y025582D01*
X014960Y026478D01*
X014997Y026566D01*
X015064Y026633D01*
X015152Y026670D01*
X016048Y026670D01*
X016136Y026633D01*
X016203Y026566D01*
X016240Y026478D01*
X016240Y025582D01*
X016203Y025494D01*
X016136Y025427D01*
X016048Y025390D01*
X015152Y025390D01*
X014983Y025528D02*
X012186Y025528D01*
X012166Y025766D02*
X014960Y025766D01*
X014960Y026005D02*
X012030Y026005D01*
X012106Y026243D02*
X014960Y026243D01*
X014962Y026482D02*
X012210Y026482D01*
X012210Y026720D02*
X016600Y026720D01*
X016600Y026482D02*
X016238Y026482D01*
X016240Y026243D02*
X016600Y026243D01*
X016600Y026005D02*
X016240Y026005D01*
X016240Y025766D02*
X016600Y025766D01*
X016600Y025528D02*
X016217Y025528D01*
X016600Y025289D02*
X012103Y025289D01*
X012012Y025051D02*
X016600Y025051D01*
X016600Y024812D02*
X012172Y024812D01*
X011188Y025051D02*
X006012Y025051D01*
X006131Y025289D02*
X011097Y025289D01*
X011014Y025528D02*
X006210Y025528D01*
X006191Y025766D02*
X011034Y025766D01*
X011170Y026005D02*
X006058Y026005D01*
X006106Y026243D02*
X011094Y026243D01*
X010990Y026482D02*
X006210Y026482D01*
X006210Y026720D02*
X010990Y026720D01*
X011096Y026959D02*
X006104Y026959D01*
X006560Y027197D02*
X006640Y027197D01*
X007560Y027197D02*
X007640Y027197D01*
X008560Y027197D02*
X008640Y027197D01*
X009560Y027197D02*
X009640Y027197D01*
X010560Y027197D02*
X010640Y027197D01*
X011692Y027436D02*
X014990Y027436D01*
X014995Y027403D02*
X015025Y027310D01*
X015070Y027223D01*
X015127Y027144D01*
X015196Y027075D01*
X015275Y027018D01*
X015362Y026973D01*
X015455Y026943D01*
X015551Y026928D01*
X015600Y026928D01*
X015649Y026928D01*
X015745Y026943D01*
X015838Y026973D01*
X015925Y027018D01*
X016004Y027075D01*
X016073Y027144D01*
X016130Y027223D01*
X016175Y027310D01*
X016205Y027403D01*
X016220Y027499D01*
X016220Y027548D01*
X015600Y027548D01*
X015600Y027548D01*
X014980Y027548D01*
X014980Y027499D01*
X014995Y027403D01*
X015089Y027197D02*
X011753Y027197D01*
X012104Y026959D02*
X015408Y026959D01*
X015600Y026959D02*
X015600Y026959D01*
X015600Y026928D02*
X015600Y027548D01*
X015600Y027548D01*
X015600Y026928D01*
X015792Y026959D02*
X016600Y026959D01*
X016600Y027197D02*
X016111Y027197D01*
X016210Y027436D02*
X016600Y027436D01*
X016600Y027674D02*
X016208Y027674D01*
X016101Y027913D02*
X016600Y027913D01*
X015600Y027436D02*
X015600Y027436D01*
X015600Y027197D02*
X015600Y027197D01*
X014992Y027674D02*
X011710Y027674D01*
X011631Y027913D02*
X015099Y027913D01*
X015980Y024574D02*
X016600Y024574D01*
X016600Y024335D02*
X016174Y024335D01*
X016240Y024097D02*
X016600Y024097D01*
X016600Y023858D02*
X016214Y023858D01*
X016077Y023620D02*
X016600Y023620D01*
X015600Y023143D02*
X015600Y023143D01*
X015600Y022904D02*
X015600Y022904D01*
X015600Y022666D02*
X015600Y022666D01*
X015600Y022427D02*
X015600Y022427D01*
X015600Y022189D02*
X015600Y022189D01*
X015600Y021950D02*
X015600Y021950D01*
X015304Y020996D02*
X012067Y020996D01*
X012097Y021235D02*
X016600Y021235D01*
X016600Y021473D02*
X012208Y021473D01*
X012195Y020758D02*
X015045Y020758D01*
X014960Y020519D02*
X012210Y020519D01*
X012240Y019804D02*
X015430Y019804D01*
X015455Y019583D02*
X015362Y019553D01*
X015275Y019508D01*
X015196Y019451D01*
X015127Y019382D01*
X015070Y019303D01*
X015025Y019216D01*
X014995Y019123D01*
X014980Y019027D01*
X014980Y018978D01*
X015600Y018978D01*
X015600Y019598D01*
X015551Y019598D01*
X015455Y019583D01*
X015400Y019565D02*
X012210Y019565D01*
X012147Y019327D02*
X015087Y019327D01*
X014990Y019088D02*
X011975Y019088D01*
X012157Y018850D02*
X014993Y018850D01*
X014995Y018833D02*
X015025Y018740D01*
X015070Y018653D01*
X015127Y018574D01*
X015196Y018505D01*
X015275Y018448D01*
X015362Y018403D01*
X015455Y018373D01*
X015551Y018358D01*
X015600Y018358D01*
X015649Y018358D01*
X015745Y018373D01*
X015838Y018403D01*
X015925Y018448D01*
X016004Y018505D01*
X016073Y018574D01*
X016130Y018653D01*
X016175Y018740D01*
X016205Y018833D01*
X016220Y018929D01*
X016220Y018978D01*
X016220Y019027D01*
X016205Y019123D01*
X016175Y019216D01*
X016130Y019303D01*
X016073Y019382D01*
X016004Y019451D01*
X015925Y019508D01*
X015838Y019553D01*
X015745Y019583D01*
X015649Y019598D01*
X015600Y019598D01*
X015600Y018978D01*
X015600Y018978D01*
X015600Y018978D01*
X016220Y018978D01*
X015600Y018978D01*
X015600Y018978D01*
X014980Y018978D01*
X014980Y018929D01*
X014995Y018833D01*
X015100Y018611D02*
X012210Y018611D01*
X012166Y018373D02*
X015459Y018373D01*
X015600Y018373D02*
X015600Y018373D01*
X015600Y018358D02*
X015600Y018978D01*
X015600Y018978D01*
X015600Y018358D01*
X015741Y018373D02*
X016600Y018373D01*
X016600Y018611D02*
X016100Y018611D01*
X016207Y018850D02*
X016600Y018850D01*
X016600Y019088D02*
X016210Y019088D01*
X016113Y019327D02*
X016600Y019327D01*
X016600Y019565D02*
X015800Y019565D01*
X015600Y019565D02*
X015600Y019565D01*
X015600Y019327D02*
X015600Y019327D01*
X015600Y019088D02*
X015600Y019088D01*
X015600Y018850D02*
X015600Y018850D01*
X015600Y018611D02*
X015600Y018611D01*
X016048Y018170D02*
X015152Y018170D01*
X015064Y018133D01*
X014997Y018066D01*
X014960Y017978D01*
X014960Y017082D01*
X014997Y016994D01*
X015064Y016927D01*
X015152Y016890D01*
X016048Y016890D01*
X016136Y016927D01*
X016203Y016994D01*
X016240Y017082D01*
X016240Y017978D01*
X016203Y018066D01*
X016136Y018133D01*
X016048Y018170D01*
X016135Y018134D02*
X016600Y018134D01*
X016600Y017896D02*
X016240Y017896D01*
X016240Y017657D02*
X016600Y017657D01*
X016600Y017419D02*
X016240Y017419D01*
X016240Y017180D02*
X016600Y017180D01*
X016600Y016942D02*
X016151Y016942D01*
X016600Y016703D02*
X012210Y016703D01*
X012204Y016465D02*
X016600Y016465D01*
X016600Y016226D02*
X012427Y016226D01*
X012673Y015988D02*
X016600Y015988D01*
X016600Y015749D02*
X012919Y015749D01*
X012730Y014557D02*
X012499Y014557D01*
X012048Y014795D02*
X007979Y014795D01*
X007590Y014795D02*
X007590Y014795D01*
X007590Y014557D02*
X007590Y014557D01*
X007201Y014795D02*
X002145Y014795D01*
X002143Y014790D02*
X002240Y015025D01*
X002240Y015279D01*
X002143Y015515D01*
X001963Y015695D01*
X001727Y015792D01*
X001473Y015792D01*
X001237Y015695D01*
X001057Y015515D01*
X000960Y015279D01*
X000960Y015025D01*
X001057Y014790D01*
X001237Y014609D01*
X001473Y014512D01*
X001727Y014512D01*
X001963Y014609D01*
X002143Y014790D01*
X002240Y015034D02*
X005374Y015034D01*
X005076Y015272D02*
X002240Y015272D01*
X002144Y015511D02*
X004990Y015511D01*
X005001Y015749D02*
X001831Y015749D01*
X002048Y016030D02*
X002136Y016067D01*
X002203Y016134D01*
X002240Y016222D01*
X002240Y017118D01*
X002203Y017206D01*
X002136Y017273D01*
X002048Y017310D01*
X001152Y017310D01*
X001064Y017273D01*
X000997Y017206D01*
X000960Y017118D01*
X000960Y016222D01*
X000997Y016134D01*
X001064Y016067D01*
X001152Y016030D01*
X002048Y016030D01*
X002240Y016226D02*
X005111Y016226D01*
X005125Y015988D02*
X000600Y015988D01*
X000600Y016226D02*
X000960Y016226D01*
X000960Y016465D02*
X000600Y016465D01*
X000600Y016703D02*
X000960Y016703D01*
X000960Y016942D02*
X000600Y016942D01*
X000600Y017180D02*
X000986Y017180D01*
X000600Y017419D02*
X005015Y017419D01*
X004990Y017657D02*
X000600Y017657D01*
X000600Y017896D02*
X005062Y017896D01*
X005203Y018134D02*
X001987Y018134D01*
X001963Y018109D02*
X002143Y018290D01*
X002240Y018525D01*
X002240Y018779D01*
X002143Y019015D01*
X001963Y019195D01*
X001727Y019292D01*
X001473Y019292D01*
X001237Y019195D01*
X001057Y019015D01*
X000960Y018779D01*
X000960Y018525D01*
X001057Y018290D01*
X001237Y018109D01*
X001473Y018012D01*
X001727Y018012D01*
X001963Y018109D01*
X002177Y018373D02*
X005034Y018373D01*
X004990Y018611D02*
X002240Y018611D01*
X002211Y018850D02*
X005043Y018850D01*
X005225Y019088D02*
X002069Y019088D01*
X002048Y019530D02*
X002136Y019567D01*
X002203Y019634D01*
X002240Y019722D01*
X002240Y020618D01*
X002203Y020706D01*
X002136Y020773D01*
X002048Y020810D01*
X001152Y020810D01*
X001064Y020773D01*
X000997Y020706D01*
X000960Y020618D01*
X000960Y019722D01*
X000997Y019634D01*
X001064Y019567D01*
X001152Y019530D01*
X002048Y019530D01*
X002132Y019565D02*
X004990Y019565D01*
X005024Y019804D02*
X002240Y019804D01*
X002240Y020042D02*
X005179Y020042D01*
X005072Y020281D02*
X002240Y020281D01*
X002240Y020519D02*
X004990Y020519D01*
X005005Y020758D02*
X002152Y020758D01*
X001727Y021512D02*
X001963Y021609D01*
X002143Y021790D01*
X002240Y022025D01*
X002240Y022279D01*
X002143Y022515D01*
X001963Y022695D01*
X001727Y022792D01*
X001473Y022792D01*
X001237Y022695D01*
X001057Y022515D01*
X000960Y022279D01*
X000960Y022025D01*
X001057Y021790D01*
X001237Y021609D01*
X001473Y021512D01*
X001727Y021512D01*
X002065Y021712D02*
X004990Y021712D01*
X004992Y021473D02*
X000600Y021473D01*
X000600Y021235D02*
X005103Y021235D01*
X005133Y020996D02*
X000600Y020996D01*
X000600Y020758D02*
X001048Y020758D01*
X000960Y020519D02*
X000600Y020519D01*
X000600Y020281D02*
X000960Y020281D01*
X000960Y020042D02*
X000600Y020042D01*
X000600Y019804D02*
X000960Y019804D01*
X001068Y019565D02*
X000600Y019565D01*
X000600Y019327D02*
X005053Y019327D01*
X005157Y017180D02*
X002214Y017180D01*
X002240Y016942D02*
X005081Y016942D01*
X004990Y016703D02*
X002240Y016703D01*
X002240Y016465D02*
X004996Y016465D01*
X007037Y014557D02*
X001835Y014557D01*
X002048Y013810D02*
X001152Y013810D01*
X001064Y013773D01*
X000997Y013706D01*
X000960Y013618D01*
X000960Y012722D01*
X000997Y012634D01*
X001064Y012567D01*
X001152Y012530D01*
X002048Y012530D01*
X002136Y012567D01*
X002203Y012634D01*
X002240Y012722D01*
X002240Y013618D01*
X002203Y013706D01*
X002136Y013773D01*
X002048Y013810D01*
X002240Y013603D02*
X006934Y013603D01*
X006880Y013364D02*
X002240Y013364D01*
X002240Y013126D02*
X006923Y013126D01*
X007090Y012887D02*
X002240Y012887D01*
X002209Y012649D02*
X007053Y012649D01*
X006980Y012410D02*
X000600Y012410D01*
X000600Y012172D02*
X001214Y012172D01*
X001237Y012195D02*
X001057Y012015D01*
X000960Y011779D01*
X000960Y011525D01*
X001057Y011290D01*
X001237Y011109D01*
X001473Y011012D01*
X001727Y011012D01*
X001963Y011109D01*
X002143Y011290D01*
X002240Y011525D01*
X002240Y011779D01*
X002143Y012015D01*
X001963Y012195D01*
X001727Y012292D01*
X001473Y012292D01*
X001237Y012195D01*
X001024Y011933D02*
X000600Y011933D01*
X000600Y011695D02*
X000960Y011695D01*
X000988Y011456D02*
X000600Y011456D01*
X000600Y011218D02*
X001129Y011218D01*
X000600Y010979D02*
X006998Y010979D01*
X006885Y011218D02*
X002071Y011218D01*
X002212Y011456D02*
X006880Y011456D01*
X006972Y011695D02*
X002240Y011695D01*
X002176Y011933D02*
X007144Y011933D01*
X007004Y012172D02*
X001986Y012172D01*
X000991Y012649D02*
X000600Y012649D01*
X000600Y012887D02*
X000960Y012887D01*
X000960Y013126D02*
X000600Y013126D01*
X000600Y013364D02*
X000960Y013364D01*
X000960Y013603D02*
X000600Y013603D01*
X000600Y013841D02*
X007118Y013841D01*
X007066Y014080D02*
X000600Y014080D01*
X000600Y014318D02*
X007000Y014318D01*
X007146Y010741D02*
X000600Y010741D01*
X000600Y010502D02*
X007019Y010502D01*
X007006Y010264D02*
X002146Y010264D01*
X002136Y010273D02*
X002048Y010310D01*
X001152Y010310D01*
X001064Y010273D01*
X000997Y010206D01*
X000960Y010118D01*
X000960Y009222D01*
X000997Y009134D01*
X001064Y009067D01*
X001152Y009030D01*
X002048Y009030D01*
X002136Y009067D01*
X002203Y009134D01*
X002240Y009222D01*
X002240Y010118D01*
X002203Y010206D01*
X002136Y010273D01*
X002240Y010025D02*
X007097Y010025D01*
X007064Y009787D02*
X002240Y009787D01*
X002240Y009548D02*
X006912Y009548D01*
X006880Y009310D02*
X002240Y009310D01*
X002140Y009071D02*
X006945Y009071D01*
X007145Y008833D02*
X000600Y008833D01*
X000600Y009071D02*
X001060Y009071D01*
X000960Y009310D02*
X000600Y009310D01*
X000600Y009548D02*
X000960Y009548D01*
X000960Y009787D02*
X000600Y009787D01*
X000600Y010025D02*
X000960Y010025D01*
X001054Y010264D02*
X000600Y010264D01*
X001237Y008695D02*
X001057Y008515D01*
X000960Y008279D01*
X000960Y008025D01*
X001057Y007790D01*
X001237Y007609D01*
X001473Y007512D01*
X001727Y007512D01*
X001963Y007609D01*
X002143Y007790D01*
X002240Y008025D01*
X002240Y008279D01*
X002143Y008515D01*
X001963Y008695D01*
X001727Y008792D01*
X001473Y008792D01*
X001237Y008695D01*
X001137Y008594D02*
X000600Y008594D01*
X000600Y008356D02*
X000992Y008356D01*
X000960Y008117D02*
X000600Y008117D01*
X000600Y007879D02*
X001021Y007879D01*
X001207Y007640D02*
X000600Y007640D01*
X000600Y007402D02*
X015054Y007402D01*
X014960Y007163D02*
X000600Y007163D01*
X000600Y006925D02*
X014960Y006925D01*
X015057Y006686D02*
X002212Y006686D01*
X001993Y007640D02*
X005447Y007640D01*
X005504Y007583D02*
X005333Y007754D01*
X005240Y007979D01*
X005240Y008221D01*
X005333Y008446D01*
X005504Y008617D01*
X005729Y008710D01*
X005971Y008710D01*
X006196Y008617D01*
X006367Y008446D01*
X006460Y008221D01*
X006460Y007979D01*
X006367Y007754D01*
X006196Y007583D01*
X005971Y007490D01*
X005729Y007490D01*
X005504Y007583D01*
X005281Y007879D02*
X002179Y007879D01*
X002240Y008117D02*
X005240Y008117D01*
X005296Y008356D02*
X002208Y008356D01*
X002063Y008594D02*
X005481Y008594D01*
X006219Y008594D02*
X007231Y008594D01*
X007046Y008356D02*
X006404Y008356D01*
X006460Y008117D02*
X006990Y008117D01*
X007031Y007879D02*
X006419Y007879D01*
X006253Y007640D02*
X007197Y007640D01*
X009523Y004540D02*
X011211Y004540D01*
X010862Y004301D02*
X009677Y004301D01*
X009710Y004063D02*
X010705Y004063D01*
X010622Y003824D02*
X009646Y003824D01*
X009448Y003586D02*
X010589Y003586D01*
X011788Y002600D02*
X011788Y002600D01*
X011875Y002632D02*
X015062Y002632D01*
X014960Y002393D02*
X009113Y002393D01*
X009189Y002155D02*
X014960Y002155D01*
X014960Y001916D02*
X009161Y001916D01*
X009012Y001678D02*
X014960Y001678D01*
X015052Y001439D02*
X008710Y001439D01*
X008600Y002155D02*
X008600Y002155D01*
X008600Y002393D02*
X008600Y002393D01*
X008600Y002632D02*
X008600Y002632D01*
X008344Y002632D02*
X007911Y002632D01*
X007160Y001678D02*
X005566Y001678D01*
X005566Y001727D02*
X005566Y001473D01*
X005468Y001237D01*
X005288Y001057D01*
X005053Y000960D01*
X004799Y000960D01*
X004563Y001057D01*
X004383Y001237D01*
X004286Y001473D01*
X004286Y001727D01*
X004383Y001963D01*
X004563Y002143D01*
X004799Y002240D01*
X005053Y002240D01*
X005288Y002143D01*
X005468Y001963D01*
X005566Y001727D01*
X005488Y001916D02*
X007016Y001916D01*
X006990Y002155D02*
X005260Y002155D01*
X005552Y001439D02*
X007490Y001439D01*
X007502Y001201D02*
X005432Y001201D01*
X005058Y000962D02*
X007625Y000962D01*
X004794Y000962D02*
X003610Y000962D01*
X003984Y001201D02*
X004420Y001201D01*
X004300Y001439D02*
X004104Y001439D01*
X004118Y001678D02*
X004286Y001678D01*
X004364Y001916D02*
X004040Y001916D01*
X003812Y002155D02*
X004592Y002155D01*
X002141Y005017D02*
X014987Y005017D01*
X014960Y005255D02*
X001817Y005255D01*
X000960Y005732D02*
X000600Y005732D01*
X000600Y005971D02*
X000960Y005971D01*
X000960Y006209D02*
X000600Y006209D01*
X000600Y006448D02*
X000960Y006448D01*
X000988Y006686D02*
X000600Y006686D01*
X000600Y014557D02*
X001365Y014557D01*
X001055Y014795D02*
X000600Y014795D01*
X000600Y015034D02*
X000960Y015034D01*
X000960Y015272D02*
X000600Y015272D01*
X000600Y015511D02*
X001056Y015511D01*
X001369Y015749D02*
X000600Y015749D01*
X000600Y018134D02*
X001213Y018134D01*
X001023Y018373D02*
X000600Y018373D01*
X000600Y018611D02*
X000960Y018611D01*
X000989Y018850D02*
X000600Y018850D01*
X000600Y019088D02*
X001131Y019088D01*
X001135Y021712D02*
X000600Y021712D01*
X000600Y021950D02*
X000991Y021950D01*
X000960Y022189D02*
X000600Y022189D01*
X000600Y022427D02*
X001021Y022427D01*
X001208Y022666D02*
X000600Y022666D01*
X000600Y022904D02*
X005066Y022904D01*
X004990Y022666D02*
X001992Y022666D01*
X002179Y022427D02*
X005011Y022427D01*
X005149Y022189D02*
X002240Y022189D01*
X002209Y021950D02*
X005087Y021950D01*
X005195Y023143D02*
X002207Y023143D01*
X002203Y023134D02*
X002240Y023222D01*
X002240Y024118D01*
X002203Y024206D01*
X002136Y024273D01*
X002048Y024310D01*
X001152Y024310D01*
X001064Y024273D01*
X000997Y024206D01*
X000960Y024118D01*
X000960Y023222D01*
X000997Y023134D01*
X001064Y023067D01*
X001152Y023030D01*
X002048Y023030D01*
X002136Y023067D01*
X002203Y023134D01*
X002240Y023381D02*
X005030Y023381D01*
X004990Y023620D02*
X002240Y023620D01*
X002240Y023858D02*
X005047Y023858D01*
X005234Y024097D02*
X002240Y024097D01*
X001820Y025051D02*
X005188Y025051D01*
X005069Y025289D02*
X002142Y025289D01*
X002143Y025290D02*
X002240Y025525D01*
X002240Y025779D01*
X002143Y026015D01*
X001963Y026195D01*
X001727Y026292D01*
X001473Y026292D01*
X001237Y026195D01*
X001057Y026015D01*
X000960Y025779D01*
X000960Y025525D01*
X001057Y025290D01*
X001237Y025109D01*
X001473Y025012D01*
X001727Y025012D01*
X001963Y025109D01*
X002143Y025290D01*
X002240Y025528D02*
X004990Y025528D01*
X005009Y025766D02*
X002240Y025766D01*
X002147Y026005D02*
X005142Y026005D01*
X005094Y026243D02*
X001846Y026243D01*
X002048Y026530D02*
X002136Y026567D01*
X002203Y026634D01*
X002240Y026722D01*
X002240Y027618D01*
X002203Y027706D01*
X002136Y027773D01*
X002048Y027810D01*
X001152Y027810D01*
X001064Y027773D01*
X000997Y027706D01*
X000960Y027618D01*
X000960Y026722D01*
X000997Y026634D01*
X001064Y026567D01*
X001152Y026530D01*
X002048Y026530D01*
X002239Y026720D02*
X004990Y026720D01*
X004990Y026482D02*
X000600Y026482D01*
X000600Y026720D02*
X000961Y026720D01*
X000960Y026959D02*
X000600Y026959D01*
X000600Y027197D02*
X000960Y027197D01*
X000960Y027436D02*
X000600Y027436D01*
X000600Y027674D02*
X000983Y027674D01*
X000600Y027913D02*
X005569Y027913D01*
X005490Y027674D02*
X002217Y027674D01*
X002240Y027436D02*
X005508Y027436D01*
X005447Y027197D02*
X002240Y027197D01*
X002240Y026959D02*
X005096Y026959D01*
X005028Y024812D02*
X000600Y024812D01*
X000600Y024574D02*
X004990Y024574D01*
X005049Y024335D02*
X000600Y024335D01*
X000600Y024097D02*
X000960Y024097D01*
X000960Y023858D02*
X000600Y023858D01*
X000600Y023620D02*
X000960Y023620D01*
X000960Y023381D02*
X000600Y023381D01*
X000600Y023143D02*
X000993Y023143D01*
X001380Y025051D02*
X000600Y025051D01*
X000600Y025289D02*
X001058Y025289D01*
X000960Y025528D02*
X000600Y025528D01*
X000600Y025766D02*
X000960Y025766D01*
X001053Y026005D02*
X000600Y026005D01*
X000600Y026243D02*
X001354Y026243D01*
X005966Y024097D02*
X007225Y024097D01*
X007146Y023961D02*
X007324Y024269D01*
X007324Y024269D01*
X007324Y024269D01*
X007597Y024498D01*
X007597Y024498D01*
X007932Y024620D01*
X008288Y024620D01*
X008623Y024498D01*
X008623Y024498D01*
X008896Y024269D01*
X008896Y024269D01*
X009074Y023961D01*
X009074Y023961D01*
X009136Y023610D01*
X009136Y023610D01*
X009074Y023259D01*
X009074Y023259D01*
X008896Y022951D01*
X008896Y022951D01*
X008896Y022951D01*
X008623Y022722D01*
X008623Y022722D01*
X008288Y022600D01*
X008054Y022600D01*
X007932Y022600D01*
X007597Y022722D01*
X007597Y022722D01*
X007324Y022951D01*
X007324Y022951D01*
X007146Y023259D01*
X007146Y023259D01*
X007084Y023610D01*
X007084Y023610D01*
X007146Y023961D01*
X007146Y023961D01*
X007128Y023858D02*
X006153Y023858D01*
X006210Y023620D02*
X007086Y023620D01*
X007125Y023381D02*
X006170Y023381D01*
X006005Y023143D02*
X007214Y023143D01*
X007380Y022904D02*
X006134Y022904D01*
X006210Y022666D02*
X007752Y022666D01*
X008468Y022666D02*
X010109Y022666D01*
X009924Y022427D02*
X006189Y022427D01*
X006051Y022189D02*
X009865Y022189D01*
X009903Y021950D02*
X006113Y021950D01*
X006210Y021712D02*
X010063Y021712D01*
X009922Y022904D02*
X008840Y022904D01*
X009006Y023143D02*
X009865Y023143D01*
X009905Y023381D02*
X009095Y023381D01*
X009134Y023620D02*
X010069Y023620D01*
X010881Y023620D02*
X010990Y023620D01*
X011047Y023858D02*
X009092Y023858D01*
X008995Y024097D02*
X011234Y024097D01*
X011049Y024335D02*
X008817Y024335D01*
X008416Y024574D02*
X010990Y024574D01*
X011028Y024812D02*
X006172Y024812D01*
X006210Y024574D02*
X007804Y024574D01*
X007403Y024335D02*
X006151Y024335D01*
X010957Y017657D02*
X010990Y017657D01*
X011997Y018134D02*
X015065Y018134D01*
X014960Y017896D02*
X012138Y017896D01*
X012210Y017657D02*
X014960Y017657D01*
X014960Y017419D02*
X012185Y017419D01*
X012043Y017180D02*
X014960Y017180D01*
X015049Y016942D02*
X012119Y016942D01*
X013150Y014557D02*
X013150Y014557D01*
X013150Y014318D02*
X013150Y014318D01*
X013150Y014080D02*
X013150Y014080D01*
X013150Y013841D02*
X013150Y013841D01*
X013150Y013603D02*
X013150Y013603D01*
X013520Y013603D02*
X015044Y013603D01*
X014812Y013841D02*
X013714Y013841D01*
X013770Y014080D02*
X014579Y014080D01*
X014347Y014318D02*
X013731Y014318D01*
X013939Y014557D02*
X014114Y014557D01*
X014431Y015034D02*
X016600Y015034D01*
X016600Y015272D02*
X014199Y015272D01*
X014039Y015436D02*
X014039Y015436D01*
X013966Y015511D02*
X016600Y015511D01*
X016600Y014795D02*
X014664Y014795D01*
X014896Y014557D02*
X016600Y014557D01*
X016600Y014318D02*
X015129Y014318D01*
X015361Y014080D02*
X016600Y014080D01*
X016600Y013841D02*
X015594Y013841D01*
X015826Y013603D02*
X016600Y013603D01*
X016600Y013364D02*
X016059Y013364D01*
X016291Y013126D02*
X016600Y013126D01*
X016600Y012887D02*
X016524Y012887D01*
X016600Y010502D02*
X012575Y010502D01*
X012703Y010264D02*
X016600Y010264D01*
X016600Y010025D02*
X012720Y010025D01*
X012641Y009787D02*
X016600Y009787D01*
X016600Y009548D02*
X013529Y009548D01*
X013684Y009310D02*
X016600Y009310D01*
X016600Y009071D02*
X013720Y009071D01*
X013660Y008833D02*
X016600Y008833D01*
X016600Y008594D02*
X013471Y008594D01*
X012671Y009548D02*
X012388Y009548D01*
X012517Y007640D02*
X015357Y007640D01*
X016240Y005255D02*
X016600Y005255D01*
X016600Y005017D02*
X016213Y005017D01*
X012780Y013603D02*
X012458Y013603D01*
X013859Y015559D02*
X013859Y015559D01*
X013859Y015559D01*
X015770Y019804D02*
X016600Y019804D01*
X016600Y020042D02*
X016121Y020042D01*
X016233Y020281D02*
X016600Y020281D01*
X016600Y020519D02*
X016240Y020519D01*
X016155Y020758D02*
X016600Y020758D01*
X016600Y020996D02*
X015896Y020996D01*
D15*
X013660Y014900D03*
X004220Y019140D03*
X003820Y023860D03*
X003580Y013380D03*
X003850Y006600D03*
D16*
X012140Y015060D02*
X011600Y015600D01*
X012140Y015060D02*
X013500Y015060D01*
X013660Y014900D01*
X013800Y015280D02*
X016890Y012110D01*
X016890Y005550D01*
X015660Y005540D01*
X015600Y005530D01*
X013800Y015280D02*
X012990Y015290D01*
X011660Y016580D01*
X011600Y016600D01*
X011600Y019600D02*
X011660Y019620D01*
X012220Y020180D01*
X015180Y020180D01*
X015420Y020420D01*
X015580Y020420D01*
X015600Y020426D01*
M02*
