%
M48
M72
T01C0.0200
T02C0.0320
T03C0.0354
T04C0.0400
T05C0.0433
T06C0.0472
T07C0.1200
%
T01
X3197Y12397
X3277Y16397
X3197Y20397
X3197Y23277
X13437Y15677
T02
X8057Y2557
X7557Y1807
X7057Y2557
T03
X7057Y4557
X8557Y4557
X8557Y8557
X7057Y8557
X5307Y8557
X5307Y4557
T04
X6947Y9807
X7047Y10807
X6947Y11807
X7047Y12807
X6947Y13807
X7047Y14807
X5057Y16057
X5057Y17057
X5057Y18057
X5057Y19057
X5057Y20057
X5057Y21057
X5057Y22057
X5057Y23057
X5057Y24057
X5057Y25057
X5057Y26057
X5057Y27057
X5557Y28057
X6557Y28057
X7557Y28057
X8557Y28057
X9557Y28057
X10557Y28057
X11057Y27057
X11057Y26057
X11057Y25057
X11057Y24057
X11057Y23057
X11057Y22057
X11057Y21057
X11057Y20057
X11057Y19057
X11057Y18057
X11057Y17057
X11057Y16057
X11507Y14557
X12607Y14557
X9932Y18495
X9932Y19495
X9932Y22620
X9932Y23620
T05
X11557Y10557
X10557Y9557
X11557Y8557
X12557Y9557
T06
X1487Y1557
X2935Y1557
X4383Y1557
X1557Y5109
X1557Y6627
X1557Y8609
X1557Y10127
X1557Y12109
X1557Y13627
X1557Y15609
X1557Y17127
X1557Y19109
X1557Y20627
X1557Y22609
X1557Y24127
X1557Y26109
X1557Y27627
X15057Y28005
X15057Y26487
X15057Y24505
X15057Y22987
X15057Y20883
X15057Y19435
X15057Y17987
X15057Y7505
X15057Y5987
X15057Y4005
X15057Y2487
T07
X11567Y4067
X7567Y25067
M30
