G75*
%MOIN*%
%OFA0B0*%
%FSLAX24Y24*%
%IPPOS*%
%LPD*%
%AMOC8*
5,1,8,0,0,1.08239X$1,22.5*
%
%ADD10R,0.0800X0.0800*%
%ADD11C,0.0800*%
%ADD12C,0.0740*%
%ADD13C,0.0760*%
%ADD14C,0.0240*%
%ADD15C,0.0400*%
%ADD16C,0.0080*%
D10*
X001487Y001557D03*
X001557Y006627D03*
X001557Y010127D03*
X001557Y013627D03*
X001557Y017127D03*
X001557Y020627D03*
X001557Y024127D03*
X001557Y027627D03*
X015057Y026487D03*
X015057Y022987D03*
X015057Y017987D03*
X015057Y005987D03*
X015057Y002487D03*
D11*
X015057Y004005D03*
X015057Y007505D03*
X012607Y014557D03*
X011507Y014557D03*
X015057Y019435D03*
X015057Y020883D03*
X015057Y024505D03*
X015057Y028005D03*
X001557Y026109D03*
X001557Y022609D03*
X001557Y019109D03*
X001557Y015609D03*
X001557Y012109D03*
X001557Y008609D03*
X001557Y005109D03*
X002935Y001557D03*
X004383Y001557D03*
D12*
X005307Y004557D03*
X007057Y004557D03*
X007057Y002557D03*
X007557Y001807D03*
X008057Y002557D03*
X008557Y004557D03*
X008557Y008557D03*
X007057Y008557D03*
X006947Y009807D03*
X007047Y010807D03*
X006947Y011807D03*
X007047Y012807D03*
X006947Y013807D03*
X007047Y014807D03*
X005057Y016057D03*
X005057Y017057D03*
X005057Y018057D03*
X005057Y019057D03*
X005057Y020057D03*
X005057Y021057D03*
X005057Y022057D03*
X005057Y023057D03*
X005057Y024057D03*
X005057Y025057D03*
X005057Y026057D03*
X005057Y027057D03*
X005557Y028057D03*
X006557Y028057D03*
X007557Y028057D03*
X008557Y028057D03*
X009557Y028057D03*
X010557Y028057D03*
X011057Y027057D03*
X011057Y026057D03*
X011057Y025057D03*
X011057Y024057D03*
X011057Y023057D03*
X011057Y022057D03*
X011057Y021057D03*
X011057Y020057D03*
X011057Y019057D03*
X011057Y018057D03*
X011057Y017057D03*
X011057Y016057D03*
X009932Y018495D03*
X009932Y019495D03*
X009932Y022620D03*
X009932Y023620D03*
X005307Y008557D03*
D13*
X010557Y009557D03*
X011557Y008557D03*
X012557Y009557D03*
X011557Y010557D03*
D14*
X001057Y004704D02*
X001057Y002177D01*
X001058Y002177D01*
X001487Y002177D01*
X001487Y001557D01*
X001487Y001557D01*
X001487Y001557D01*
X002107Y001557D01*
X002107Y001128D01*
X002092Y001072D01*
X002084Y001057D01*
X002530Y001057D01*
X002393Y001195D01*
X002295Y001430D01*
X002295Y001685D01*
X002393Y001920D01*
X002573Y002100D01*
X002808Y002197D01*
X003063Y002197D01*
X003298Y002100D01*
X003478Y001920D01*
X003575Y001685D01*
X003575Y001430D01*
X003478Y001195D01*
X003340Y001057D01*
X003978Y001057D01*
X003841Y001195D01*
X003743Y001430D01*
X003743Y001685D01*
X003841Y001920D01*
X004021Y002100D01*
X004256Y002197D01*
X004511Y002197D01*
X004746Y002100D01*
X004926Y001920D01*
X005023Y001685D01*
X005023Y001430D01*
X004926Y001195D01*
X004788Y001057D01*
X015557Y001057D01*
X015557Y001869D01*
X015505Y001847D01*
X014610Y001847D01*
X014521Y001884D01*
X014454Y001951D01*
X014417Y002040D01*
X014417Y002935D01*
X014454Y003023D01*
X014521Y003091D01*
X014610Y003127D01*
X015505Y003127D01*
X015557Y003106D01*
X015557Y003639D01*
X015530Y003601D01*
X015461Y003532D01*
X015382Y003475D01*
X015295Y003431D01*
X015203Y003401D01*
X015106Y003385D01*
X015057Y003385D01*
X015057Y004005D01*
X014437Y004005D01*
X014437Y003956D01*
X014453Y003860D01*
X014483Y003767D01*
X014527Y003680D01*
X014584Y003601D01*
X014653Y003532D01*
X014732Y003475D01*
X014819Y003431D01*
X014912Y003401D01*
X015009Y003385D01*
X015057Y003385D01*
X015057Y004005D01*
X015057Y004005D01*
X015057Y004005D01*
X014437Y004005D01*
X014437Y004054D01*
X014453Y004150D01*
X014483Y004243D01*
X014527Y004330D01*
X014584Y004409D01*
X014653Y004478D01*
X014732Y004536D01*
X014819Y004580D01*
X014912Y004610D01*
X015009Y004625D01*
X015057Y004625D01*
X015057Y004005D01*
X015057Y004005D01*
X015057Y004625D01*
X015106Y004625D01*
X015203Y004610D01*
X015295Y004580D01*
X015382Y004536D01*
X015461Y004478D01*
X015530Y004409D01*
X015557Y004372D01*
X015557Y005369D01*
X015505Y005347D01*
X014610Y005347D01*
X014521Y005384D01*
X014454Y005451D01*
X014417Y005540D01*
X014417Y006435D01*
X014454Y006523D01*
X014521Y006591D01*
X014610Y006627D01*
X015505Y006627D01*
X015557Y006606D01*
X015557Y007100D01*
X015420Y006963D01*
X015185Y006865D01*
X014930Y006865D01*
X014695Y006963D01*
X014515Y007143D01*
X014417Y007378D01*
X014417Y007633D01*
X014515Y007868D01*
X014695Y008048D01*
X014930Y008145D01*
X015185Y008145D01*
X015420Y008048D01*
X015557Y007910D01*
X015557Y012521D01*
X012841Y015237D01*
X011542Y015237D01*
X011439Y015280D01*
X011360Y015359D01*
X011244Y015474D01*
X011179Y015447D01*
X010936Y015447D01*
X010712Y015540D01*
X010540Y015712D01*
X010447Y015936D01*
X010447Y016179D01*
X010540Y016403D01*
X010695Y016557D01*
X010540Y016712D01*
X010447Y016936D01*
X010447Y017179D01*
X010540Y017403D01*
X010695Y017557D01*
X010540Y017712D01*
X010447Y017936D01*
X010447Y018147D01*
X010278Y017978D01*
X010054Y017885D01*
X009811Y017885D01*
X009587Y017978D01*
X009415Y018149D01*
X009322Y018373D01*
X009322Y018616D01*
X009415Y018840D01*
X009570Y018995D01*
X009415Y019149D01*
X009322Y019373D01*
X009322Y019616D01*
X009415Y019840D01*
X009587Y020012D01*
X009811Y020105D01*
X010054Y020105D01*
X010278Y020012D01*
X010449Y019840D01*
X010542Y019616D01*
X010542Y019405D01*
X010695Y019557D01*
X010540Y019712D01*
X010447Y019936D01*
X010447Y020179D01*
X010540Y020403D01*
X010695Y020557D01*
X010540Y020712D01*
X010447Y020936D01*
X010447Y021179D01*
X010540Y021403D01*
X010695Y021557D01*
X010540Y021712D01*
X010447Y021936D01*
X010447Y022179D01*
X010540Y022403D01*
X010695Y022557D01*
X010542Y022710D01*
X010542Y022498D01*
X010449Y022274D01*
X010278Y022103D01*
X010054Y022010D01*
X009811Y022010D01*
X009587Y022103D01*
X009415Y022274D01*
X009322Y022498D01*
X009322Y022741D01*
X009415Y022965D01*
X009570Y023120D01*
X009415Y023274D01*
X009322Y023498D01*
X009322Y023741D01*
X009415Y023965D01*
X009587Y024137D01*
X009811Y024230D01*
X010054Y024230D01*
X010278Y024137D01*
X010447Y023967D01*
X010447Y024179D01*
X010540Y024403D01*
X010695Y024557D01*
X010540Y024712D01*
X010447Y024936D01*
X010447Y025179D01*
X010540Y025403D01*
X010712Y025574D01*
X010716Y025576D01*
X010673Y025607D01*
X010607Y025673D01*
X010553Y025748D01*
X010511Y025831D01*
X010482Y025919D01*
X010467Y026011D01*
X010467Y026057D01*
X011057Y026057D01*
X011057Y026057D01*
X010467Y026057D01*
X010467Y026104D01*
X010482Y026195D01*
X010511Y026284D01*
X010553Y026367D01*
X010607Y026442D01*
X010673Y026507D01*
X010716Y026539D01*
X010712Y026540D01*
X010540Y026712D01*
X010447Y026936D01*
X010447Y027179D01*
X010540Y027403D01*
X010585Y027447D01*
X010436Y027447D01*
X010212Y027540D01*
X010057Y027695D01*
X009903Y027540D01*
X009679Y027447D01*
X009436Y027447D01*
X009212Y027540D01*
X009057Y027695D01*
X008903Y027540D01*
X008679Y027447D01*
X008436Y027447D01*
X008212Y027540D01*
X008057Y027695D01*
X007903Y027540D01*
X007679Y027447D01*
X007436Y027447D01*
X007212Y027540D01*
X007057Y027695D01*
X006903Y027540D01*
X006679Y027447D01*
X006436Y027447D01*
X006212Y027540D01*
X006057Y027695D01*
X005903Y027540D01*
X005679Y027447D01*
X005530Y027447D01*
X005574Y027403D01*
X005667Y027179D01*
X005667Y026936D01*
X005574Y026712D01*
X005420Y026557D01*
X005574Y026403D01*
X005667Y026179D01*
X005667Y025936D01*
X005574Y025712D01*
X005420Y025557D01*
X005574Y025403D01*
X005667Y025179D01*
X005667Y024936D01*
X005574Y024712D01*
X005420Y024557D01*
X005574Y024403D01*
X005667Y024179D01*
X005667Y023936D01*
X005574Y023712D01*
X005420Y023557D01*
X005574Y023403D01*
X005667Y023179D01*
X005667Y022936D01*
X005574Y022712D01*
X005420Y022557D01*
X005574Y022403D01*
X005667Y022179D01*
X005667Y021936D01*
X005574Y021712D01*
X005420Y021557D01*
X005574Y021403D01*
X005667Y021179D01*
X005667Y020936D01*
X005574Y020712D01*
X005420Y020557D01*
X005574Y020403D01*
X005667Y020179D01*
X005667Y019936D01*
X005574Y019712D01*
X005420Y019557D01*
X005574Y019403D01*
X005667Y019179D01*
X005667Y018936D01*
X005574Y018712D01*
X005420Y018557D01*
X005574Y018403D01*
X005667Y018179D01*
X005667Y017936D01*
X005574Y017712D01*
X005420Y017557D01*
X005574Y017403D01*
X005667Y017179D01*
X005667Y016936D01*
X005574Y016712D01*
X005420Y016557D01*
X005574Y016403D01*
X005667Y016179D01*
X005667Y015936D01*
X005574Y015712D01*
X005403Y015540D01*
X005179Y015447D01*
X004936Y015447D01*
X004712Y015540D01*
X004540Y015712D01*
X004447Y015936D01*
X004447Y016179D01*
X004540Y016403D01*
X004695Y016557D01*
X004540Y016712D01*
X004447Y016936D01*
X004447Y017179D01*
X004540Y017403D01*
X004695Y017557D01*
X004540Y017712D01*
X004447Y017936D01*
X004447Y018179D01*
X004540Y018403D01*
X004695Y018557D01*
X004540Y018712D01*
X004447Y018936D01*
X004447Y019179D01*
X004540Y019403D01*
X004695Y019557D01*
X004540Y019712D01*
X004447Y019936D01*
X004447Y020179D01*
X004540Y020403D01*
X004695Y020557D01*
X004540Y020712D01*
X004447Y020936D01*
X004447Y021179D01*
X004540Y021403D01*
X004695Y021557D01*
X004540Y021712D01*
X004447Y021936D01*
X004447Y022179D01*
X004540Y022403D01*
X004695Y022557D01*
X004540Y022712D01*
X004447Y022936D01*
X004447Y023179D01*
X004540Y023403D01*
X004695Y023557D01*
X004540Y023712D01*
X004447Y023936D01*
X004447Y024179D01*
X004540Y024403D01*
X004695Y024557D01*
X004540Y024712D01*
X004447Y024936D01*
X004447Y025179D01*
X004540Y025403D01*
X004695Y025557D01*
X004540Y025712D01*
X004447Y025936D01*
X004447Y026179D01*
X004540Y026403D01*
X004695Y026557D01*
X004540Y026712D01*
X004447Y026936D01*
X004447Y027179D01*
X004540Y027403D01*
X004712Y027574D01*
X004936Y027667D01*
X005085Y027667D01*
X005040Y027712D01*
X004947Y027936D01*
X004947Y028179D01*
X005040Y028403D01*
X005195Y028557D01*
X001057Y028557D01*
X001057Y028246D01*
X001110Y028267D01*
X002005Y028267D01*
X002093Y028231D01*
X002161Y028163D01*
X002197Y028075D01*
X002197Y027180D01*
X002161Y027091D01*
X002093Y027024D01*
X002005Y026987D01*
X001110Y026987D01*
X001057Y027009D01*
X001057Y026514D01*
X001195Y026652D01*
X001430Y026749D01*
X001685Y026749D01*
X001920Y026652D01*
X002100Y026472D01*
X002197Y026237D01*
X002197Y025982D01*
X002100Y025747D01*
X001920Y025567D01*
X001685Y025469D01*
X001430Y025469D01*
X001195Y025567D01*
X001057Y025704D01*
X001057Y024746D01*
X001110Y024767D01*
X002005Y024767D01*
X002093Y024731D01*
X002161Y024663D01*
X002197Y024575D01*
X002197Y023680D01*
X002161Y023591D01*
X002093Y023524D01*
X002005Y023487D01*
X001110Y023487D01*
X001057Y023509D01*
X001057Y023014D01*
X001195Y023152D01*
X001430Y023249D01*
X001685Y023249D01*
X001920Y023152D01*
X002100Y022972D01*
X002197Y022737D01*
X002197Y022482D01*
X002100Y022247D01*
X001920Y022067D01*
X001685Y021969D01*
X001430Y021969D01*
X001195Y022067D01*
X001057Y022204D01*
X001057Y021246D01*
X001110Y021267D01*
X002005Y021267D01*
X002093Y021231D01*
X002161Y021163D01*
X002197Y021075D01*
X002197Y020180D01*
X002161Y020091D01*
X002093Y020024D01*
X002005Y019987D01*
X001110Y019987D01*
X001057Y020009D01*
X001057Y019514D01*
X001195Y019652D01*
X001430Y019749D01*
X001685Y019749D01*
X001920Y019652D01*
X002100Y019472D01*
X002197Y019237D01*
X002197Y018982D01*
X002100Y018747D01*
X001920Y018567D01*
X001685Y018469D01*
X001430Y018469D01*
X001195Y018567D01*
X001057Y018704D01*
X001057Y017746D01*
X001110Y017767D01*
X002005Y017767D01*
X002093Y017731D01*
X002161Y017663D01*
X002197Y017575D01*
X002197Y016680D01*
X002161Y016591D01*
X002093Y016524D01*
X002005Y016487D01*
X001110Y016487D01*
X001057Y016509D01*
X001057Y016014D01*
X001195Y016152D01*
X001430Y016249D01*
X001685Y016249D01*
X001920Y016152D01*
X002100Y015972D01*
X002197Y015737D01*
X002197Y015482D01*
X002100Y015247D01*
X001920Y015067D01*
X001685Y014969D01*
X001430Y014969D01*
X001195Y015067D01*
X001057Y015204D01*
X001057Y014246D01*
X001110Y014267D01*
X002005Y014267D01*
X002093Y014231D01*
X002161Y014163D01*
X002197Y014075D01*
X002197Y013180D01*
X002161Y013091D01*
X002093Y013024D01*
X002005Y012987D01*
X001110Y012987D01*
X001057Y013009D01*
X001057Y012514D01*
X001195Y012652D01*
X001430Y012749D01*
X001685Y012749D01*
X001920Y012652D01*
X002100Y012472D01*
X002197Y012237D01*
X002197Y011982D01*
X002100Y011747D01*
X001920Y011567D01*
X001685Y011469D01*
X001430Y011469D01*
X001195Y011567D01*
X001057Y011704D01*
X001057Y010746D01*
X001110Y010767D01*
X002005Y010767D01*
X002093Y010731D01*
X002147Y010677D01*
X004968Y010677D01*
X006172Y011881D01*
X006172Y011881D01*
X006273Y011983D01*
X006377Y012026D01*
X006430Y012153D01*
X006602Y012324D01*
X006648Y012344D01*
X006530Y012462D01*
X006437Y012686D01*
X006437Y012929D01*
X006530Y013153D01*
X006648Y013271D01*
X006602Y013290D01*
X006430Y013462D01*
X006337Y013686D01*
X006337Y013929D01*
X006430Y014153D01*
X006602Y014324D01*
X006670Y014353D01*
X006663Y014357D01*
X006597Y014423D01*
X006543Y014498D01*
X006501Y014581D01*
X006472Y014669D01*
X006457Y014761D01*
X006457Y014807D01*
X007047Y014807D01*
X007047Y014807D01*
X006457Y014807D01*
X006457Y014854D01*
X006472Y014945D01*
X006501Y015034D01*
X006543Y015117D01*
X006597Y015192D01*
X006663Y015257D01*
X006738Y015312D01*
X006821Y015354D01*
X006909Y015383D01*
X007001Y015397D01*
X007047Y015397D01*
X007047Y014807D01*
X007047Y014807D01*
X007047Y014807D01*
X007637Y014807D01*
X007637Y014761D01*
X007623Y014669D01*
X007594Y014581D01*
X007552Y014498D01*
X007497Y014423D01*
X007432Y014357D01*
X007357Y014303D01*
X007329Y014289D01*
X007464Y014153D01*
X007557Y013929D01*
X007557Y013686D01*
X007464Y013462D01*
X007346Y013344D01*
X007393Y013324D01*
X007564Y013153D01*
X007657Y012929D01*
X007657Y012686D01*
X007564Y012462D01*
X007393Y012290D01*
X007346Y012271D01*
X007464Y012153D01*
X007557Y011929D01*
X007557Y011686D01*
X007464Y011462D01*
X007329Y011326D01*
X007357Y011312D01*
X007432Y011257D01*
X007497Y011192D01*
X007552Y011117D01*
X007594Y011034D01*
X007623Y010945D01*
X007637Y010854D01*
X007637Y010807D01*
X007047Y010807D01*
X006457Y010807D01*
X006457Y010761D01*
X006472Y010669D01*
X006501Y010581D01*
X006543Y010498D01*
X006597Y010423D01*
X006663Y010357D01*
X006670Y010353D01*
X006602Y010324D01*
X006430Y010153D01*
X006337Y009929D01*
X006337Y009686D01*
X006430Y009462D01*
X006602Y009290D01*
X006826Y009197D01*
X007069Y009197D01*
X007293Y009290D01*
X007464Y009462D01*
X007557Y009686D01*
X007557Y009929D01*
X007464Y010153D01*
X007329Y010289D01*
X007357Y010303D01*
X007432Y010357D01*
X007497Y010423D01*
X007552Y010498D01*
X007594Y010581D01*
X007623Y010669D01*
X007637Y010761D01*
X007637Y010807D01*
X007047Y010807D01*
X007047Y010807D01*
X006457Y010807D01*
X006457Y010854D01*
X006472Y010945D01*
X006501Y011034D01*
X006543Y011117D01*
X006597Y011192D01*
X006663Y011257D01*
X006670Y011262D01*
X006602Y011290D01*
X006601Y011291D01*
X005321Y010012D01*
X005189Y009957D01*
X002197Y009957D01*
X002197Y009680D01*
X002161Y009591D01*
X002093Y009524D01*
X002005Y009487D01*
X001110Y009487D01*
X001057Y009509D01*
X001057Y009014D01*
X001195Y009152D01*
X001430Y009249D01*
X001685Y009249D01*
X001920Y009152D01*
X002100Y008972D01*
X002197Y008737D01*
X002197Y008482D01*
X002100Y008247D01*
X001920Y008067D01*
X001685Y007969D01*
X001430Y007969D01*
X001195Y008067D01*
X001057Y008204D01*
X001057Y007246D01*
X001110Y007267D01*
X002005Y007267D01*
X002093Y007231D01*
X002161Y007163D01*
X002197Y007075D01*
X002197Y006180D01*
X002161Y006091D01*
X002093Y006024D01*
X002005Y005987D01*
X001110Y005987D01*
X001057Y006009D01*
X001057Y005514D01*
X001195Y005652D01*
X001430Y005749D01*
X001685Y005749D01*
X001920Y005652D01*
X002100Y005472D01*
X002197Y005237D01*
X002197Y004982D01*
X002100Y004747D01*
X001920Y004567D01*
X001685Y004469D01*
X001430Y004469D01*
X001195Y004567D01*
X001057Y004704D01*
X001057Y004520D02*
X001308Y004520D01*
X001057Y004281D02*
X004761Y004281D01*
X004790Y004212D02*
X004962Y004040D01*
X005186Y003947D01*
X005429Y003947D01*
X005653Y004040D01*
X005824Y004212D01*
X005917Y004436D01*
X005917Y004679D01*
X005824Y004903D01*
X005653Y005074D01*
X005429Y005167D01*
X005186Y005167D01*
X004962Y005074D01*
X004790Y004903D01*
X004697Y004679D01*
X004697Y004436D01*
X004790Y004212D01*
X004959Y004043D02*
X001057Y004043D01*
X001057Y003804D02*
X010588Y003804D01*
X010604Y003717D02*
X010542Y004067D01*
X010542Y004067D01*
X010604Y004418D01*
X010604Y004418D01*
X010782Y004727D01*
X010782Y004727D01*
X010782Y004727D01*
X011055Y004956D01*
X011055Y004956D01*
X011389Y005077D01*
X011745Y005077D01*
X012080Y004956D01*
X012080Y004956D01*
X012353Y004727D01*
X012353Y004727D01*
X012531Y004418D01*
X012531Y004418D01*
X012593Y004067D01*
X012593Y004067D01*
X012531Y003717D01*
X012531Y003717D01*
X012353Y003408D01*
X012353Y003408D01*
X012353Y003408D01*
X012080Y003179D01*
X012080Y003179D01*
X011745Y003057D01*
X011623Y003057D01*
X011389Y003057D01*
X011055Y003179D01*
X011055Y003179D01*
X010782Y003408D01*
X010782Y003408D01*
X010604Y003717D01*
X010604Y003717D01*
X010691Y003566D02*
X001057Y003566D01*
X001057Y003327D02*
X010878Y003327D01*
X010546Y004043D02*
X008905Y004043D01*
X008903Y004040D02*
X009074Y004212D01*
X009167Y004436D01*
X009167Y004679D01*
X009074Y004903D01*
X008903Y005074D01*
X008679Y005167D01*
X008436Y005167D01*
X008212Y005074D01*
X008040Y004903D01*
X007947Y004679D01*
X007947Y004436D01*
X008040Y004212D01*
X008212Y004040D01*
X008436Y003947D01*
X008679Y003947D01*
X008903Y004040D01*
X009103Y004281D02*
X010579Y004281D01*
X010662Y004520D02*
X009167Y004520D01*
X009134Y004758D02*
X010820Y004758D01*
X011168Y004997D02*
X008980Y004997D01*
X008209Y004043D02*
X007405Y004043D01*
X007403Y004040D02*
X007574Y004212D01*
X007667Y004436D01*
X007667Y004679D01*
X007574Y004903D01*
X007403Y005074D01*
X007179Y005167D01*
X006936Y005167D01*
X006712Y005074D01*
X006540Y004903D01*
X006447Y004679D01*
X006447Y004436D01*
X006540Y004212D01*
X006712Y004040D01*
X006936Y003947D01*
X007179Y003947D01*
X007403Y004040D01*
X007603Y004281D02*
X008011Y004281D01*
X007947Y004520D02*
X007667Y004520D01*
X007634Y004758D02*
X007980Y004758D01*
X008134Y004997D02*
X007480Y004997D01*
X006709Y004043D02*
X005655Y004043D01*
X005853Y004281D02*
X006511Y004281D01*
X006447Y004520D02*
X005917Y004520D01*
X005884Y004758D02*
X006480Y004758D01*
X006634Y004997D02*
X005730Y004997D01*
X004884Y004997D02*
X002197Y004997D01*
X002197Y005235D02*
X015557Y005235D01*
X015557Y004997D02*
X011967Y004997D01*
X012315Y004758D02*
X015557Y004758D01*
X015557Y004520D02*
X015404Y004520D01*
X015057Y004520D02*
X015057Y004520D01*
X015057Y004281D02*
X015057Y004281D01*
X015057Y004043D02*
X015057Y004043D01*
X015057Y003804D02*
X015057Y003804D01*
X015057Y003566D02*
X015057Y003566D01*
X014620Y003566D02*
X012444Y003566D01*
X012547Y003804D02*
X014471Y003804D01*
X014437Y004043D02*
X012589Y004043D01*
X012555Y004281D02*
X014502Y004281D01*
X014711Y004520D02*
X012472Y004520D01*
X012257Y003327D02*
X015557Y003327D01*
X015557Y003566D02*
X015495Y003566D01*
X014519Y003089D02*
X011832Y003089D01*
X011745Y003057D02*
X011745Y003057D01*
X011303Y003089D02*
X008314Y003089D01*
X008284Y003104D02*
X008367Y003062D01*
X008442Y003007D01*
X008507Y002942D01*
X008562Y002867D01*
X008604Y002784D01*
X008633Y002695D01*
X008647Y002604D01*
X008647Y002557D01*
X008057Y002557D01*
X008057Y002557D01*
X008057Y003147D01*
X008011Y003147D01*
X007919Y003133D01*
X007831Y003104D01*
X007748Y003062D01*
X007673Y003007D01*
X007607Y002942D01*
X007576Y002899D01*
X007574Y002903D01*
X007403Y003074D01*
X007179Y003167D01*
X006936Y003167D01*
X006712Y003074D01*
X006540Y002903D01*
X006447Y002679D01*
X006447Y002436D01*
X006540Y002212D01*
X006712Y002040D01*
X006936Y001947D01*
X006955Y001947D01*
X006947Y001929D01*
X006947Y001686D01*
X007040Y001462D01*
X007212Y001290D01*
X007436Y001197D01*
X007679Y001197D01*
X007903Y001290D01*
X008074Y001462D01*
X008167Y001686D01*
X008167Y001929D01*
X008148Y001974D01*
X008195Y001982D01*
X008284Y002011D01*
X008367Y002053D01*
X008442Y002107D01*
X008507Y002173D01*
X008562Y002248D01*
X008604Y002331D01*
X008633Y002419D01*
X008647Y002511D01*
X008647Y002557D01*
X008057Y002557D01*
X008057Y002557D01*
X008057Y003147D01*
X008104Y003147D01*
X008195Y003133D01*
X008284Y003104D01*
X008057Y003089D02*
X008057Y003089D01*
X008057Y002850D02*
X008057Y002850D01*
X008057Y002612D02*
X008057Y002612D01*
X007801Y003089D02*
X007368Y003089D01*
X006746Y003089D02*
X001057Y003089D01*
X001057Y002850D02*
X006518Y002850D01*
X006447Y002612D02*
X001057Y002612D01*
X001057Y002373D02*
X006473Y002373D01*
X006617Y002135D02*
X004661Y002135D01*
X004936Y001896D02*
X006947Y001896D01*
X006959Y001658D02*
X005023Y001658D01*
X005019Y001419D02*
X007083Y001419D01*
X008032Y001419D02*
X015557Y001419D01*
X015557Y001181D02*
X004912Y001181D01*
X004105Y002135D02*
X003213Y002135D01*
X003488Y001896D02*
X003831Y001896D01*
X003743Y001658D02*
X003575Y001658D01*
X003571Y001419D02*
X003748Y001419D01*
X003855Y001181D02*
X003464Y001181D01*
X002657Y002135D02*
X002020Y002135D01*
X002022Y002133D02*
X001972Y002162D01*
X001916Y002177D01*
X001487Y002177D01*
X001487Y001557D01*
X002107Y001557D01*
X002107Y001986D01*
X002092Y002042D01*
X002063Y002092D01*
X002022Y002133D01*
X002107Y001896D02*
X002383Y001896D01*
X002295Y001658D02*
X002107Y001658D01*
X002107Y001419D02*
X002300Y001419D01*
X002407Y001181D02*
X002107Y001181D01*
X001487Y001658D02*
X001487Y001658D01*
X001487Y001896D02*
X001487Y001896D01*
X001487Y002135D02*
X001487Y002135D01*
X001806Y004520D02*
X004697Y004520D01*
X004730Y004758D02*
X002105Y004758D01*
X002098Y005474D02*
X014445Y005474D01*
X014417Y005712D02*
X001774Y005712D01*
X001341Y005712D02*
X001057Y005712D01*
X001057Y005951D02*
X014417Y005951D01*
X014417Y006189D02*
X002197Y006189D01*
X002197Y006428D02*
X014417Y006428D01*
X014515Y007143D02*
X002169Y007143D01*
X002197Y006905D02*
X014835Y006905D01*
X015280Y006905D02*
X015557Y006905D01*
X015557Y006666D02*
X002197Y006666D01*
X001950Y008097D02*
X004905Y008097D01*
X004962Y008040D02*
X005186Y007947D01*
X005429Y007947D01*
X005653Y008040D01*
X005824Y008212D01*
X005917Y008436D01*
X005917Y008679D01*
X005824Y008903D01*
X005653Y009074D01*
X005429Y009167D01*
X005186Y009167D01*
X004962Y009074D01*
X004790Y008903D01*
X004697Y008679D01*
X004697Y008436D01*
X004790Y008212D01*
X004962Y008040D01*
X004739Y008336D02*
X002137Y008336D01*
X002197Y008574D02*
X004697Y008574D01*
X004753Y008813D02*
X002166Y008813D01*
X002020Y009051D02*
X004939Y009051D01*
X005305Y010005D02*
X006369Y010005D01*
X006337Y009767D02*
X002197Y009767D01*
X002098Y009528D02*
X006403Y009528D01*
X006603Y009290D02*
X001057Y009290D01*
X001057Y009051D02*
X001094Y009051D01*
X001557Y010127D02*
X001597Y010157D01*
X001757Y010317D01*
X005117Y010317D01*
X006477Y011677D01*
X006637Y011677D01*
X006717Y011757D01*
X006877Y011757D01*
X006947Y011807D01*
X006602Y012390D02*
X002134Y012390D01*
X002197Y012152D02*
X006430Y012152D01*
X006204Y011913D02*
X002169Y011913D01*
X002028Y011675D02*
X005966Y011675D01*
X005727Y011436D02*
X001057Y011436D01*
X001057Y011198D02*
X005489Y011198D01*
X005250Y010959D02*
X001057Y010959D01*
X001057Y011675D02*
X001087Y011675D01*
X001057Y012629D02*
X001172Y012629D01*
X001057Y012867D02*
X006437Y012867D01*
X006461Y012629D02*
X001943Y012629D01*
X002167Y013106D02*
X006511Y013106D01*
X006548Y013344D02*
X002197Y013344D01*
X002197Y013583D02*
X006380Y013583D01*
X006337Y013821D02*
X002197Y013821D01*
X002197Y014060D02*
X006392Y014060D01*
X006576Y014298D02*
X001057Y014298D01*
X001057Y014537D02*
X006523Y014537D01*
X006457Y014775D02*
X001057Y014775D01*
X001057Y015014D02*
X001323Y015014D01*
X001792Y015014D02*
X006494Y015014D01*
X006658Y015252D02*
X002102Y015252D01*
X002197Y015491D02*
X004831Y015491D01*
X004533Y015729D02*
X002197Y015729D01*
X002102Y015968D02*
X004447Y015968D01*
X004459Y016206D02*
X001789Y016206D01*
X001326Y016206D02*
X001057Y016206D01*
X001057Y016445D02*
X004582Y016445D01*
X004569Y016683D02*
X002197Y016683D01*
X002197Y016922D02*
X004453Y016922D01*
X004447Y017160D02*
X002197Y017160D01*
X002197Y017399D02*
X004539Y017399D01*
X004615Y017637D02*
X002172Y017637D01*
X001944Y018591D02*
X004661Y018591D01*
X004519Y018353D02*
X001057Y018353D01*
X001057Y018591D02*
X001170Y018591D01*
X001057Y018114D02*
X004447Y018114D01*
X004472Y017876D02*
X001057Y017876D01*
X002134Y018830D02*
X004491Y018830D01*
X004447Y019068D02*
X002197Y019068D01*
X002168Y019307D02*
X004500Y019307D01*
X004683Y019545D02*
X002026Y019545D01*
X002090Y020022D02*
X004447Y020022D01*
X004481Y020261D02*
X002197Y020261D01*
X002197Y020499D02*
X004637Y020499D01*
X004529Y020738D02*
X002197Y020738D01*
X002197Y020976D02*
X004447Y020976D01*
X004462Y021215D02*
X002109Y021215D01*
X002022Y022169D02*
X004447Y022169D01*
X004450Y021930D02*
X001057Y021930D01*
X001057Y021692D02*
X004560Y021692D01*
X004591Y021453D02*
X001057Y021453D01*
X001057Y022169D02*
X001093Y022169D01*
X001057Y023123D02*
X001166Y023123D01*
X001057Y023361D02*
X004523Y023361D01*
X004447Y023123D02*
X001949Y023123D01*
X002136Y022884D02*
X004469Y022884D01*
X004606Y022646D02*
X002197Y022646D01*
X002166Y022407D02*
X004545Y022407D01*
X004652Y023600D02*
X002164Y023600D01*
X002197Y023838D02*
X004488Y023838D01*
X004447Y024077D02*
X002197Y024077D01*
X002197Y024315D02*
X004504Y024315D01*
X004691Y024554D02*
X002197Y024554D01*
X001778Y025508D02*
X004645Y025508D01*
X004526Y025746D02*
X002099Y025746D01*
X002197Y025985D02*
X004447Y025985D01*
X004466Y026223D02*
X002197Y026223D01*
X002104Y026462D02*
X004599Y026462D01*
X004552Y026700D02*
X001803Y026700D01*
X001312Y026700D02*
X001057Y026700D01*
X001057Y026939D02*
X004447Y026939D01*
X004447Y027177D02*
X002196Y027177D01*
X002197Y027416D02*
X004553Y027416D01*
X004905Y027654D02*
X002197Y027654D01*
X002197Y027893D02*
X004965Y027893D01*
X004947Y028131D02*
X002174Y028131D01*
X001057Y028370D02*
X005027Y028370D01*
X005561Y027416D02*
X010553Y027416D01*
X010447Y027177D02*
X005667Y027177D01*
X005667Y026939D02*
X010447Y026939D01*
X010552Y026700D02*
X005563Y026700D01*
X005515Y026462D02*
X010627Y026462D01*
X010491Y026223D02*
X005649Y026223D01*
X005667Y025985D02*
X007135Y025985D01*
X007055Y025956D02*
X007055Y025956D01*
X006782Y025727D01*
X006782Y025727D01*
X006782Y025727D01*
X006604Y025418D01*
X006542Y025067D01*
X006604Y024717D01*
X006782Y024408D01*
X007055Y024179D01*
X007389Y024057D01*
X007512Y024057D01*
X007745Y024057D01*
X008080Y024179D01*
X008353Y024408D01*
X008353Y024408D01*
X008353Y024408D01*
X008531Y024717D01*
X008593Y025067D01*
X008593Y025067D01*
X008531Y025418D01*
X008353Y025727D01*
X008080Y025955D01*
X008080Y025956D01*
X007745Y026077D01*
X007389Y026077D01*
X007055Y025956D01*
X006805Y025746D02*
X005589Y025746D01*
X005469Y025508D02*
X006655Y025508D01*
X006604Y025418D02*
X006604Y025418D01*
X006577Y025269D02*
X005630Y025269D01*
X005667Y025031D02*
X006548Y025031D01*
X006542Y025067D02*
X006542Y025067D01*
X006590Y024792D02*
X005608Y024792D01*
X005423Y024554D02*
X006698Y024554D01*
X006782Y024408D02*
X006782Y024408D01*
X006892Y024315D02*
X005611Y024315D01*
X005667Y024077D02*
X007336Y024077D01*
X007055Y024179D02*
X007055Y024179D01*
X006604Y024717D02*
X006604Y024717D01*
X005667Y023123D02*
X009567Y023123D01*
X009382Y022884D02*
X005646Y022884D01*
X005509Y022646D02*
X009322Y022646D01*
X009360Y022407D02*
X005570Y022407D01*
X005667Y022169D02*
X009521Y022169D01*
X009379Y023361D02*
X005592Y023361D01*
X005463Y023600D02*
X009322Y023600D01*
X009363Y023838D02*
X005627Y023838D01*
X004507Y024792D02*
X001057Y024792D01*
X001057Y025031D02*
X004447Y025031D01*
X004485Y025269D02*
X001057Y025269D01*
X001057Y025508D02*
X001337Y025508D01*
X001057Y019784D02*
X004510Y019784D01*
X005432Y019545D02*
X009322Y019545D01*
X009350Y019307D02*
X005614Y019307D01*
X005667Y019068D02*
X009496Y019068D01*
X009411Y018830D02*
X005623Y018830D01*
X005454Y018591D02*
X009322Y018591D01*
X009331Y018353D02*
X005595Y018353D01*
X005667Y018114D02*
X009450Y018114D01*
X009392Y019784D02*
X005604Y019784D01*
X005667Y020022D02*
X009612Y020022D01*
X010253Y020022D02*
X010447Y020022D01*
X010473Y019784D02*
X010510Y019784D01*
X010542Y019545D02*
X010683Y019545D01*
X010481Y020261D02*
X005633Y020261D01*
X005478Y020499D02*
X010637Y020499D01*
X010529Y020738D02*
X005585Y020738D01*
X005667Y020976D02*
X010447Y020976D01*
X010462Y021215D02*
X005652Y021215D01*
X005524Y021453D02*
X010591Y021453D01*
X010560Y021692D02*
X005555Y021692D01*
X005665Y021930D02*
X010450Y021930D01*
X010447Y022169D02*
X010344Y022169D01*
X010505Y022407D02*
X010545Y022407D01*
X010542Y022646D02*
X010606Y022646D01*
X011420Y022557D02*
X011574Y022712D01*
X011667Y022936D01*
X011667Y023179D01*
X011574Y023403D01*
X011420Y023557D01*
X011574Y023712D01*
X011667Y023936D01*
X011667Y024179D01*
X011574Y024403D01*
X011420Y024557D01*
X011574Y024712D01*
X011667Y024936D01*
X011667Y025179D01*
X011574Y025403D01*
X011403Y025574D01*
X011399Y025576D01*
X011442Y025607D01*
X011507Y025673D01*
X011562Y025748D01*
X011604Y025831D01*
X011633Y025919D01*
X011647Y026011D01*
X011647Y026057D01*
X011057Y026057D01*
X011057Y026057D01*
X011647Y026057D01*
X011647Y026104D01*
X011633Y026195D01*
X011604Y026284D01*
X011562Y026367D01*
X011507Y026442D01*
X011442Y026507D01*
X011399Y026539D01*
X011403Y026540D01*
X011574Y026712D01*
X011667Y026936D01*
X011667Y027179D01*
X011574Y027403D01*
X011403Y027574D01*
X011179Y027667D01*
X011030Y027667D01*
X011074Y027712D01*
X011167Y027936D01*
X011167Y028179D01*
X011074Y028403D01*
X010920Y028557D01*
X014775Y028557D01*
X014732Y028536D01*
X014653Y028478D01*
X014584Y028409D01*
X014527Y028330D01*
X014483Y028243D01*
X014453Y028150D01*
X014437Y028054D01*
X014437Y028005D01*
X014437Y027956D01*
X014453Y027860D01*
X014483Y027767D01*
X014527Y027680D01*
X014584Y027601D01*
X014653Y027532D01*
X014732Y027475D01*
X014819Y027431D01*
X014912Y027401D01*
X015009Y027385D01*
X015057Y027385D01*
X015057Y028005D01*
X014437Y028005D01*
X015057Y028005D01*
X015057Y028005D01*
X015057Y028005D01*
X015057Y027385D01*
X015106Y027385D01*
X015203Y027401D01*
X015295Y027431D01*
X015382Y027475D01*
X015461Y027532D01*
X015530Y027601D01*
X015557Y027639D01*
X015557Y027106D01*
X015505Y027127D01*
X014610Y027127D01*
X014521Y027091D01*
X014454Y027023D01*
X014417Y026935D01*
X014417Y026040D01*
X014454Y025951D01*
X014521Y025884D01*
X014610Y025847D01*
X015505Y025847D01*
X015557Y025869D01*
X015557Y024910D01*
X015420Y025048D01*
X015185Y025145D01*
X014930Y025145D01*
X014695Y025048D01*
X014515Y024868D01*
X014417Y024633D01*
X014417Y024378D01*
X014515Y024143D01*
X014695Y023963D01*
X014930Y023865D01*
X015185Y023865D01*
X015420Y023963D01*
X015557Y024100D01*
X015557Y023584D01*
X015542Y023592D01*
X015486Y023607D01*
X015057Y023607D01*
X014628Y023607D01*
X014572Y023592D01*
X014522Y023563D01*
X014481Y023522D01*
X014452Y023472D01*
X014437Y023416D01*
X014437Y022987D01*
X014437Y022558D01*
X014452Y022502D01*
X014481Y022452D01*
X014522Y022411D01*
X014572Y022382D01*
X014628Y022367D01*
X015057Y022367D01*
X015057Y022987D01*
X015057Y022987D01*
X014437Y022987D01*
X015057Y022987D01*
X015057Y022987D01*
X015057Y022367D01*
X015486Y022367D01*
X015542Y022382D01*
X015557Y022391D01*
X015557Y021288D01*
X015420Y021426D01*
X015185Y021523D01*
X014930Y021523D01*
X014695Y021426D01*
X014515Y021246D01*
X014417Y021011D01*
X014417Y020917D01*
X011660Y020917D01*
X011667Y020936D01*
X011667Y021179D01*
X011574Y021403D01*
X011420Y021557D01*
X011574Y021712D01*
X011667Y021936D01*
X011667Y022179D01*
X011574Y022403D01*
X011420Y022557D01*
X011509Y022646D02*
X014437Y022646D01*
X014437Y022884D02*
X011646Y022884D01*
X011667Y023123D02*
X014437Y023123D01*
X014437Y023361D02*
X011592Y023361D01*
X011463Y023600D02*
X014600Y023600D01*
X014581Y024077D02*
X011667Y024077D01*
X011627Y023838D02*
X015557Y023838D01*
X015557Y023600D02*
X015514Y023600D01*
X015534Y024077D02*
X015557Y024077D01*
X015057Y023607D02*
X015057Y022987D01*
X015057Y023607D01*
X015057Y023600D02*
X015057Y023600D01*
X015057Y023361D02*
X015057Y023361D01*
X015057Y023123D02*
X015057Y023123D01*
X015057Y022987D02*
X015057Y022987D01*
X015057Y022884D02*
X015057Y022884D01*
X015057Y022646D02*
X015057Y022646D01*
X015057Y022407D02*
X015057Y022407D01*
X014529Y022407D02*
X011570Y022407D01*
X011667Y022169D02*
X015557Y022169D01*
X015557Y021930D02*
X011665Y021930D01*
X011555Y021692D02*
X015557Y021692D01*
X015557Y021453D02*
X015353Y021453D01*
X015557Y020478D02*
X015557Y019802D01*
X015530Y019839D01*
X015461Y019908D01*
X015382Y019966D01*
X015295Y020010D01*
X015203Y020040D01*
X015106Y020055D01*
X015057Y020055D01*
X015009Y020055D01*
X014912Y020040D01*
X014819Y020010D01*
X014732Y019966D01*
X014653Y019908D01*
X014584Y019839D01*
X014527Y019760D01*
X014483Y019673D01*
X014453Y019580D01*
X014437Y019484D01*
X014437Y019435D01*
X014437Y019386D01*
X014453Y019290D01*
X014483Y019197D01*
X014527Y019110D01*
X014584Y019031D01*
X014653Y018962D01*
X014732Y018905D01*
X014819Y018861D01*
X014912Y018831D01*
X015009Y018815D01*
X015057Y018815D01*
X015057Y019435D01*
X014437Y019435D01*
X015057Y019435D01*
X015057Y019435D01*
X015057Y019435D01*
X015057Y018815D01*
X015106Y018815D01*
X015203Y018831D01*
X015295Y018861D01*
X015382Y018905D01*
X015461Y018962D01*
X015530Y019031D01*
X015557Y019069D01*
X015557Y018606D01*
X015505Y018627D01*
X014610Y018627D01*
X014521Y018591D01*
X014454Y018523D01*
X014417Y018435D01*
X014417Y017540D01*
X014454Y017451D01*
X014521Y017384D01*
X014610Y017347D01*
X015505Y017347D01*
X015557Y017369D01*
X015557Y013313D01*
X013602Y015269D01*
X013687Y015304D01*
X013810Y015428D01*
X013877Y015590D01*
X013877Y015765D01*
X013810Y015927D01*
X013687Y016050D01*
X013525Y016117D01*
X013350Y016117D01*
X013188Y016050D01*
X013095Y015957D01*
X012593Y015957D01*
X011652Y016899D01*
X011667Y016936D01*
X011667Y017179D01*
X011574Y017403D01*
X011420Y017557D01*
X011574Y017712D01*
X011667Y017936D01*
X011667Y018179D01*
X011574Y018403D01*
X011420Y018557D01*
X011574Y018712D01*
X011667Y018936D01*
X011667Y019179D01*
X011574Y019403D01*
X011420Y019557D01*
X011574Y019712D01*
X011667Y019936D01*
X011667Y020179D01*
X011652Y020216D01*
X011793Y020357D01*
X014678Y020357D01*
X014695Y020341D01*
X014930Y020243D01*
X015185Y020243D01*
X015420Y020341D01*
X015557Y020478D01*
X015557Y020261D02*
X015227Y020261D01*
X015257Y020022D02*
X015557Y020022D01*
X015057Y020022D02*
X015057Y020022D01*
X015057Y020055D02*
X015057Y019435D01*
X015057Y019435D01*
X015057Y020055D01*
X014858Y020022D02*
X011667Y020022D01*
X011697Y020261D02*
X014887Y020261D01*
X015057Y019784D02*
X015057Y019784D01*
X015057Y019545D02*
X015057Y019545D01*
X015057Y019307D02*
X015057Y019307D01*
X015057Y019068D02*
X015057Y019068D01*
X015057Y018830D02*
X015057Y018830D01*
X014917Y018830D02*
X011623Y018830D01*
X011667Y019068D02*
X014558Y019068D01*
X014450Y019307D02*
X011614Y019307D01*
X011432Y019545D02*
X014447Y019545D01*
X014544Y019784D02*
X011604Y019784D01*
X011667Y020976D02*
X014417Y020976D01*
X014502Y021215D02*
X011652Y021215D01*
X011524Y021453D02*
X014761Y021453D01*
X015557Y019068D02*
X015557Y019068D01*
X015557Y018830D02*
X015198Y018830D01*
X014523Y018591D02*
X011454Y018591D01*
X011595Y018353D02*
X014417Y018353D01*
X014417Y018114D02*
X011667Y018114D01*
X011642Y017876D02*
X014417Y017876D01*
X014417Y017637D02*
X011500Y017637D01*
X011576Y017399D02*
X014506Y017399D01*
X013769Y015968D02*
X015557Y015968D01*
X015557Y016206D02*
X012344Y016206D01*
X012583Y015968D02*
X013106Y015968D01*
X012845Y015132D02*
X012753Y015162D01*
X012656Y015177D01*
X012607Y015177D01*
X012559Y015177D01*
X012462Y015162D01*
X012369Y015132D01*
X012282Y015088D01*
X012203Y015030D01*
X012134Y014961D01*
X012077Y014882D01*
X012071Y014870D01*
X012050Y014920D01*
X011870Y015100D01*
X011635Y015197D01*
X011380Y015197D01*
X011145Y015100D01*
X010965Y014920D01*
X010867Y014685D01*
X010867Y014430D01*
X010965Y014195D01*
X011145Y014015D01*
X011380Y013917D01*
X011635Y013917D01*
X011870Y014015D01*
X012050Y014195D01*
X012071Y014245D01*
X012077Y014232D01*
X012134Y014153D01*
X012203Y014084D01*
X012282Y014027D01*
X012369Y013983D01*
X012462Y013953D01*
X012559Y013937D01*
X012607Y013937D01*
X012607Y014557D01*
X012607Y014557D01*
X012607Y013937D01*
X012656Y013937D01*
X012753Y013953D01*
X012845Y013983D01*
X012932Y014027D01*
X013011Y014084D01*
X013080Y014153D01*
X013138Y014232D01*
X013182Y014319D01*
X013212Y014412D01*
X013227Y014509D01*
X013227Y014557D01*
X012607Y014557D01*
X012607Y014557D01*
X012607Y015177D01*
X012607Y014557D01*
X012607Y014557D01*
X013227Y014557D01*
X013227Y014606D01*
X013212Y014703D01*
X013182Y014795D01*
X013138Y014882D01*
X013080Y014961D01*
X013011Y015030D01*
X012932Y015088D01*
X012845Y015132D01*
X013028Y015014D02*
X013065Y015014D01*
X013188Y014775D02*
X013303Y014775D01*
X013227Y014537D02*
X013542Y014537D01*
X013780Y014298D02*
X013171Y014298D01*
X012977Y014060D02*
X014019Y014060D01*
X014257Y013821D02*
X007557Y013821D01*
X007515Y013583D02*
X014496Y013583D01*
X014734Y013344D02*
X007347Y013344D01*
X007584Y013106D02*
X014973Y013106D01*
X015211Y012867D02*
X007657Y012867D01*
X007634Y012629D02*
X015450Y012629D01*
X015557Y012390D02*
X007493Y012390D01*
X007465Y012152D02*
X015557Y012152D01*
X015557Y011913D02*
X007557Y011913D01*
X007553Y011675D02*
X015557Y011675D01*
X015557Y011436D02*
X007439Y011436D01*
X007491Y011198D02*
X015557Y011198D01*
X015557Y010959D02*
X012032Y010959D01*
X012083Y010909D02*
X011909Y011083D01*
X011681Y011177D01*
X011434Y011177D01*
X011206Y011083D01*
X011032Y010909D01*
X010937Y010681D01*
X010937Y010434D01*
X011032Y010206D01*
X011206Y010032D01*
X011434Y009937D01*
X011681Y009937D01*
X011909Y010032D01*
X012083Y010206D01*
X012177Y010434D01*
X012177Y010681D01*
X012083Y010909D01*
X012161Y010721D02*
X015557Y010721D01*
X015557Y010482D02*
X012177Y010482D01*
X012099Y010244D02*
X015557Y010244D01*
X015557Y010005D02*
X012986Y010005D01*
X012909Y010083D02*
X013083Y009909D01*
X013177Y009681D01*
X013177Y009434D01*
X013083Y009206D01*
X012909Y009032D01*
X012681Y008937D01*
X012434Y008937D01*
X012206Y009032D01*
X012161Y009077D01*
X012113Y009077D01*
X012014Y008978D01*
X012083Y008909D01*
X012177Y008681D01*
X012177Y008434D01*
X012083Y008206D01*
X011909Y008032D01*
X011681Y007937D01*
X011434Y007937D01*
X011335Y007979D01*
X010716Y007360D01*
X010613Y007317D01*
X008022Y007317D01*
X007919Y007360D01*
X007840Y007439D01*
X007287Y007992D01*
X007179Y007947D01*
X006936Y007947D01*
X006712Y008040D01*
X006540Y008212D01*
X006447Y008436D01*
X006447Y008679D01*
X006540Y008903D01*
X006712Y009074D01*
X006936Y009167D01*
X007179Y009167D01*
X007403Y009074D01*
X007574Y008903D01*
X007667Y008679D01*
X007667Y008436D01*
X007658Y008413D01*
X008193Y007877D01*
X010441Y007877D01*
X010681Y008117D01*
X008980Y008117D01*
X008903Y008040D01*
X008679Y007947D01*
X008436Y007947D01*
X008212Y008040D01*
X008040Y008212D01*
X007947Y008436D01*
X007947Y008679D01*
X008040Y008903D01*
X008212Y009074D01*
X008436Y009167D01*
X008679Y009167D01*
X008903Y009074D01*
X009074Y008903D01*
X009167Y008679D01*
X009167Y008677D01*
X010521Y008677D01*
X010932Y009088D01*
X010872Y009044D01*
X010788Y009001D01*
X010698Y008972D01*
X010605Y008957D01*
X010557Y008957D01*
X010557Y009557D01*
X010557Y009557D01*
X009957Y009557D01*
X009957Y009510D01*
X009972Y009417D01*
X010001Y009327D01*
X010044Y009243D01*
X010100Y009166D01*
X010166Y009100D01*
X010243Y009044D01*
X010327Y009001D01*
X010417Y008972D01*
X010510Y008957D01*
X010557Y008957D01*
X010557Y009557D01*
X010557Y009557D01*
X009957Y009557D01*
X009957Y009605D01*
X009972Y009698D01*
X010001Y009788D01*
X010044Y009872D01*
X010100Y009948D01*
X010166Y010015D01*
X010243Y010070D01*
X010327Y010113D01*
X010417Y010143D01*
X010510Y010157D01*
X010557Y010157D01*
X010557Y009557D01*
X010557Y009557D01*
X010557Y009557D01*
X011157Y009557D01*
X011157Y009510D01*
X011143Y009417D01*
X011113Y009327D01*
X011070Y009243D01*
X011027Y009183D01*
X011199Y009355D01*
X011302Y009397D01*
X011641Y009397D01*
X011839Y009595D01*
X011937Y009636D01*
X011937Y009681D01*
X012032Y009909D01*
X012206Y010083D01*
X012434Y010177D01*
X012681Y010177D01*
X012909Y010083D01*
X013142Y009767D02*
X015557Y009767D01*
X015557Y009528D02*
X013177Y009528D01*
X013118Y009290D02*
X015557Y009290D01*
X015557Y009051D02*
X012928Y009051D01*
X012186Y009051D02*
X012087Y009051D01*
X012123Y008813D02*
X015557Y008813D01*
X015557Y008574D02*
X012177Y008574D01*
X012137Y008336D02*
X015557Y008336D01*
X015557Y008097D02*
X015300Y008097D01*
X014814Y008097D02*
X011974Y008097D01*
X011215Y007859D02*
X014511Y007859D01*
X014417Y007620D02*
X010976Y007620D01*
X010738Y007382D02*
X014417Y007382D01*
X011973Y009767D02*
X011120Y009767D01*
X011113Y009788D02*
X011070Y009872D01*
X011015Y009948D01*
X010948Y010015D01*
X010872Y010070D01*
X010788Y010113D01*
X010698Y010143D01*
X010605Y010157D01*
X010557Y010157D01*
X010557Y009557D01*
X011157Y009557D01*
X011157Y009605D01*
X011143Y009698D01*
X011113Y009788D01*
X011157Y009528D02*
X011772Y009528D01*
X011845Y010005D02*
X012129Y010005D01*
X011270Y010005D02*
X010958Y010005D01*
X011016Y010244D02*
X007373Y010244D01*
X007526Y010005D02*
X010157Y010005D01*
X009995Y009767D02*
X007557Y009767D01*
X007492Y009528D02*
X009957Y009528D01*
X010020Y009290D02*
X007292Y009290D01*
X007426Y009051D02*
X008189Y009051D01*
X008003Y008813D02*
X007612Y008813D01*
X007667Y008574D02*
X007947Y008574D01*
X007989Y008336D02*
X007735Y008336D01*
X007973Y008097D02*
X008155Y008097D01*
X007897Y007382D02*
X001057Y007382D01*
X001057Y007620D02*
X007658Y007620D01*
X007420Y007859D02*
X001057Y007859D01*
X001057Y008097D02*
X001164Y008097D01*
X002103Y010721D02*
X005012Y010721D01*
X005553Y010244D02*
X006521Y010244D01*
X006554Y010482D02*
X005791Y010482D01*
X006030Y010721D02*
X006464Y010721D01*
X006476Y010959D02*
X006268Y010959D01*
X006507Y011198D02*
X006603Y011198D01*
X007047Y010807D02*
X007047Y010807D01*
X007631Y010721D02*
X010954Y010721D01*
X010937Y010482D02*
X007540Y010482D01*
X007618Y010959D02*
X011083Y010959D01*
X010557Y010005D02*
X010557Y010005D01*
X010557Y009767D02*
X010557Y009767D01*
X010557Y009528D02*
X010557Y009528D01*
X010557Y009290D02*
X010557Y009290D01*
X010557Y009051D02*
X010557Y009051D01*
X010657Y008813D02*
X009112Y008813D01*
X008926Y009051D02*
X010233Y009051D01*
X010882Y009051D02*
X010895Y009051D01*
X011094Y009290D02*
X011134Y009290D01*
X010661Y008097D02*
X008960Y008097D01*
X006655Y008097D02*
X005710Y008097D01*
X005876Y008336D02*
X006489Y008336D01*
X006447Y008574D02*
X005917Y008574D01*
X005862Y008813D02*
X006503Y008813D01*
X006689Y009051D02*
X005676Y009051D01*
X007503Y014060D02*
X011100Y014060D01*
X010922Y014298D02*
X007348Y014298D01*
X007572Y014537D02*
X010867Y014537D01*
X010905Y014775D02*
X007637Y014775D01*
X007637Y014807D02*
X007637Y014854D01*
X007623Y014945D01*
X007594Y015034D01*
X007552Y015117D01*
X007497Y015192D01*
X007432Y015257D01*
X007357Y015312D01*
X007274Y015354D01*
X007185Y015383D01*
X007094Y015397D01*
X007047Y015397D01*
X007047Y014807D01*
X007637Y014807D01*
X007601Y015014D02*
X011059Y015014D01*
X010831Y015491D02*
X005284Y015491D01*
X005582Y015729D02*
X010533Y015729D01*
X010447Y015968D02*
X005667Y015968D01*
X005656Y016206D02*
X010459Y016206D01*
X010582Y016445D02*
X005532Y016445D01*
X005546Y016683D02*
X010569Y016683D01*
X010453Y016922D02*
X005661Y016922D01*
X005667Y017160D02*
X010447Y017160D01*
X010539Y017399D02*
X005576Y017399D01*
X005500Y017637D02*
X010615Y017637D01*
X010472Y017876D02*
X005642Y017876D01*
X007047Y015252D02*
X007047Y015252D01*
X007047Y015014D02*
X007047Y015014D01*
X007437Y015252D02*
X011505Y015252D01*
X011956Y015014D02*
X012187Y015014D01*
X012607Y015014D02*
X012607Y015014D01*
X012607Y014775D02*
X012607Y014775D01*
X012607Y014537D02*
X012607Y014537D01*
X012607Y014298D02*
X012607Y014298D01*
X012607Y014060D02*
X012607Y014060D01*
X012237Y014060D02*
X011915Y014060D01*
X012106Y016445D02*
X015557Y016445D01*
X015557Y016683D02*
X011867Y016683D01*
X011661Y016922D02*
X015557Y016922D01*
X015557Y017160D02*
X011667Y017160D01*
X010447Y018114D02*
X010415Y018114D01*
X013618Y015252D02*
X015557Y015252D01*
X015557Y015014D02*
X013857Y015014D01*
X014095Y014775D02*
X015557Y014775D01*
X015557Y014537D02*
X014334Y014537D01*
X014572Y014298D02*
X015557Y014298D01*
X015557Y014060D02*
X014811Y014060D01*
X015049Y013821D02*
X015557Y013821D01*
X015557Y013583D02*
X015288Y013583D01*
X015526Y013344D02*
X015557Y013344D01*
X015557Y015491D02*
X013836Y015491D01*
X013877Y015729D02*
X015557Y015729D01*
X014443Y024315D02*
X011611Y024315D01*
X011423Y024554D02*
X014417Y024554D01*
X014484Y024792D02*
X011608Y024792D01*
X011667Y025031D02*
X014678Y025031D01*
X015437Y025031D02*
X015557Y025031D01*
X015557Y025269D02*
X011630Y025269D01*
X011469Y025508D02*
X015557Y025508D01*
X015557Y025746D02*
X011561Y025746D01*
X011643Y025985D02*
X014440Y025985D01*
X014417Y026223D02*
X011624Y026223D01*
X011487Y026462D02*
X014417Y026462D01*
X014417Y026700D02*
X011563Y026700D01*
X011667Y026939D02*
X014419Y026939D01*
X014546Y027654D02*
X011210Y027654D01*
X011149Y027893D02*
X014447Y027893D01*
X014450Y028131D02*
X011167Y028131D01*
X011088Y028370D02*
X014556Y028370D01*
X015057Y027893D02*
X015057Y027893D01*
X015057Y027654D02*
X015057Y027654D01*
X015057Y027416D02*
X015057Y027416D01*
X014865Y027416D02*
X011561Y027416D01*
X011667Y027177D02*
X015557Y027177D01*
X015557Y027416D02*
X015250Y027416D01*
X010645Y025508D02*
X008479Y025508D01*
X008531Y025418D02*
X008531Y025418D01*
X008557Y025269D02*
X010485Y025269D01*
X010447Y025031D02*
X008586Y025031D01*
X008544Y024792D02*
X010507Y024792D01*
X010691Y024554D02*
X008437Y024554D01*
X008531Y024717D02*
X008531Y024717D01*
X008242Y024315D02*
X010504Y024315D01*
X010447Y024077D02*
X010338Y024077D01*
X009527Y024077D02*
X007799Y024077D01*
X008080Y024179D02*
X008080Y024179D01*
X008353Y025727D02*
X008353Y025727D01*
X008329Y025746D02*
X010554Y025746D01*
X010471Y025985D02*
X007999Y025985D01*
X008017Y027654D02*
X008098Y027654D01*
X009017Y027654D02*
X009098Y027654D01*
X010017Y027654D02*
X010098Y027654D01*
X007098Y027654D02*
X007017Y027654D01*
X006098Y027654D02*
X006017Y027654D01*
X001088Y019545D02*
X001057Y019545D01*
X008570Y002850D02*
X014417Y002850D01*
X014417Y002612D02*
X008646Y002612D01*
X008618Y002373D02*
X014417Y002373D01*
X014417Y002135D02*
X008469Y002135D01*
X008167Y001896D02*
X014509Y001896D01*
X015557Y001658D02*
X008156Y001658D01*
D15*
X003197Y012397D03*
X003277Y016397D03*
X003197Y020397D03*
X003197Y023277D03*
X013437Y015677D03*
D16*
X012477Y015677D01*
X011117Y017037D01*
X011057Y017057D01*
X011057Y016057D02*
X011597Y015517D01*
X012957Y015517D01*
X015837Y012637D01*
X015837Y007517D01*
X015117Y007517D01*
X015057Y007505D01*
X012557Y009517D02*
X012557Y009557D01*
X012557Y009517D02*
X012397Y009357D01*
X011997Y009357D01*
X011757Y009117D01*
X011357Y009117D01*
X010637Y008397D01*
X008957Y008397D01*
X008797Y008557D01*
X008557Y008557D01*
X008077Y007597D02*
X010557Y007597D01*
X011517Y008557D01*
X011557Y008557D01*
X008077Y007597D02*
X007117Y008557D01*
X007057Y008557D01*
X011057Y020057D02*
X011117Y020077D01*
X011677Y020637D01*
X014637Y020637D01*
X014877Y020877D01*
X015037Y020877D01*
X015057Y020883D01*
M02*
