G75*
%MOIN*%
%OFA0B0*%
%FSLAX24Y24*%
%IPPOS*%
%LPD*%
%AMOC8*
5,1,8,0,0,1.08239X$1,22.5*
%
%ADD10C,0.0000*%
%ADD11R,0.0800X0.0800*%
%ADD12C,0.0800*%
%ADD13C,0.0740*%
%ADD14C,0.0760*%
%ADD15R,0.0787X0.0472*%
%ADD16R,0.0531X0.0236*%
%ADD17R,0.0394X0.0433*%
%ADD18C,0.0240*%
%ADD19C,0.0400*%
%ADD20C,0.0080*%
D10*
X000557Y000557D02*
X000557Y029057D01*
X016057Y029057D01*
X016057Y000557D01*
X000557Y000557D01*
X010967Y004067D02*
X010969Y004116D01*
X010975Y004164D01*
X010985Y004212D01*
X010999Y004259D01*
X011016Y004305D01*
X011037Y004349D01*
X011062Y004391D01*
X011090Y004431D01*
X011122Y004469D01*
X011156Y004504D01*
X011193Y004536D01*
X011232Y004565D01*
X011274Y004591D01*
X011318Y004613D01*
X011363Y004631D01*
X011410Y004646D01*
X011457Y004657D01*
X011506Y004664D01*
X011555Y004667D01*
X011604Y004666D01*
X011652Y004661D01*
X011701Y004652D01*
X011748Y004639D01*
X011794Y004622D01*
X011838Y004602D01*
X011881Y004578D01*
X011922Y004551D01*
X011960Y004520D01*
X011996Y004487D01*
X012028Y004451D01*
X012058Y004412D01*
X012085Y004371D01*
X012108Y004327D01*
X012127Y004282D01*
X012143Y004236D01*
X012155Y004189D01*
X012163Y004140D01*
X012167Y004091D01*
X012167Y004043D01*
X012163Y003994D01*
X012155Y003945D01*
X012143Y003898D01*
X012127Y003852D01*
X012108Y003807D01*
X012085Y003763D01*
X012058Y003722D01*
X012028Y003683D01*
X011996Y003647D01*
X011960Y003614D01*
X011922Y003583D01*
X011881Y003556D01*
X011838Y003532D01*
X011794Y003512D01*
X011748Y003495D01*
X011701Y003482D01*
X011652Y003473D01*
X011604Y003468D01*
X011555Y003467D01*
X011506Y003470D01*
X011457Y003477D01*
X011410Y003488D01*
X011363Y003503D01*
X011318Y003521D01*
X011274Y003543D01*
X011232Y003569D01*
X011193Y003598D01*
X011156Y003630D01*
X011122Y003665D01*
X011090Y003703D01*
X011062Y003743D01*
X011037Y003785D01*
X011016Y003829D01*
X010999Y003875D01*
X010985Y003922D01*
X010975Y003970D01*
X010969Y004018D01*
X010967Y004067D01*
X006967Y025067D02*
X006969Y025116D01*
X006975Y025164D01*
X006985Y025212D01*
X006999Y025259D01*
X007016Y025305D01*
X007037Y025349D01*
X007062Y025391D01*
X007090Y025431D01*
X007122Y025469D01*
X007156Y025504D01*
X007193Y025536D01*
X007232Y025565D01*
X007274Y025591D01*
X007318Y025613D01*
X007363Y025631D01*
X007410Y025646D01*
X007457Y025657D01*
X007506Y025664D01*
X007555Y025667D01*
X007604Y025666D01*
X007652Y025661D01*
X007701Y025652D01*
X007748Y025639D01*
X007794Y025622D01*
X007838Y025602D01*
X007881Y025578D01*
X007922Y025551D01*
X007960Y025520D01*
X007996Y025487D01*
X008028Y025451D01*
X008058Y025412D01*
X008085Y025371D01*
X008108Y025327D01*
X008127Y025282D01*
X008143Y025236D01*
X008155Y025189D01*
X008163Y025140D01*
X008167Y025091D01*
X008167Y025043D01*
X008163Y024994D01*
X008155Y024945D01*
X008143Y024898D01*
X008127Y024852D01*
X008108Y024807D01*
X008085Y024763D01*
X008058Y024722D01*
X008028Y024683D01*
X007996Y024647D01*
X007960Y024614D01*
X007922Y024583D01*
X007881Y024556D01*
X007838Y024532D01*
X007794Y024512D01*
X007748Y024495D01*
X007701Y024482D01*
X007652Y024473D01*
X007604Y024468D01*
X007555Y024467D01*
X007506Y024470D01*
X007457Y024477D01*
X007410Y024488D01*
X007363Y024503D01*
X007318Y024521D01*
X007274Y024543D01*
X007232Y024569D01*
X007193Y024598D01*
X007156Y024630D01*
X007122Y024665D01*
X007090Y024703D01*
X007062Y024743D01*
X007037Y024785D01*
X007016Y024829D01*
X006999Y024875D01*
X006985Y024922D01*
X006975Y024970D01*
X006969Y025018D01*
X006967Y025067D01*
D11*
X001557Y024127D03*
X001557Y020627D03*
X001557Y017127D03*
X001557Y013627D03*
X001557Y010127D03*
X001557Y006627D03*
X001487Y001557D03*
X015057Y002487D03*
X015057Y005987D03*
X015057Y017987D03*
X015057Y022987D03*
X015057Y026487D03*
X001557Y027627D03*
D12*
X001557Y026109D03*
X001557Y022609D03*
X001557Y019109D03*
X001557Y015609D03*
X001557Y012109D03*
X001557Y008609D03*
X001557Y005109D03*
X002935Y001557D03*
X004383Y001557D03*
X011507Y014557D03*
X012607Y014557D03*
X015057Y019435D03*
X015057Y020883D03*
X015057Y024505D03*
X015057Y028005D03*
X015057Y007505D03*
X015057Y004005D03*
D13*
X008557Y004557D03*
X008057Y002557D03*
X007557Y001807D03*
X007057Y002557D03*
X007057Y004557D03*
X005307Y004557D03*
X005307Y008557D03*
X006947Y009807D03*
X007047Y010807D03*
X006947Y011807D03*
X007047Y012807D03*
X006947Y013807D03*
X007047Y014807D03*
X005057Y016057D03*
X005057Y017057D03*
X005057Y018057D03*
X005057Y019057D03*
X005057Y020057D03*
X005057Y021057D03*
X005057Y022057D03*
X005057Y023057D03*
X005057Y024057D03*
X005057Y025057D03*
X005057Y026057D03*
X005057Y027057D03*
X005557Y028057D03*
X006557Y028057D03*
X007557Y028057D03*
X008557Y028057D03*
X009557Y028057D03*
X010557Y028057D03*
X011057Y027057D03*
X011057Y026057D03*
X011057Y025057D03*
X011057Y024057D03*
X011057Y023057D03*
X011057Y022057D03*
X011057Y021057D03*
X011057Y020057D03*
X011057Y019057D03*
X011057Y018057D03*
X011057Y017057D03*
X011057Y016057D03*
X009932Y018495D03*
X009932Y019495D03*
X009932Y022620D03*
X009932Y023620D03*
X008557Y008557D03*
X007057Y008557D03*
D14*
X010557Y009557D03*
X011557Y008557D03*
X012557Y009557D03*
X011557Y010557D03*
D15*
X015204Y011285D03*
X015204Y013490D03*
D16*
X013757Y012978D03*
X013757Y012584D03*
X013757Y012190D03*
X013757Y011797D03*
D17*
X013057Y023223D03*
X013057Y023892D03*
X003677Y023282D03*
X003677Y022613D03*
X003707Y020372D03*
X003707Y019703D03*
X003757Y016342D03*
X003757Y015673D03*
X003747Y012392D03*
X003747Y011723D03*
X003757Y009392D03*
X003757Y008723D03*
X003617Y005952D03*
X003617Y005283D03*
X003667Y025693D03*
X003667Y026362D03*
D18*
X003597Y026397D01*
X002157Y026397D01*
X001837Y026717D01*
X000957Y026717D01*
X000957Y025837D01*
X003117Y023677D01*
X003117Y023357D01*
X003197Y023277D01*
X003677Y023277D01*
X003677Y023282D01*
X003677Y020397D02*
X003197Y020397D01*
X003677Y020397D02*
X003707Y020372D01*
X003757Y016397D02*
X003277Y016397D01*
X003757Y016397D02*
X003757Y016342D01*
X001557Y013627D02*
X001517Y013597D01*
X001037Y013117D01*
X000957Y013197D01*
X000957Y023517D01*
X001517Y024077D01*
X001557Y024127D01*
X001037Y013117D02*
X000957Y013037D01*
X000957Y010717D01*
X001517Y010157D01*
X001557Y010127D01*
X002157Y008717D02*
X002157Y008317D01*
X000957Y007117D01*
X000957Y006077D01*
X001037Y005997D01*
X003517Y005997D01*
X003617Y005952D01*
X003677Y005917D01*
X004077Y005917D01*
X004077Y004157D01*
X001517Y001597D01*
X001487Y001557D01*
X004383Y001557D02*
X004397Y001597D01*
X005277Y002477D01*
X005277Y004477D01*
X005307Y004557D01*
X006317Y004557D01*
X006317Y011197D01*
X006877Y011757D01*
X006947Y011807D01*
X009677Y010477D02*
X009677Y005677D01*
X008557Y004557D01*
X008637Y004477D01*
X009137Y002557D01*
X015037Y002557D01*
X015057Y002487D01*
X011517Y010477D02*
X011557Y010557D01*
X011597Y010557D01*
X011597Y012637D01*
X013757Y012637D01*
X013757Y012584D01*
X013757Y012978D02*
X013757Y013037D01*
X012637Y014157D01*
X012637Y014557D01*
X012607Y014557D01*
X011597Y014477D02*
X011507Y014557D01*
X011517Y014557D01*
X011517Y012637D01*
X011597Y012637D01*
X011597Y014477D02*
X014477Y017357D01*
X014397Y017437D01*
X014397Y021837D01*
X013117Y023117D01*
X013057Y023223D01*
X013037Y023277D01*
X011677Y023277D01*
X011677Y023437D01*
X011057Y024057D01*
X015037Y017917D02*
X014477Y017357D01*
X015037Y017917D02*
X015057Y017987D01*
X011517Y010477D02*
X009677Y010477D01*
X008557Y004557D02*
X007057Y004557D01*
X007037Y004477D01*
X007037Y002557D01*
X007057Y002557D01*
X007057Y004557D02*
X006317Y004557D01*
X003757Y008717D02*
X003757Y008723D01*
X003757Y008717D02*
X002157Y008717D01*
X003197Y012397D02*
X003677Y012397D01*
X003747Y012392D01*
D19*
X003197Y012397D03*
X003277Y016397D03*
X003197Y020397D03*
X003197Y023277D03*
X013437Y015677D03*
D20*
X014477Y014637D01*
X014477Y006557D01*
X015037Y005997D01*
X015057Y005987D01*
X012317Y008557D02*
X013117Y009357D01*
X013117Y011117D01*
X013757Y011757D01*
X013757Y011797D01*
X013757Y012157D02*
X013757Y012190D01*
X013757Y012157D02*
X012557Y012157D01*
X012557Y009557D01*
X012317Y008557D02*
X011557Y008557D01*
X008937Y009437D02*
X008937Y021577D01*
X009917Y022557D01*
X009932Y022620D01*
X009917Y023597D02*
X009932Y023620D01*
X009917Y023597D02*
X008097Y021777D01*
X008097Y009537D01*
X007117Y008557D01*
X007057Y008557D01*
X005597Y008797D02*
X005357Y008557D01*
X005307Y008557D01*
X005277Y008557D01*
X004317Y007597D01*
X004317Y002957D01*
X002957Y001597D01*
X002935Y001557D01*
X002957Y001517D01*
X002957Y001037D01*
X004637Y001037D01*
X004737Y001037D01*
X004788Y001039D01*
X004839Y001044D01*
X004890Y001053D01*
X004940Y001066D01*
X004989Y001082D01*
X005036Y001102D01*
X005082Y001125D01*
X005126Y001151D01*
X005168Y001181D01*
X005208Y001213D01*
X005246Y001248D01*
X005281Y001286D01*
X005313Y001326D01*
X005343Y001368D01*
X005369Y001412D01*
X005392Y001458D01*
X005412Y001505D01*
X005428Y001554D01*
X005441Y001604D01*
X005450Y001655D01*
X005455Y001706D01*
X005457Y001757D01*
X007517Y001757D01*
X007557Y001807D01*
X008557Y008557D02*
X008937Y009437D01*
X006947Y013807D02*
X006877Y013837D01*
X005757Y014957D01*
X005757Y026397D01*
X005117Y027037D01*
X005057Y027057D01*
X003997Y026637D02*
X003037Y027597D01*
X001597Y027597D01*
X001557Y027627D01*
X001557Y026109D02*
X001597Y026077D01*
X001597Y025757D01*
X003597Y025757D01*
X003667Y025693D01*
X003997Y026637D02*
X003997Y023117D01*
X005057Y022057D01*
X005597Y022557D02*
X005597Y008797D01*
X004557Y008877D02*
X002317Y006637D01*
X001597Y006637D01*
X001557Y006627D01*
X001597Y005277D02*
X001597Y005117D01*
X001557Y005109D01*
X001597Y005277D02*
X003597Y005277D01*
X003617Y005283D01*
X004557Y008877D02*
X004557Y015517D01*
X005037Y015997D01*
X005057Y016057D01*
X004237Y016237D02*
X005057Y017057D01*
X005037Y017997D02*
X005057Y018057D01*
X005037Y017997D02*
X004077Y017037D01*
X004077Y012077D01*
X003757Y011757D01*
X003747Y011723D01*
X003677Y011757D01*
X001597Y011757D01*
X001597Y012077D01*
X001557Y012109D01*
X001597Y009357D02*
X001597Y008637D01*
X001557Y008609D01*
X001597Y009357D02*
X003757Y009357D01*
X003757Y009392D01*
X003757Y009437D01*
X004237Y009917D01*
X004237Y016237D01*
X003757Y015677D02*
X003757Y015673D01*
X003757Y015677D02*
X001597Y015677D01*
X001557Y015609D01*
X001597Y017037D02*
X001597Y017117D01*
X001557Y017127D01*
X001597Y017037D02*
X003037Y017037D01*
X005057Y019057D01*
X005057Y020057D02*
X004077Y021037D01*
X001597Y021037D01*
X001597Y020637D01*
X001557Y020627D01*
X001597Y019677D02*
X001597Y019117D01*
X001557Y019109D01*
X001597Y019677D02*
X003677Y019677D01*
X003707Y019703D01*
X005057Y021057D02*
X005037Y021117D01*
X003677Y022477D01*
X003677Y022613D01*
X003677Y022637D01*
X001597Y022637D01*
X001557Y022609D01*
X005057Y023057D02*
X005117Y023037D01*
X005597Y022557D01*
X011057Y025057D02*
X011117Y025037D01*
X013037Y025037D01*
X013037Y023917D01*
X013057Y023892D01*
X013117Y023917D01*
X015037Y023917D01*
X015037Y024477D01*
X015057Y024505D01*
X015057Y026487D02*
X015037Y026557D01*
X015037Y027037D01*
X011117Y027037D01*
X011057Y027057D01*
M02*
