G75*
%MOIN*%
%OFA0B0*%
%FSLAX24Y24*%
%IPPOS*%
%LPD*%
%AMOC8*
5,1,8,0,0,1.08239X$1,22.5*
%
%ADD10C,0.1280*%
%ADD11R,0.0880X0.0880*%
%ADD12C,0.0880*%
%ADD13C,0.0820*%
%ADD14C,0.0050*%
%ADD15R,0.0867X0.0552*%
%ADD16R,0.0611X0.0316*%
%ADD17R,0.0474X0.0513*%
D10*
X011567Y004067D03*
X007567Y025067D03*
D11*
X001487Y001557D03*
X001557Y006627D03*
X001557Y010127D03*
X001557Y013627D03*
X001557Y017127D03*
X001557Y020627D03*
X001557Y024127D03*
X001557Y027627D03*
X015057Y026487D03*
X015057Y022987D03*
X015057Y017987D03*
X015057Y005987D03*
X015057Y002487D03*
D12*
X015057Y004005D03*
X015057Y007505D03*
X015057Y019435D03*
X015057Y020883D03*
X015057Y024505D03*
X015057Y028005D03*
X001557Y026109D03*
X001557Y022609D03*
X001557Y019109D03*
X001557Y015609D03*
X001557Y012109D03*
X001557Y008609D03*
X001557Y005109D03*
X002935Y001557D03*
X004383Y001557D03*
D13*
X005307Y004557D03*
X007057Y004557D03*
X007057Y002557D03*
X007557Y001807D03*
X008057Y002557D03*
X008557Y004557D03*
X008557Y008557D03*
X007057Y008557D03*
X006947Y009807D03*
X007047Y010807D03*
X006947Y011807D03*
X007047Y012807D03*
X006947Y013807D03*
X007047Y014807D03*
X005057Y016057D03*
X005057Y017057D03*
X005057Y018057D03*
X005057Y019057D03*
X005057Y020057D03*
X005057Y021057D03*
X005057Y022057D03*
X005057Y023057D03*
X005057Y024057D03*
X005057Y025057D03*
X005057Y026057D03*
X005057Y027057D03*
X005557Y028057D03*
X006557Y028057D03*
X007557Y028057D03*
X008557Y028057D03*
X009557Y028057D03*
X010557Y028057D03*
X011057Y027057D03*
X011057Y026057D03*
X011057Y025057D03*
X011057Y024057D03*
X011057Y023057D03*
X011057Y022057D03*
X011057Y021057D03*
X011057Y020057D03*
X011057Y019057D03*
X011057Y018057D03*
X011057Y017057D03*
X011057Y016057D03*
X009932Y018495D03*
X009932Y019495D03*
X009932Y022620D03*
X009932Y023620D03*
X005307Y008557D03*
D14*
X011369Y014446D02*
X011348Y014477D01*
X011335Y014513D01*
X011329Y014551D01*
X011333Y014591D01*
X011345Y014630D01*
X011366Y014664D01*
X011393Y014693D01*
X011427Y014716D01*
X011465Y014730D01*
X011504Y014735D01*
X011544Y014730D01*
X011581Y014716D01*
X011614Y014695D01*
X011642Y014666D01*
X011662Y014632D01*
X011675Y014595D01*
X011678Y014555D01*
X011674Y014517D01*
X011661Y014481D01*
X011640Y014448D01*
X011612Y014421D01*
X011579Y014401D01*
X011543Y014388D01*
X011504Y014384D01*
X011466Y014388D01*
X011430Y014399D01*
X011397Y014419D01*
X011369Y014446D01*
X011356Y014465D02*
X011651Y014465D01*
X011673Y014514D02*
X011334Y014514D01*
X011330Y014562D02*
X011678Y014562D01*
X011669Y014611D02*
X011339Y014611D01*
X011363Y014659D02*
X011646Y014659D01*
X011594Y014708D02*
X011415Y014708D01*
X011401Y014417D02*
X011606Y014417D01*
X012436Y014514D02*
X012775Y014514D01*
X012776Y014517D02*
X012763Y014481D01*
X012742Y014448D01*
X012714Y014421D01*
X012681Y014401D01*
X012645Y014388D01*
X012606Y014384D01*
X012568Y014388D01*
X012532Y014399D01*
X012499Y014419D01*
X012471Y014446D01*
X012450Y014477D01*
X012437Y014513D01*
X012431Y014551D01*
X012435Y014591D01*
X012447Y014630D01*
X012468Y014664D01*
X012495Y014693D01*
X012529Y014716D01*
X012567Y014730D01*
X012606Y014735D01*
X012646Y014730D01*
X012683Y014716D01*
X012716Y014695D01*
X012744Y014666D01*
X012764Y014632D01*
X012777Y014595D01*
X012780Y014555D01*
X012776Y014517D01*
X012780Y014562D02*
X012432Y014562D01*
X012441Y014611D02*
X012771Y014611D01*
X012748Y014659D02*
X012465Y014659D01*
X012517Y014708D02*
X012696Y014708D01*
X012753Y014465D02*
X012458Y014465D01*
X012503Y014417D02*
X012708Y014417D01*
D15*
X015204Y013490D03*
X015204Y011285D03*
D16*
X013757Y011797D03*
X013757Y012190D03*
X013757Y012584D03*
X013757Y012978D03*
D17*
X013057Y023223D03*
X013057Y023892D03*
X003677Y023282D03*
X003677Y022613D03*
X003707Y020372D03*
X003707Y019703D03*
X003757Y016342D03*
X003757Y015673D03*
X003747Y012392D03*
X003747Y011723D03*
X003757Y009392D03*
X003757Y008723D03*
X003617Y005952D03*
X003617Y005283D03*
X003667Y025693D03*
X003667Y026362D03*
M02*
