G75*
%MOIN*%
%OFA0B0*%
%FSLAX24Y24*%
%IPPOS*%
%LPD*%
%AMOC8*
5,1,8,0,0,1.08239X$1,22.5*
%
%ADD10C,0.0030*%
%ADD11C,0.0020*%
%ADD12C,0.0080*%
%ADD13C,0.0008*%
%ADD14C,0.0100*%
%ADD15C,0.0050*%
%ADD16C,0.0157*%
%ADD17R,0.0300X0.0180*%
D10*
X000822Y003572D02*
X000967Y003572D01*
X001016Y003621D01*
X001016Y003814D01*
X000967Y003863D01*
X000822Y003863D01*
X000822Y003572D01*
X001117Y003621D02*
X001165Y003572D01*
X001262Y003572D01*
X001310Y003621D01*
X001310Y003669D01*
X001262Y003717D01*
X001165Y003717D01*
X001117Y003766D01*
X001117Y003814D01*
X001165Y003863D01*
X001262Y003863D01*
X001310Y003814D01*
X001412Y003766D02*
X001508Y003863D01*
X001508Y003572D01*
X001412Y003572D02*
X001605Y003572D01*
X001706Y003621D02*
X001706Y003669D01*
X001755Y003717D01*
X001851Y003717D01*
X001900Y003669D01*
X001900Y003621D01*
X001851Y003572D01*
X001755Y003572D01*
X001706Y003621D01*
X001755Y003717D02*
X001706Y003766D01*
X001706Y003814D01*
X001755Y003863D01*
X001851Y003863D01*
X001900Y003814D01*
X001900Y003766D01*
X001851Y003717D01*
X002001Y003717D02*
X002146Y003717D01*
X002194Y003669D01*
X002194Y003621D01*
X002146Y003572D01*
X002001Y003572D01*
X002001Y003863D01*
X002146Y003863D01*
X002194Y003814D01*
X002194Y003766D01*
X002146Y003717D01*
X002296Y003814D02*
X002344Y003863D01*
X002441Y003863D01*
X002489Y003814D01*
X002489Y003766D01*
X002296Y003572D01*
X002489Y003572D01*
X002590Y003621D02*
X002590Y003814D01*
X002639Y003863D01*
X002735Y003863D01*
X002784Y003814D01*
X002590Y003621D01*
X002639Y003572D01*
X002735Y003572D01*
X002784Y003621D01*
X002784Y003814D01*
X007832Y009822D02*
X008017Y009822D01*
X008079Y009884D01*
X008079Y009946D01*
X008017Y010007D01*
X007832Y010007D01*
X007832Y009822D02*
X007832Y010193D01*
X008017Y010193D01*
X008079Y010131D01*
X008079Y010069D01*
X008017Y010007D01*
X008201Y009822D02*
X008448Y009822D01*
X008569Y009822D02*
X008569Y010193D01*
X008631Y010007D02*
X008816Y009822D01*
X008569Y009946D02*
X008816Y010193D01*
X008734Y010822D02*
X008549Y010822D01*
X008549Y011193D01*
X008734Y011193D01*
X008796Y011131D01*
X008796Y010884D01*
X008734Y010822D01*
X008428Y010822D02*
X008428Y011193D01*
X008181Y011193D02*
X008181Y010822D01*
X008059Y010884D02*
X008059Y011007D01*
X007936Y011007D01*
X008059Y010884D02*
X007997Y010822D01*
X007874Y010822D01*
X007812Y010884D01*
X007812Y011131D01*
X007874Y011193D01*
X007997Y011193D01*
X008059Y011131D01*
X008181Y011193D02*
X008428Y010822D01*
X008201Y010193D02*
X008201Y009822D01*
X008262Y011852D02*
X008386Y011852D01*
X008448Y011914D01*
X008569Y011914D02*
X008569Y012161D01*
X008631Y012223D01*
X008754Y012223D01*
X008816Y012161D01*
X008816Y011914D02*
X008754Y011852D01*
X008631Y011852D01*
X008569Y011914D01*
X008448Y012161D02*
X008386Y012223D01*
X008262Y012223D01*
X008201Y012161D01*
X008201Y011914D01*
X008262Y011852D01*
X008079Y011976D02*
X008079Y012223D01*
X007832Y012223D02*
X007832Y011976D01*
X007956Y011852D01*
X008079Y011976D01*
X008201Y012822D02*
X008448Y013193D01*
X008569Y013193D02*
X008692Y013193D01*
X008631Y013193D02*
X008631Y012822D01*
X008692Y012822D02*
X008569Y012822D01*
X008448Y012822D02*
X008201Y013193D01*
X008079Y013193D02*
X007832Y013193D01*
X007956Y013193D02*
X007956Y012822D01*
X008079Y013832D02*
X007956Y013956D01*
X008017Y013956D02*
X007832Y013956D01*
X007832Y013832D02*
X007832Y014203D01*
X008017Y014203D01*
X008079Y014141D01*
X008079Y014017D01*
X008017Y013956D01*
X008201Y013832D02*
X008448Y014203D01*
X008569Y014203D02*
X008692Y014203D01*
X008631Y014203D02*
X008631Y013832D01*
X008692Y013832D02*
X008569Y013832D01*
X008448Y013832D02*
X008201Y014203D01*
X008181Y014822D02*
X008181Y015193D01*
X008428Y014822D01*
X008428Y015193D01*
X008549Y015193D02*
X008734Y015193D01*
X008796Y015131D01*
X008796Y014884D01*
X008734Y014822D01*
X008549Y014822D01*
X008549Y015193D01*
X008059Y015131D02*
X007997Y015193D01*
X007874Y015193D01*
X007812Y015131D01*
X007812Y014884D01*
X007874Y014822D01*
X007997Y014822D01*
X008059Y014884D01*
X008059Y015007D01*
X007936Y015007D01*
X012172Y017572D02*
X012172Y017819D01*
X012172Y017941D02*
X012295Y018064D01*
X012172Y018188D01*
X012542Y018188D01*
X012542Y018309D02*
X012172Y018309D01*
X012172Y018494D01*
X012234Y018556D01*
X012357Y018556D01*
X012419Y018494D01*
X012419Y018309D01*
X012542Y017941D02*
X012172Y017941D01*
X012172Y017696D02*
X012542Y017696D01*
X012481Y018677D02*
X012542Y018739D01*
X012542Y018862D01*
X012481Y018924D01*
X012419Y018924D01*
X012357Y018862D01*
X012357Y018801D01*
X012357Y018862D02*
X012295Y018924D01*
X012234Y018924D01*
X012172Y018862D01*
X012172Y018739D01*
X012234Y018677D01*
X012357Y019046D02*
X012234Y019169D01*
X012172Y019292D01*
X012357Y019231D02*
X012357Y019046D01*
X012481Y019046D01*
X012542Y019107D01*
X012542Y019231D01*
X012481Y019292D01*
X012419Y019292D01*
X012357Y019231D01*
X012419Y022572D02*
X012419Y022757D01*
X012357Y022819D01*
X012234Y022819D01*
X012172Y022757D01*
X012172Y022572D01*
X012542Y022572D01*
X012419Y022696D02*
X012542Y022819D01*
X012542Y022941D02*
X012542Y023188D01*
X012481Y023309D02*
X012542Y023371D01*
X012542Y023494D01*
X012481Y023556D01*
X012419Y023556D01*
X012357Y023494D01*
X012357Y023371D01*
X012295Y023309D01*
X012234Y023309D01*
X012172Y023371D01*
X012172Y023494D01*
X012234Y023556D01*
X012172Y023677D02*
X012542Y023677D01*
X012542Y023924D01*
X012357Y023801D02*
X012357Y023677D01*
X012172Y023677D02*
X012172Y023924D01*
X012172Y024046D02*
X012172Y024292D01*
X012172Y024169D02*
X012542Y024169D01*
X012172Y023188D02*
X012172Y022941D01*
X012542Y022941D01*
X012357Y022941D02*
X012357Y023064D01*
X012419Y025822D02*
X012419Y026007D01*
X012357Y026069D01*
X012234Y026069D01*
X012172Y026007D01*
X012172Y025822D01*
X012542Y025822D01*
X012481Y026191D02*
X012542Y026252D01*
X012542Y026376D01*
X012481Y026438D01*
X012234Y026438D01*
X012172Y026376D01*
X012172Y026252D01*
X012234Y026191D01*
X012481Y026191D01*
X012542Y026559D02*
X012172Y026559D01*
X012172Y026806D02*
X012542Y026806D01*
X012419Y026682D01*
X012542Y026559D01*
X012542Y026927D02*
X012542Y027174D01*
X012542Y027296D02*
X012172Y027296D01*
X012172Y027481D01*
X012234Y027542D01*
X012357Y027542D01*
X012419Y027481D01*
X012419Y027296D01*
X012419Y027419D02*
X012542Y027542D01*
X012357Y027664D02*
X012357Y027911D01*
X012172Y028032D02*
X012172Y028156D01*
X012172Y028094D02*
X012542Y028094D01*
X012542Y028032D02*
X012542Y028156D01*
X012542Y028278D02*
X012172Y028278D01*
X012542Y028525D01*
X012172Y028525D01*
X012172Y027174D02*
X012172Y026927D01*
X012542Y026927D01*
X012357Y026927D02*
X012357Y027051D01*
D11*
X012817Y026538D02*
X012817Y026317D01*
X012817Y026391D02*
X012927Y026391D01*
X012964Y026427D01*
X012964Y026501D01*
X012927Y026538D01*
X012817Y026538D01*
X012891Y026391D02*
X012964Y026317D01*
X013038Y026317D02*
X013038Y026464D01*
X013112Y026538D01*
X013185Y026464D01*
X013185Y026317D01*
X013259Y026317D02*
X013333Y026391D01*
X013406Y026317D01*
X013406Y026538D01*
X013259Y026538D02*
X013259Y026317D01*
X013185Y026427D02*
X013038Y026427D01*
X013038Y027817D02*
X013038Y028038D01*
X013185Y027817D01*
X013185Y028038D01*
X013259Y028038D02*
X013369Y028038D01*
X013406Y028001D01*
X013406Y027854D01*
X013369Y027817D01*
X013259Y027817D01*
X013259Y028038D01*
X012964Y028001D02*
X012927Y028038D01*
X012854Y028038D01*
X012817Y028001D01*
X012817Y027854D01*
X012854Y027817D01*
X012927Y027817D01*
X012964Y027854D01*
X012964Y027927D01*
X012891Y027927D01*
X012891Y021038D02*
X012964Y020964D01*
X012964Y020817D01*
X013038Y020854D02*
X013185Y021001D01*
X013185Y020854D01*
X013148Y020817D01*
X013075Y020817D01*
X013038Y020854D01*
X013038Y021001D01*
X013075Y021038D01*
X013148Y021038D01*
X013185Y021001D01*
X012964Y020927D02*
X012817Y020927D01*
X012817Y020964D02*
X012891Y021038D01*
X012817Y020964D02*
X012817Y020817D01*
X012854Y019538D02*
X012817Y019501D01*
X012817Y019354D01*
X012854Y019317D01*
X012927Y019317D01*
X012964Y019354D01*
X012964Y019427D01*
X012891Y019427D01*
X012964Y019501D02*
X012927Y019538D01*
X012854Y019538D01*
X013038Y019538D02*
X013038Y019317D01*
X013185Y019317D02*
X013038Y019538D01*
X013185Y019538D02*
X013185Y019317D01*
X013259Y019317D02*
X013369Y019317D01*
X013406Y019354D01*
X013406Y019501D01*
X013369Y019538D01*
X013259Y019538D01*
X013259Y019317D01*
X013296Y018038D02*
X013259Y018001D01*
X013259Y017854D01*
X013296Y017817D01*
X013369Y017817D01*
X013406Y017854D01*
X013406Y018001D02*
X013369Y018038D01*
X013296Y018038D01*
X013185Y018001D02*
X013148Y018038D01*
X013075Y018038D01*
X013038Y018001D01*
X013038Y017854D01*
X013075Y017817D01*
X013148Y017817D01*
X013185Y017854D01*
X012964Y017891D02*
X012964Y018038D01*
X012817Y018038D02*
X012817Y017891D01*
X012891Y017817D01*
X012964Y017891D01*
X014067Y008788D02*
X014067Y008567D01*
X014067Y008677D02*
X014214Y008677D01*
X014288Y008677D02*
X014435Y008677D01*
X014435Y008714D02*
X014435Y008567D01*
X014509Y008567D02*
X014509Y008788D01*
X014435Y008714D02*
X014362Y008788D01*
X014288Y008714D01*
X014288Y008567D01*
X014214Y008567D02*
X014214Y008788D01*
X014509Y008567D02*
X014656Y008567D01*
X014730Y008567D02*
X014877Y008567D01*
X014730Y008567D02*
X014730Y008788D01*
X013406Y007501D02*
X013259Y007354D01*
X013296Y007317D01*
X013369Y007317D01*
X013406Y007354D01*
X013406Y007501D01*
X013369Y007538D01*
X013296Y007538D01*
X013259Y007501D01*
X013259Y007354D01*
X013185Y007317D02*
X013038Y007317D01*
X013112Y007317D02*
X013112Y007538D01*
X013038Y007464D01*
X012964Y007501D02*
X012927Y007538D01*
X012817Y007538D01*
X012817Y007317D01*
X012927Y007317D01*
X012964Y007354D01*
X012964Y007501D01*
X012927Y006288D02*
X012817Y006288D01*
X012817Y006067D01*
X012927Y006067D01*
X012964Y006104D01*
X012964Y006251D01*
X012927Y006288D01*
X013038Y006214D02*
X013112Y006288D01*
X013112Y006067D01*
X013185Y006067D02*
X013038Y006067D01*
X013259Y006067D02*
X013406Y006067D01*
X013333Y006067D02*
X013333Y006288D01*
X013259Y006214D01*
X013259Y004038D02*
X013369Y004038D01*
X013406Y004001D01*
X013406Y003854D01*
X013369Y003817D01*
X013259Y003817D01*
X013259Y004038D01*
X013185Y004038D02*
X013185Y003817D01*
X013038Y004038D01*
X013038Y003817D01*
X012964Y003854D02*
X012964Y003927D01*
X012891Y003927D01*
X012964Y003854D02*
X012927Y003817D01*
X012854Y003817D01*
X012817Y003854D01*
X012817Y004001D01*
X012854Y004038D01*
X012927Y004038D01*
X012964Y004001D01*
X012964Y002788D02*
X012964Y002641D01*
X012891Y002567D01*
X012817Y002641D01*
X012817Y002788D01*
X013038Y002751D02*
X013038Y002604D01*
X013075Y002567D01*
X013148Y002567D01*
X013185Y002604D01*
X013259Y002604D02*
X013296Y002567D01*
X013369Y002567D01*
X013406Y002604D01*
X013259Y002604D02*
X013259Y002751D01*
X013296Y002788D01*
X013369Y002788D01*
X013406Y002751D01*
X013185Y002751D02*
X013148Y002788D01*
X013075Y002788D01*
X013038Y002751D01*
X013817Y001538D02*
X013817Y001317D01*
X013817Y001391D02*
X013927Y001391D01*
X013964Y001427D01*
X013964Y001501D01*
X013927Y001538D01*
X013817Y001538D01*
X014038Y001501D02*
X014038Y001354D01*
X014075Y001317D01*
X014148Y001317D01*
X014185Y001354D01*
X014185Y001501D01*
X014148Y001538D01*
X014075Y001538D01*
X014038Y001501D01*
X014259Y001538D02*
X014259Y001317D01*
X014333Y001391D01*
X014406Y001317D01*
X014406Y001538D01*
X014480Y001538D02*
X014480Y001317D01*
X014627Y001317D01*
X014701Y001317D02*
X014701Y001538D01*
X014811Y001538D01*
X014848Y001501D01*
X014848Y001427D01*
X014811Y001391D01*
X014701Y001391D01*
X014775Y001391D02*
X014848Y001317D01*
X014922Y001427D02*
X015069Y001427D01*
X015143Y001354D02*
X015143Y001501D01*
X015180Y001538D01*
X015253Y001538D01*
X015290Y001501D01*
X015290Y001354D01*
X015253Y001317D01*
X015180Y001317D01*
X015143Y001354D01*
X015364Y001354D02*
X015364Y001538D01*
X015511Y001538D02*
X015511Y001354D01*
X015474Y001317D01*
X015401Y001317D01*
X015364Y001354D01*
X015585Y001538D02*
X015732Y001538D01*
X015659Y001538D02*
X015659Y001317D01*
X014627Y001538D02*
X014480Y001538D01*
X014480Y001427D02*
X014554Y001427D01*
X004656Y003104D02*
X004619Y003067D01*
X004546Y003067D01*
X004509Y003104D01*
X004509Y003251D01*
X004546Y003288D01*
X004619Y003288D01*
X004656Y003251D01*
X004435Y003251D02*
X004398Y003288D01*
X004325Y003288D01*
X004288Y003251D01*
X004288Y003104D01*
X004325Y003067D01*
X004398Y003067D01*
X004435Y003104D01*
X004214Y003141D02*
X004214Y003288D01*
X004067Y003288D02*
X004067Y003141D01*
X004141Y003067D01*
X004214Y003141D01*
X003185Y003214D02*
X003185Y003251D01*
X003148Y003288D01*
X003075Y003288D01*
X003038Y003251D01*
X002964Y003251D02*
X002964Y003104D01*
X002927Y003067D01*
X002817Y003067D01*
X002817Y003288D01*
X002927Y003288D01*
X002964Y003251D01*
X003038Y003067D02*
X003185Y003214D01*
X003185Y003067D02*
X003038Y003067D01*
X001656Y003104D02*
X001656Y003251D01*
X001619Y003288D01*
X001509Y003288D01*
X001509Y003067D01*
X001619Y003067D01*
X001656Y003104D01*
X001435Y003067D02*
X001435Y003288D01*
X001288Y003288D02*
X001288Y003067D01*
X001214Y003104D02*
X001214Y003177D01*
X001141Y003177D01*
X001214Y003104D02*
X001177Y003067D01*
X001104Y003067D01*
X001067Y003104D01*
X001067Y003251D01*
X001104Y003288D01*
X001177Y003288D01*
X001214Y003251D01*
X001288Y003288D02*
X001435Y003067D01*
X003317Y006567D02*
X003427Y006567D01*
X003464Y006604D01*
X003464Y006751D01*
X003427Y006788D01*
X003317Y006788D01*
X003317Y006567D01*
X003538Y006604D02*
X003575Y006567D01*
X003648Y006567D01*
X003685Y006604D01*
X003685Y006751D01*
X003648Y006788D01*
X003575Y006788D01*
X003538Y006751D01*
X003538Y006714D01*
X003575Y006677D01*
X003685Y006677D01*
X003719Y007567D02*
X003829Y007567D01*
X003866Y007604D01*
X003866Y007751D01*
X003829Y007788D01*
X003719Y007788D01*
X003719Y007567D01*
X003645Y007567D02*
X003498Y007567D01*
X003498Y007788D01*
X003645Y007788D01*
X003572Y007677D02*
X003498Y007677D01*
X003424Y007567D02*
X003277Y007567D01*
X003277Y007788D01*
X003203Y007677D02*
X003056Y007677D01*
X002982Y007751D02*
X002982Y007788D01*
X002982Y007751D02*
X002909Y007677D01*
X002909Y007567D01*
X002909Y007677D02*
X002835Y007751D01*
X002835Y007788D01*
X002761Y007751D02*
X002761Y007677D01*
X002724Y007641D01*
X002614Y007641D01*
X002688Y007641D02*
X002761Y007567D01*
X002614Y007567D02*
X002614Y007788D01*
X002724Y007788D01*
X002761Y007751D01*
X002540Y007714D02*
X002540Y007567D01*
X002540Y007677D02*
X002393Y007677D01*
X002393Y007714D02*
X002467Y007788D01*
X002540Y007714D01*
X002393Y007714D02*
X002393Y007567D01*
X002246Y007567D02*
X002246Y007788D01*
X002319Y007788D02*
X002172Y007788D01*
X002098Y007788D02*
X002098Y007567D01*
X001951Y007788D01*
X001951Y007567D01*
X001877Y007567D02*
X001730Y007567D01*
X001730Y007788D01*
X001877Y007788D01*
X001804Y007677D02*
X001730Y007677D01*
X001656Y007567D02*
X001656Y007788D01*
X001583Y007714D01*
X001509Y007788D01*
X001509Y007567D01*
X001435Y007604D02*
X001435Y007751D01*
X001398Y007788D01*
X001325Y007788D01*
X001288Y007751D01*
X001288Y007604D01*
X001325Y007567D01*
X001398Y007567D01*
X001435Y007604D01*
X001214Y007567D02*
X001214Y007788D01*
X001141Y007714D01*
X001067Y007788D01*
X001067Y007567D01*
X001141Y011067D02*
X001141Y011288D01*
X001214Y011288D02*
X001067Y011288D01*
X001288Y011251D02*
X001288Y011104D01*
X001325Y011067D01*
X001398Y011067D01*
X001435Y011104D01*
X001435Y011251D01*
X001398Y011288D01*
X001325Y011288D01*
X001288Y011251D01*
X001509Y011251D02*
X001509Y011104D01*
X001546Y011067D01*
X001619Y011067D01*
X001656Y011104D01*
X001656Y011177D01*
X001583Y011177D01*
X001656Y011251D02*
X001619Y011288D01*
X001546Y011288D01*
X001509Y011251D01*
X001730Y011251D02*
X001730Y011104D01*
X001767Y011067D01*
X001840Y011067D01*
X001877Y011104D01*
X001877Y011177D01*
X001804Y011177D01*
X001877Y011251D02*
X001840Y011288D01*
X001767Y011288D01*
X001730Y011251D01*
X001951Y011288D02*
X001951Y011067D01*
X002098Y011067D01*
X002172Y011067D02*
X002172Y011288D01*
X002319Y011288D01*
X002393Y011251D02*
X002430Y011288D01*
X002503Y011288D01*
X002540Y011251D01*
X002540Y011214D01*
X002393Y011067D01*
X002540Y011067D01*
X002319Y011067D02*
X002172Y011067D01*
X002172Y011177D02*
X002246Y011177D01*
X003317Y010288D02*
X003317Y010067D01*
X003427Y010067D01*
X003464Y010104D01*
X003464Y010251D01*
X003427Y010288D01*
X003317Y010288D01*
X003538Y010251D02*
X003538Y010214D01*
X003575Y010177D01*
X003648Y010177D01*
X003685Y010141D01*
X003685Y010104D01*
X003648Y010067D01*
X003575Y010067D01*
X003538Y010104D01*
X003538Y010141D01*
X003575Y010177D01*
X003648Y010177D02*
X003685Y010214D01*
X003685Y010251D01*
X003648Y010288D01*
X003575Y010288D01*
X003538Y010251D01*
X003538Y013567D02*
X003538Y013604D01*
X003685Y013751D01*
X003685Y013788D01*
X003538Y013788D01*
X003464Y013751D02*
X003464Y013604D01*
X003427Y013567D01*
X003317Y013567D01*
X003317Y013788D01*
X003427Y013788D01*
X003464Y013751D01*
X002909Y014567D02*
X002909Y014677D01*
X002982Y014751D01*
X002982Y014788D01*
X002909Y014677D02*
X002835Y014751D01*
X002835Y014788D01*
X002761Y014751D02*
X002761Y014677D01*
X002724Y014641D01*
X002614Y014641D01*
X002688Y014641D02*
X002761Y014567D01*
X002614Y014567D02*
X002614Y014788D01*
X002724Y014788D01*
X002761Y014751D01*
X002540Y014714D02*
X002540Y014567D01*
X002540Y014677D02*
X002393Y014677D01*
X002393Y014714D02*
X002467Y014788D01*
X002540Y014714D01*
X002393Y014714D02*
X002393Y014567D01*
X002246Y014567D02*
X002246Y014788D01*
X002319Y014788D02*
X002172Y014788D01*
X002098Y014788D02*
X002098Y014567D01*
X001951Y014788D01*
X001951Y014567D01*
X001877Y014567D02*
X001730Y014567D01*
X001730Y014788D01*
X001877Y014788D01*
X001804Y014677D02*
X001730Y014677D01*
X001656Y014567D02*
X001656Y014788D01*
X001583Y014714D01*
X001509Y014788D01*
X001509Y014567D01*
X001435Y014604D02*
X001435Y014751D01*
X001398Y014788D01*
X001325Y014788D01*
X001288Y014751D01*
X001288Y014604D01*
X001325Y014567D01*
X001398Y014567D01*
X001435Y014604D01*
X001214Y014567D02*
X001214Y014788D01*
X001141Y014714D01*
X001067Y014788D01*
X001067Y014567D01*
X001141Y018067D02*
X001141Y018288D01*
X001214Y018288D02*
X001067Y018288D01*
X001288Y018251D02*
X001288Y018104D01*
X001325Y018067D01*
X001398Y018067D01*
X001435Y018104D01*
X001435Y018251D01*
X001398Y018288D01*
X001325Y018288D01*
X001288Y018251D01*
X001509Y018251D02*
X001509Y018104D01*
X001546Y018067D01*
X001619Y018067D01*
X001656Y018104D01*
X001656Y018177D01*
X001583Y018177D01*
X001656Y018251D02*
X001619Y018288D01*
X001546Y018288D01*
X001509Y018251D01*
X001730Y018251D02*
X001730Y018104D01*
X001767Y018067D01*
X001840Y018067D01*
X001877Y018104D01*
X001877Y018177D01*
X001804Y018177D01*
X001877Y018251D02*
X001840Y018288D01*
X001767Y018288D01*
X001730Y018251D01*
X001951Y018288D02*
X001951Y018067D01*
X002098Y018067D01*
X002172Y018067D02*
X002172Y018288D01*
X002319Y018288D01*
X002393Y018251D02*
X002430Y018288D01*
X002503Y018288D01*
X002540Y018251D01*
X002540Y018214D01*
X002393Y018067D01*
X002540Y018067D01*
X002614Y018177D02*
X002761Y018177D01*
X002835Y018067D02*
X002982Y018067D01*
X003056Y018067D02*
X003056Y018288D01*
X003203Y018288D01*
X003277Y018288D02*
X003387Y018288D01*
X003424Y018251D01*
X003424Y018104D01*
X003387Y018067D01*
X003277Y018067D01*
X003277Y018288D01*
X003130Y018177D02*
X003056Y018177D01*
X003056Y018067D02*
X003203Y018067D01*
X002835Y018067D02*
X002835Y018288D01*
X003317Y017288D02*
X003427Y017288D01*
X003464Y017251D01*
X003464Y017104D01*
X003427Y017067D01*
X003317Y017067D01*
X003317Y017288D01*
X003538Y017177D02*
X003648Y017177D01*
X003685Y017141D01*
X003685Y017104D01*
X003648Y017067D01*
X003575Y017067D01*
X003538Y017104D01*
X003538Y017177D01*
X003612Y017251D01*
X003685Y017288D01*
X002319Y018067D02*
X002172Y018067D01*
X002172Y018177D02*
X002246Y018177D01*
X003317Y021067D02*
X003427Y021067D01*
X003464Y021104D01*
X003464Y021251D01*
X003427Y021288D01*
X003317Y021288D01*
X003317Y021067D01*
X003538Y021104D02*
X003575Y021067D01*
X003648Y021067D01*
X003685Y021104D01*
X003685Y021177D01*
X003648Y021214D01*
X003612Y021214D01*
X003538Y021177D01*
X003538Y021288D01*
X003685Y021288D01*
X002982Y021604D02*
X002945Y021567D01*
X002835Y021567D01*
X002835Y021788D01*
X002945Y021788D01*
X002982Y021751D01*
X002982Y021604D01*
X002761Y021567D02*
X002614Y021567D01*
X002614Y021788D01*
X002761Y021788D01*
X002688Y021677D02*
X002614Y021677D01*
X002540Y021567D02*
X002393Y021567D01*
X002393Y021788D01*
X002319Y021677D02*
X002172Y021677D01*
X002098Y021677D02*
X002061Y021641D01*
X001951Y021641D01*
X002025Y021641D02*
X002098Y021567D01*
X002098Y021677D02*
X002098Y021751D01*
X002061Y021788D01*
X001951Y021788D01*
X001951Y021567D01*
X001877Y021567D02*
X001730Y021567D01*
X001730Y021788D01*
X001877Y021788D01*
X001804Y021677D02*
X001730Y021677D01*
X001656Y021567D02*
X001656Y021788D01*
X001509Y021788D02*
X001509Y021567D01*
X001583Y021641D01*
X001656Y021567D01*
X001435Y021604D02*
X001435Y021751D01*
X001398Y021788D01*
X001325Y021788D01*
X001288Y021751D01*
X001288Y021604D01*
X001325Y021567D01*
X001398Y021567D01*
X001435Y021604D01*
X001214Y021677D02*
X001177Y021641D01*
X001067Y021641D01*
X001067Y021567D02*
X001067Y021788D01*
X001177Y021788D01*
X001214Y021751D01*
X001214Y021677D01*
X001141Y025067D02*
X001141Y025288D01*
X001214Y025288D02*
X001067Y025288D01*
X001288Y025251D02*
X001288Y025104D01*
X001325Y025067D01*
X001398Y025067D01*
X001435Y025104D01*
X001435Y025251D01*
X001398Y025288D01*
X001325Y025288D01*
X001288Y025251D01*
X001509Y025251D02*
X001509Y025104D01*
X001546Y025067D01*
X001619Y025067D01*
X001656Y025104D01*
X001656Y025177D01*
X001583Y025177D01*
X001656Y025251D02*
X001619Y025288D01*
X001546Y025288D01*
X001509Y025251D01*
X001730Y025251D02*
X001730Y025104D01*
X001767Y025067D01*
X001840Y025067D01*
X001877Y025104D01*
X001877Y025177D01*
X001804Y025177D01*
X001877Y025251D02*
X001840Y025288D01*
X001767Y025288D01*
X001730Y025251D01*
X001951Y025288D02*
X001951Y025067D01*
X002098Y025067D01*
X002172Y025067D02*
X002172Y025288D01*
X002319Y025288D01*
X002246Y025177D02*
X002172Y025177D01*
X002172Y025067D02*
X002319Y025067D01*
X003317Y024288D02*
X003317Y024067D01*
X003427Y024067D01*
X003464Y024104D01*
X003464Y024251D01*
X003427Y024288D01*
X003317Y024288D01*
X003538Y024177D02*
X003685Y024177D01*
X003648Y024067D02*
X003648Y024288D01*
X003538Y024177D01*
X003575Y027567D02*
X003538Y027604D01*
X003575Y027567D02*
X003648Y027567D01*
X003685Y027604D01*
X003685Y027641D01*
X003648Y027677D01*
X003612Y027677D01*
X003648Y027677D02*
X003685Y027714D01*
X003685Y027751D01*
X003648Y027788D01*
X003575Y027788D01*
X003538Y027751D01*
X003464Y027751D02*
X003464Y027604D01*
X003427Y027567D01*
X003317Y027567D01*
X003317Y027788D01*
X003427Y027788D01*
X003464Y027751D01*
X003166Y028567D02*
X003056Y028567D01*
X003056Y028788D01*
X003166Y028788D01*
X003203Y028751D01*
X003203Y028604D01*
X003166Y028567D01*
X002982Y028567D02*
X002835Y028567D01*
X002835Y028788D01*
X002982Y028788D01*
X002909Y028677D02*
X002835Y028677D01*
X002761Y028567D02*
X002614Y028567D01*
X002614Y028788D01*
X002540Y028677D02*
X002393Y028677D01*
X002319Y028567D02*
X002172Y028567D01*
X002172Y028788D01*
X002319Y028788D01*
X002246Y028677D02*
X002172Y028677D01*
X002098Y028567D02*
X001951Y028567D01*
X001951Y028788D01*
X001877Y028751D02*
X001840Y028788D01*
X001767Y028788D01*
X001730Y028751D01*
X001730Y028604D01*
X001767Y028567D01*
X001840Y028567D01*
X001877Y028604D01*
X001877Y028677D01*
X001804Y028677D01*
X001656Y028677D02*
X001583Y028677D01*
X001656Y028677D02*
X001656Y028604D01*
X001619Y028567D01*
X001546Y028567D01*
X001509Y028604D01*
X001509Y028751D01*
X001546Y028788D01*
X001619Y028788D01*
X001656Y028751D01*
X001435Y028751D02*
X001398Y028788D01*
X001325Y028788D01*
X001288Y028751D01*
X001288Y028604D01*
X001325Y028567D01*
X001398Y028567D01*
X001435Y028604D01*
X001435Y028751D01*
X001214Y028788D02*
X001067Y028788D01*
X001141Y028788D02*
X001141Y028567D01*
D12*
X000652Y000455D02*
X000652Y000140D01*
X005219Y000140D01*
X005219Y000455D01*
X000652Y000455D01*
X000652Y002896D01*
X005219Y002896D01*
X005219Y000455D01*
X006512Y002657D02*
X006670Y002657D01*
X006733Y003207D02*
X008382Y003207D01*
X008445Y002657D02*
X008603Y002657D01*
X007670Y002657D02*
X007445Y002657D01*
X007530Y005317D02*
X006585Y005317D01*
X006585Y007797D01*
X007530Y007797D01*
X007530Y005317D01*
X008085Y005317D02*
X008085Y007797D01*
X009030Y007797D01*
X009030Y005317D01*
X008085Y005317D01*
X007247Y009307D02*
X006747Y009307D01*
X006497Y009557D01*
X006497Y010057D01*
X006747Y010307D01*
X007247Y010307D01*
X007497Y010057D01*
X007497Y009557D01*
X007247Y009307D01*
X007247Y010307D02*
X007497Y010557D01*
X007497Y011057D01*
X007247Y011307D01*
X006747Y011307D01*
X006497Y011557D01*
X006497Y012057D01*
X006747Y012307D01*
X007247Y012307D01*
X007497Y012057D01*
X007497Y011557D01*
X007247Y011307D01*
X006747Y011307D02*
X006497Y011057D01*
X006497Y010557D01*
X006747Y010307D01*
X006747Y012307D02*
X006497Y012557D01*
X006497Y013057D01*
X006747Y013307D01*
X007247Y013307D01*
X007497Y013057D01*
X007497Y012557D01*
X007247Y012307D01*
X007247Y013307D02*
X007497Y013557D01*
X007497Y014057D01*
X007247Y014307D01*
X006747Y014307D01*
X006497Y014557D01*
X006497Y015057D01*
X006747Y015307D01*
X007247Y015307D01*
X007497Y015057D01*
X007497Y014557D01*
X007247Y014307D01*
X006747Y014307D02*
X006497Y014057D01*
X006497Y013557D01*
X006747Y013307D01*
X005780Y007797D02*
X004835Y007797D01*
X004835Y005317D01*
X005780Y005317D01*
X005780Y007797D01*
X002896Y007990D02*
X000455Y007990D01*
X000455Y010746D01*
X002896Y010746D01*
X002896Y007990D01*
X002896Y007246D02*
X000455Y007246D01*
X000455Y004490D01*
X000140Y004490D01*
X000140Y007246D01*
X000455Y007246D01*
X000455Y007990D02*
X000140Y007990D01*
X000140Y010746D01*
X000455Y010746D01*
X000455Y011490D02*
X000140Y011490D01*
X000140Y014246D01*
X000455Y014246D01*
X000455Y011490D01*
X002896Y011490D01*
X002896Y014246D01*
X000455Y014246D01*
X000455Y014990D02*
X000140Y014990D01*
X000140Y017746D01*
X000455Y017746D01*
X000455Y014990D01*
X002896Y014990D01*
X002896Y017746D01*
X000455Y017746D01*
X000455Y018490D02*
X000140Y018490D01*
X000140Y021246D01*
X000455Y021246D01*
X000455Y018490D01*
X002896Y018490D01*
X002896Y021246D01*
X000455Y021246D01*
X000455Y021990D02*
X000140Y021990D01*
X000140Y024746D01*
X000455Y024746D01*
X000455Y021990D01*
X002896Y021990D01*
X002896Y024746D01*
X000455Y024746D01*
X000455Y025490D02*
X000140Y025490D01*
X000140Y028246D01*
X000455Y028246D01*
X000455Y025490D01*
X002896Y025490D01*
X002896Y028246D01*
X000455Y028246D01*
X002896Y007246D02*
X002896Y004490D01*
X000455Y004490D01*
X013719Y004624D02*
X013719Y001868D01*
X016160Y001868D01*
X016160Y004624D01*
X016475Y004624D01*
X016475Y001868D01*
X016160Y001868D01*
X016160Y004624D02*
X013719Y004624D01*
X013719Y005368D02*
X016160Y005368D01*
X016160Y008124D01*
X016475Y008124D01*
X016475Y005368D01*
X016160Y005368D01*
X016160Y008124D02*
X013719Y008124D01*
X013719Y005368D01*
X013719Y017152D02*
X016160Y017152D01*
X016160Y021719D01*
X016475Y021719D01*
X016475Y017152D01*
X016160Y017152D01*
X013719Y017152D02*
X013719Y021719D01*
X016160Y021719D01*
X016160Y022368D02*
X016160Y025124D01*
X016475Y025124D01*
X016475Y022368D01*
X016160Y022368D01*
X013719Y022368D01*
X013719Y025124D01*
X016160Y025124D01*
X016160Y025868D02*
X016160Y028624D01*
X016475Y028624D01*
X016475Y025868D01*
X016160Y025868D01*
X013719Y025868D01*
X013719Y028624D01*
X016160Y028624D01*
D13*
X006702Y003226D02*
X006759Y003181D01*
X006758Y003182D02*
X006722Y003132D01*
X006689Y003081D01*
X006659Y003028D01*
X006632Y002972D01*
X006609Y002916D01*
X006589Y002858D01*
X006572Y002799D01*
X006560Y002739D01*
X006550Y002679D01*
X006545Y002618D01*
X006543Y002557D01*
X006545Y002496D01*
X006550Y002435D01*
X006560Y002374D01*
X006572Y002314D01*
X006589Y002255D01*
X006609Y002198D01*
X006632Y002141D01*
X006659Y002086D01*
X006689Y002033D01*
X006722Y001981D01*
X006758Y001932D01*
X006798Y001885D01*
X006840Y001840D01*
X006884Y001798D01*
X006931Y001759D01*
X006980Y001723D01*
X007032Y001690D01*
X007085Y001660D01*
X007140Y001633D01*
X007196Y001609D01*
X007254Y001589D01*
X007233Y001521D01*
X007233Y001520D01*
X007171Y001542D01*
X007111Y001567D01*
X007052Y001596D01*
X006995Y001628D01*
X006940Y001664D01*
X006887Y001703D01*
X006836Y001745D01*
X006789Y001789D01*
X006744Y001837D01*
X006702Y001888D01*
X006663Y001940D01*
X006627Y001995D01*
X006595Y002053D01*
X006567Y002111D01*
X006542Y002172D01*
X006520Y002234D01*
X006503Y002297D01*
X006489Y002361D01*
X006479Y002426D01*
X006473Y002491D01*
X006471Y002557D01*
X006473Y002622D01*
X006479Y002688D01*
X006489Y002752D01*
X006502Y002817D01*
X006520Y002880D01*
X006541Y002942D01*
X006566Y003002D01*
X006595Y003061D01*
X006627Y003118D01*
X006663Y003173D01*
X006702Y003226D01*
X006707Y003222D01*
X006669Y003169D01*
X006633Y003115D01*
X006601Y003058D01*
X006573Y002999D01*
X006548Y002939D01*
X006527Y002878D01*
X006509Y002815D01*
X006496Y002751D01*
X006486Y002687D01*
X006480Y002622D01*
X006478Y002557D01*
X006480Y002492D01*
X006486Y002427D01*
X006496Y002362D01*
X006509Y002299D01*
X006527Y002236D01*
X006548Y002175D01*
X006573Y002114D01*
X006601Y002056D01*
X006633Y001999D01*
X006669Y001944D01*
X006707Y001892D01*
X006749Y001842D01*
X006794Y001794D01*
X006841Y001750D01*
X006891Y001708D01*
X006943Y001669D01*
X006998Y001634D01*
X007055Y001602D01*
X007113Y001573D01*
X007174Y001548D01*
X007235Y001527D01*
X007237Y001534D01*
X007176Y001555D01*
X007116Y001580D01*
X007058Y001608D01*
X007002Y001640D01*
X006947Y001675D01*
X006895Y001714D01*
X006846Y001755D01*
X006799Y001799D01*
X006754Y001846D01*
X006713Y001896D01*
X006675Y001948D01*
X006639Y002003D01*
X006608Y002059D01*
X006579Y002117D01*
X006555Y002177D01*
X006534Y002238D01*
X006516Y002300D01*
X006503Y002364D01*
X006493Y002428D01*
X006487Y002492D01*
X006485Y002557D01*
X006487Y002621D01*
X006493Y002686D01*
X006502Y002750D01*
X006516Y002813D01*
X006533Y002875D01*
X006554Y002937D01*
X006579Y002996D01*
X006607Y003055D01*
X006639Y003111D01*
X006674Y003165D01*
X006713Y003217D01*
X006718Y003213D01*
X006680Y003161D01*
X006645Y003107D01*
X006614Y003051D01*
X006586Y002994D01*
X006561Y002934D01*
X006540Y002873D01*
X006523Y002811D01*
X006509Y002749D01*
X006500Y002685D01*
X006494Y002621D01*
X006492Y002557D01*
X006494Y002493D01*
X006500Y002429D01*
X006509Y002365D01*
X006523Y002302D01*
X006540Y002240D01*
X006561Y002179D01*
X006586Y002120D01*
X006614Y002062D01*
X006645Y002006D01*
X006680Y001952D01*
X006718Y001901D01*
X006760Y001851D01*
X006804Y001804D01*
X006850Y001760D01*
X006900Y001719D01*
X006951Y001681D01*
X007005Y001646D01*
X007061Y001614D01*
X007119Y001586D01*
X007178Y001562D01*
X007239Y001541D01*
X007241Y001547D01*
X007181Y001568D01*
X007122Y001593D01*
X007065Y001621D01*
X007009Y001652D01*
X006955Y001687D01*
X006904Y001725D01*
X006855Y001765D01*
X006808Y001809D01*
X006765Y001856D01*
X006724Y001905D01*
X006686Y001956D01*
X006651Y002010D01*
X006620Y002066D01*
X006592Y002123D01*
X006568Y002182D01*
X006547Y002242D01*
X006530Y002304D01*
X006516Y002366D01*
X006507Y002429D01*
X006501Y002493D01*
X006499Y002557D01*
X006501Y002621D01*
X006507Y002684D01*
X006516Y002747D01*
X006530Y002810D01*
X006547Y002871D01*
X006568Y002932D01*
X006592Y002991D01*
X006620Y003048D01*
X006651Y003104D01*
X006686Y003157D01*
X006724Y003209D01*
X006729Y003204D01*
X006692Y003153D01*
X006657Y003100D01*
X006626Y003045D01*
X006598Y002988D01*
X006574Y002929D01*
X006553Y002869D01*
X006536Y002808D01*
X006523Y002746D01*
X006514Y002683D01*
X006508Y002620D01*
X006506Y002557D01*
X006508Y002493D01*
X006514Y002430D01*
X006523Y002368D01*
X006537Y002306D01*
X006554Y002244D01*
X006574Y002184D01*
X006599Y002126D01*
X006626Y002069D01*
X006657Y002014D01*
X006692Y001960D01*
X006729Y001909D01*
X006770Y001860D01*
X006813Y001814D01*
X006860Y001771D01*
X006908Y001730D01*
X006959Y001692D01*
X007013Y001658D01*
X007068Y001627D01*
X007125Y001599D01*
X007183Y001575D01*
X007243Y001554D01*
X007245Y001561D01*
X007186Y001581D01*
X007128Y001605D01*
X007071Y001633D01*
X007016Y001664D01*
X006963Y001698D01*
X006913Y001736D01*
X006864Y001776D01*
X006818Y001819D01*
X006775Y001865D01*
X006735Y001914D01*
X006698Y001964D01*
X006663Y002017D01*
X006632Y002072D01*
X006605Y002129D01*
X006581Y002187D01*
X006560Y002246D01*
X006543Y002307D01*
X006530Y002369D01*
X006521Y002431D01*
X006515Y002494D01*
X006513Y002557D01*
X006515Y002620D01*
X006521Y002682D01*
X006530Y002745D01*
X006543Y002806D01*
X006560Y002867D01*
X006581Y002927D01*
X006605Y002985D01*
X006632Y003042D01*
X006663Y003096D01*
X006697Y003149D01*
X006735Y003200D01*
X006740Y003196D01*
X006703Y003145D01*
X006669Y003093D01*
X006638Y003038D01*
X006611Y002982D01*
X006587Y002924D01*
X006567Y002865D01*
X006550Y002805D01*
X006537Y002744D01*
X006528Y002682D01*
X006522Y002619D01*
X006520Y002557D01*
X006522Y002494D01*
X006528Y002432D01*
X006537Y002370D01*
X006550Y002309D01*
X006567Y002249D01*
X006587Y002189D01*
X006611Y002132D01*
X006639Y002075D01*
X006669Y002021D01*
X006703Y001968D01*
X006740Y001918D01*
X006780Y001870D01*
X006823Y001824D01*
X006869Y001781D01*
X006917Y001741D01*
X006967Y001704D01*
X007020Y001670D01*
X007074Y001639D01*
X007131Y001612D01*
X007188Y001588D01*
X007247Y001567D01*
X007250Y001574D01*
X007191Y001594D01*
X007133Y001618D01*
X007078Y001645D01*
X007023Y001676D01*
X006971Y001710D01*
X006921Y001747D01*
X006873Y001786D01*
X006828Y001829D01*
X006786Y001874D01*
X006746Y001922D01*
X006709Y001972D01*
X006675Y002024D01*
X006645Y002079D01*
X006618Y002134D01*
X006594Y002192D01*
X006574Y002251D01*
X006557Y002311D01*
X006544Y002371D01*
X006535Y002433D01*
X006529Y002495D01*
X006527Y002557D01*
X006529Y002619D01*
X006534Y002681D01*
X006544Y002742D01*
X006557Y002803D01*
X006573Y002863D01*
X006594Y002922D01*
X006617Y002979D01*
X006645Y003035D01*
X006675Y003089D01*
X006709Y003141D01*
X006746Y003191D01*
X006751Y003187D01*
X006715Y003137D01*
X006681Y003086D01*
X006651Y003032D01*
X006624Y002976D01*
X006600Y002919D01*
X006580Y002861D01*
X006564Y002801D01*
X006551Y002741D01*
X006541Y002680D01*
X006536Y002618D01*
X006534Y002557D01*
X006536Y002495D01*
X006541Y002434D01*
X006551Y002373D01*
X006564Y002312D01*
X006580Y002253D01*
X006600Y002194D01*
X006624Y002137D01*
X006651Y002082D01*
X006681Y002028D01*
X006715Y001976D01*
X006751Y001926D01*
X006791Y001879D01*
X006833Y001834D01*
X006878Y001792D01*
X006926Y001752D01*
X006975Y001716D01*
X007027Y001682D01*
X007081Y001652D01*
X007136Y001625D01*
X007193Y001601D01*
X007252Y001581D01*
X007254Y001587D01*
X007196Y001607D01*
X007139Y001631D01*
X007084Y001658D01*
X007031Y001688D01*
X006979Y001721D01*
X006930Y001758D01*
X006883Y001797D01*
X006838Y001839D01*
X006796Y001884D01*
X006757Y001931D01*
X006721Y001980D01*
X006687Y002032D01*
X006657Y002085D01*
X006630Y002140D01*
X006607Y002197D01*
X006587Y002255D01*
X006571Y002314D01*
X006558Y002374D01*
X006548Y002434D01*
X006543Y002495D01*
X006541Y002557D01*
X006543Y002618D01*
X006548Y002679D01*
X006558Y002740D01*
X006570Y002800D01*
X006587Y002859D01*
X006607Y002917D01*
X006630Y002973D01*
X006657Y003028D01*
X006687Y003082D01*
X006720Y003133D01*
X006757Y003183D01*
X007880Y001521D02*
X007859Y001590D01*
X007860Y001589D02*
X007918Y001609D01*
X007974Y001633D01*
X008029Y001660D01*
X008082Y001690D01*
X008134Y001723D01*
X008183Y001759D01*
X008230Y001798D01*
X008274Y001840D01*
X008316Y001885D01*
X008355Y001932D01*
X008392Y001981D01*
X008425Y002033D01*
X008455Y002086D01*
X008482Y002141D01*
X008505Y002198D01*
X008525Y002255D01*
X008542Y002314D01*
X008554Y002374D01*
X008564Y002435D01*
X008569Y002496D01*
X008571Y002557D01*
X008569Y002618D01*
X008564Y002679D01*
X008554Y002739D01*
X008542Y002799D01*
X008525Y002858D01*
X008505Y002916D01*
X008482Y002972D01*
X008455Y003028D01*
X008425Y003081D01*
X008392Y003132D01*
X008356Y003182D01*
X008412Y003226D01*
X008451Y003173D01*
X008487Y003118D01*
X008519Y003061D01*
X008548Y003002D01*
X008573Y002942D01*
X008594Y002880D01*
X008612Y002816D01*
X008625Y002752D01*
X008635Y002688D01*
X008641Y002622D01*
X008643Y002557D01*
X008641Y002491D01*
X008635Y002426D01*
X008625Y002361D01*
X008611Y002297D01*
X008594Y002234D01*
X008572Y002172D01*
X008547Y002111D01*
X008519Y002053D01*
X008487Y001995D01*
X008451Y001940D01*
X008412Y001888D01*
X008370Y001837D01*
X008325Y001789D01*
X008278Y001744D01*
X008227Y001703D01*
X008174Y001664D01*
X008119Y001628D01*
X008062Y001596D01*
X008003Y001567D01*
X007943Y001542D01*
X007881Y001520D01*
X007879Y001527D01*
X007940Y001548D01*
X008001Y001573D01*
X008059Y001602D01*
X008116Y001634D01*
X008171Y001669D01*
X008223Y001708D01*
X008273Y001750D01*
X008320Y001794D01*
X008365Y001842D01*
X008407Y001892D01*
X008445Y001944D01*
X008481Y001999D01*
X008513Y002056D01*
X008541Y002114D01*
X008566Y002175D01*
X008587Y002236D01*
X008605Y002299D01*
X008618Y002362D01*
X008628Y002427D01*
X008634Y002492D01*
X008636Y002557D01*
X008634Y002622D01*
X008628Y002687D01*
X008618Y002751D01*
X008605Y002815D01*
X008587Y002878D01*
X008566Y002939D01*
X008541Y002999D01*
X008513Y003058D01*
X008481Y003115D01*
X008445Y003169D01*
X008407Y003222D01*
X008401Y003217D01*
X008440Y003165D01*
X008475Y003111D01*
X008507Y003055D01*
X008535Y002996D01*
X008560Y002937D01*
X008581Y002875D01*
X008598Y002813D01*
X008612Y002750D01*
X008621Y002686D01*
X008627Y002621D01*
X008629Y002557D01*
X008627Y002492D01*
X008621Y002428D01*
X008611Y002364D01*
X008598Y002300D01*
X008580Y002238D01*
X008559Y002177D01*
X008535Y002117D01*
X008506Y002059D01*
X008475Y002003D01*
X008439Y001948D01*
X008401Y001896D01*
X008360Y001846D01*
X008315Y001799D01*
X008268Y001755D01*
X008219Y001714D01*
X008167Y001675D01*
X008112Y001640D01*
X008056Y001608D01*
X007998Y001580D01*
X007938Y001555D01*
X007877Y001534D01*
X007875Y001541D01*
X007936Y001562D01*
X007995Y001586D01*
X008053Y001614D01*
X008109Y001646D01*
X008163Y001681D01*
X008214Y001719D01*
X008264Y001760D01*
X008310Y001804D01*
X008354Y001851D01*
X008396Y001901D01*
X008434Y001952D01*
X008469Y002006D01*
X008500Y002062D01*
X008528Y002120D01*
X008553Y002179D01*
X008574Y002240D01*
X008591Y002302D01*
X008605Y002365D01*
X008614Y002429D01*
X008620Y002493D01*
X008622Y002557D01*
X008620Y002621D01*
X008614Y002685D01*
X008605Y002749D01*
X008591Y002811D01*
X008574Y002873D01*
X008553Y002934D01*
X008528Y002994D01*
X008500Y003051D01*
X008469Y003107D01*
X008434Y003161D01*
X008396Y003213D01*
X008390Y003209D01*
X008428Y003157D01*
X008463Y003104D01*
X008494Y003048D01*
X008522Y002991D01*
X008546Y002932D01*
X008567Y002871D01*
X008584Y002810D01*
X008598Y002747D01*
X008607Y002684D01*
X008613Y002621D01*
X008615Y002557D01*
X008613Y002493D01*
X008607Y002429D01*
X008598Y002366D01*
X008584Y002304D01*
X008567Y002242D01*
X008546Y002182D01*
X008522Y002123D01*
X008494Y002066D01*
X008463Y002010D01*
X008428Y001956D01*
X008390Y001905D01*
X008349Y001856D01*
X008306Y001809D01*
X008259Y001765D01*
X008210Y001725D01*
X008159Y001687D01*
X008105Y001652D01*
X008049Y001621D01*
X007992Y001593D01*
X007933Y001568D01*
X007873Y001547D01*
X007871Y001554D01*
X007931Y001575D01*
X007989Y001599D01*
X008046Y001627D01*
X008101Y001658D01*
X008155Y001692D01*
X008206Y001730D01*
X008254Y001771D01*
X008301Y001814D01*
X008344Y001860D01*
X008385Y001909D01*
X008422Y001960D01*
X008457Y002014D01*
X008488Y002069D01*
X008515Y002126D01*
X008540Y002184D01*
X008560Y002244D01*
X008577Y002305D01*
X008591Y002368D01*
X008600Y002430D01*
X008606Y002493D01*
X008608Y002557D01*
X008606Y002620D01*
X008600Y002683D01*
X008591Y002746D01*
X008578Y002808D01*
X008561Y002869D01*
X008540Y002929D01*
X008516Y002988D01*
X008488Y003045D01*
X008457Y003100D01*
X008422Y003153D01*
X008385Y003204D01*
X008379Y003200D01*
X008417Y003149D01*
X008451Y003096D01*
X008482Y003042D01*
X008509Y002985D01*
X008533Y002927D01*
X008554Y002867D01*
X008571Y002806D01*
X008584Y002745D01*
X008593Y002682D01*
X008599Y002620D01*
X008601Y002557D01*
X008599Y002494D01*
X008593Y002431D01*
X008584Y002369D01*
X008571Y002307D01*
X008554Y002246D01*
X008533Y002187D01*
X008509Y002129D01*
X008482Y002072D01*
X008451Y002017D01*
X008416Y001964D01*
X008379Y001913D01*
X008339Y001865D01*
X008296Y001819D01*
X008250Y001776D01*
X008201Y001736D01*
X008151Y001698D01*
X008098Y001664D01*
X008043Y001633D01*
X007986Y001605D01*
X007928Y001581D01*
X007869Y001561D01*
X007867Y001567D01*
X007926Y001588D01*
X007983Y001612D01*
X008040Y001639D01*
X008094Y001670D01*
X008147Y001704D01*
X008197Y001741D01*
X008245Y001781D01*
X008291Y001824D01*
X008334Y001870D01*
X008374Y001918D01*
X008411Y001968D01*
X008445Y002021D01*
X008475Y002075D01*
X008503Y002132D01*
X008527Y002189D01*
X008547Y002249D01*
X008564Y002309D01*
X008577Y002370D01*
X008586Y002432D01*
X008592Y002494D01*
X008594Y002557D01*
X008592Y002619D01*
X008586Y002682D01*
X008577Y002743D01*
X008564Y002805D01*
X008547Y002865D01*
X008527Y002924D01*
X008503Y002982D01*
X008476Y003038D01*
X008445Y003093D01*
X008411Y003145D01*
X008374Y003196D01*
X008368Y003191D01*
X008405Y003141D01*
X008439Y003089D01*
X008469Y003035D01*
X008497Y002979D01*
X008520Y002922D01*
X008541Y002863D01*
X008557Y002803D01*
X008570Y002742D01*
X008580Y002681D01*
X008585Y002619D01*
X008587Y002557D01*
X008585Y002495D01*
X008579Y002433D01*
X008570Y002371D01*
X008557Y002311D01*
X008540Y002251D01*
X008520Y002192D01*
X008496Y002134D01*
X008469Y002079D01*
X008439Y002024D01*
X008405Y001972D01*
X008368Y001922D01*
X008328Y001874D01*
X008286Y001829D01*
X008241Y001786D01*
X008193Y001747D01*
X008143Y001710D01*
X008091Y001676D01*
X008036Y001645D01*
X007981Y001618D01*
X007923Y001594D01*
X007864Y001574D01*
X007862Y001581D01*
X007921Y001601D01*
X007978Y001625D01*
X008033Y001652D01*
X008087Y001682D01*
X008139Y001716D01*
X008188Y001752D01*
X008236Y001792D01*
X008281Y001834D01*
X008323Y001879D01*
X008363Y001926D01*
X008399Y001976D01*
X008433Y002028D01*
X008463Y002082D01*
X008490Y002137D01*
X008514Y002194D01*
X008534Y002253D01*
X008550Y002312D01*
X008563Y002373D01*
X008573Y002434D01*
X008578Y002495D01*
X008580Y002557D01*
X008578Y002618D01*
X008573Y002680D01*
X008563Y002741D01*
X008550Y002801D01*
X008534Y002861D01*
X008514Y002919D01*
X008490Y002976D01*
X008463Y003032D01*
X008433Y003086D01*
X008399Y003137D01*
X008363Y003187D01*
X008357Y003183D01*
X008394Y003133D01*
X008427Y003082D01*
X008457Y003028D01*
X008484Y002973D01*
X008507Y002917D01*
X008527Y002859D01*
X008544Y002800D01*
X008556Y002740D01*
X008566Y002679D01*
X008571Y002618D01*
X008573Y002557D01*
X008571Y002495D01*
X008566Y002434D01*
X008556Y002374D01*
X008543Y002314D01*
X008527Y002255D01*
X008507Y002197D01*
X008484Y002140D01*
X008457Y002085D01*
X008427Y002032D01*
X008393Y001980D01*
X008357Y001931D01*
X008318Y001884D01*
X008276Y001839D01*
X008231Y001797D01*
X008184Y001758D01*
X008135Y001721D01*
X008083Y001688D01*
X008030Y001658D01*
X007975Y001631D01*
X007918Y001607D01*
X007860Y001587D01*
D14*
X010229Y007990D02*
X009965Y008255D01*
X009979Y008269D02*
X010146Y008436D01*
X010410Y008171D02*
X010243Y008004D01*
X009764Y009557D02*
X009766Y009641D01*
X009772Y009725D01*
X009782Y009808D01*
X009795Y009891D01*
X009813Y009974D01*
X009834Y010055D01*
X009860Y010135D01*
X009889Y010214D01*
X009921Y010291D01*
X009958Y010367D01*
X009997Y010441D01*
X010040Y010513D01*
X010087Y010584D01*
X010137Y010651D01*
X010190Y010717D01*
X010245Y010779D01*
X010304Y010840D01*
X010366Y010897D01*
X010430Y010951D01*
X010496Y011003D01*
X010565Y011051D01*
X010636Y011096D01*
X010709Y011137D01*
X010784Y011175D01*
X010861Y011209D01*
X010939Y011240D01*
X011019Y011267D01*
X011100Y011291D01*
X011181Y011310D01*
X011264Y011326D01*
X011347Y011338D01*
X011431Y011346D01*
X011515Y011350D01*
X011599Y011350D01*
X011683Y011346D01*
X011767Y011338D01*
X011850Y011326D01*
X011933Y011310D01*
X012014Y011291D01*
X012095Y011267D01*
X012175Y011240D01*
X012253Y011209D01*
X012330Y011175D01*
X012405Y011137D01*
X012478Y011096D01*
X012549Y011051D01*
X012618Y011003D01*
X012684Y010951D01*
X012748Y010897D01*
X012810Y010840D01*
X012869Y010779D01*
X012924Y010717D01*
X012977Y010651D01*
X013027Y010584D01*
X013074Y010513D01*
X013117Y010441D01*
X013156Y010367D01*
X013193Y010291D01*
X013225Y010214D01*
X013254Y010135D01*
X013280Y010055D01*
X013301Y009974D01*
X013319Y009891D01*
X013332Y009808D01*
X013342Y009725D01*
X013348Y009641D01*
X013350Y009557D01*
X013348Y009473D01*
X013342Y009389D01*
X013332Y009306D01*
X013319Y009223D01*
X013301Y009140D01*
X013280Y009059D01*
X013254Y008979D01*
X013225Y008900D01*
X013193Y008823D01*
X013156Y008747D01*
X013117Y008673D01*
X013074Y008601D01*
X013027Y008530D01*
X012977Y008463D01*
X012924Y008397D01*
X012869Y008335D01*
X012810Y008274D01*
X012748Y008217D01*
X012684Y008163D01*
X012618Y008111D01*
X012549Y008063D01*
X012478Y008018D01*
X012405Y007977D01*
X012330Y007939D01*
X012253Y007905D01*
X012175Y007874D01*
X012095Y007847D01*
X012014Y007823D01*
X011933Y007804D01*
X011850Y007788D01*
X011767Y007776D01*
X011683Y007768D01*
X011599Y007764D01*
X011515Y007764D01*
X011431Y007768D01*
X011347Y007776D01*
X011264Y007788D01*
X011181Y007804D01*
X011100Y007823D01*
X011019Y007847D01*
X010939Y007874D01*
X010861Y007905D01*
X010784Y007939D01*
X010709Y007977D01*
X010636Y008018D01*
X010565Y008063D01*
X010496Y008111D01*
X010430Y008163D01*
X010366Y008217D01*
X010304Y008274D01*
X010245Y008335D01*
X010190Y008397D01*
X010137Y008463D01*
X010087Y008530D01*
X010040Y008601D01*
X009997Y008673D01*
X009958Y008747D01*
X009921Y008823D01*
X009889Y008900D01*
X009860Y008979D01*
X009834Y009059D01*
X009813Y009140D01*
X009795Y009223D01*
X009782Y009306D01*
X009772Y009389D01*
X009766Y009473D01*
X009764Y009557D01*
X011007Y014057D02*
X011007Y015057D01*
X013107Y015057D01*
X013107Y014057D01*
X011007Y014057D01*
X012057Y014307D02*
X012057Y014807D01*
X013895Y013568D02*
X013895Y013273D01*
X013895Y013568D02*
X014545Y013568D01*
X015568Y012978D02*
X015568Y011797D01*
X014545Y011206D02*
X013895Y011206D01*
X013895Y011501D01*
D15*
X008682Y006554D02*
X008592Y006419D01*
X008502Y006554D01*
X008412Y006419D02*
X008682Y006419D01*
X008457Y006304D02*
X008637Y006124D01*
X008682Y006124D01*
X008682Y006022D02*
X008637Y006022D01*
X008637Y005977D01*
X008682Y005977D01*
X008682Y006022D01*
X008682Y005817D02*
X008412Y005817D01*
X008547Y005682D01*
X008547Y005862D01*
X008412Y006124D02*
X008412Y006304D01*
X008457Y006304D01*
X007182Y006419D02*
X006912Y006419D01*
X006912Y006304D02*
X006957Y006304D01*
X007137Y006124D01*
X007182Y006124D01*
X007182Y006022D02*
X007137Y006022D01*
X007137Y005977D01*
X007182Y005977D01*
X007182Y006022D01*
X007182Y005817D02*
X006912Y005817D01*
X007047Y005682D01*
X007047Y005862D01*
X006912Y006124D02*
X006912Y006304D01*
X007092Y006419D02*
X007002Y006554D01*
X007092Y006419D02*
X007182Y006554D01*
X005452Y006586D02*
X005182Y006586D01*
X005317Y006451D01*
X005317Y006631D01*
X005407Y006746D02*
X005407Y006791D01*
X005452Y006791D01*
X005452Y006746D01*
X005407Y006746D01*
X005407Y006893D02*
X005452Y006893D01*
X005407Y006893D02*
X005227Y007073D01*
X005182Y007073D01*
X005182Y006893D01*
X005182Y007188D02*
X005452Y007188D01*
X005362Y007188D02*
X005182Y007368D01*
X005317Y007233D02*
X005452Y007368D01*
D16*
X013583Y011403D02*
X013585Y011417D01*
X013591Y011431D01*
X013599Y011443D01*
X013611Y011451D01*
X013625Y011457D01*
X013639Y011459D01*
X013653Y011457D01*
X013667Y011451D01*
X013679Y011443D01*
X013687Y011431D01*
X013693Y011417D01*
X013695Y011403D01*
X013693Y011389D01*
X013687Y011375D01*
X013679Y011363D01*
X013667Y011355D01*
X013653Y011349D01*
X013639Y011347D01*
X013625Y011349D01*
X013611Y011355D01*
X013599Y011363D01*
X013591Y011375D01*
X013585Y011389D01*
X013583Y011403D01*
D17*
X013057Y023557D03*
X003677Y022947D03*
X003707Y020037D03*
X003757Y016007D03*
X003747Y012057D03*
X003757Y009057D03*
X003617Y005617D03*
X003667Y026027D03*
M02*
